<svg id="svg" version="1.1" width="420" height="129" xmlns="http://www.w3.org/2000/svg"><path d="M0.000 17.332 L 0.000 34.665 5.464 34.211 C 8.469 33.962,11.732 34.109,12.714 34.538 C 13.696 34.967,14.838 35.246,15.250 35.159 C 15.662 35.071,16.000 35.450,16.000 36.000 C 16.000 36.550,15.325 37.000,14.500 37.000 C 13.675 37.000,13.000 37.423,13.000 37.941 C 13.000 39.582,15.035 40.215,16.474 39.022 C 17.561 38.119,18.098 38.315,18.961 39.928 C 19.996 41.861,19.804 41.978,15.781 41.876 C 8.248 41.684,8.341 41.972,16.766 44.904 C 21.312 46.486,25.783 48.393,26.703 49.140 C 28.162 50.327,28.287 50.278,27.687 48.750 C 27.309 47.788,26.738 46.213,26.418 45.250 C 25.871 43.602,25.919 43.600,27.253 45.215 C 28.095 46.235,29.041 46.566,29.585 46.033 C 30.678 44.960,32.981 46.620,34.750 49.756 C 35.438 50.975,35.948 54.341,35.884 57.236 C 35.820 60.131,35.562 61.712,35.311 60.750 C 34.375 57.168,33.000 59.171,33.000 64.117 C 33.000 68.684,32.792 69.179,31.065 68.727 C 28.792 68.133,28.000 69.690,28.000 74.748 C 28.000 76.720,27.704 78.037,27.342 77.675 C 26.323 76.656,24.000 79.028,24.000 81.087 C 24.000 83.301,21.123 92.162,20.026 93.326 C 19.598 93.780,19.470 92.993,19.741 91.576 C 20.032 90.052,19.777 89.000,19.117 89.000 C 18.502 89.000,18.000 89.675,18.000 90.500 C 18.000 91.325,17.582 91.887,17.071 91.750 C 16.559 91.612,15.509 92.347,14.737 93.382 C 13.744 94.714,13.302 94.861,13.225 93.882 C 13.166 93.122,12.900 91.600,12.635 90.500 C 12.370 89.400,12.119 86.962,12.077 85.083 C 11.958 79.799,11.052 81.981,10.635 88.555 C 10.322 93.483,9.951 94.470,8.380 94.556 C 7.346 94.612,5.038 94.735,3.250 94.829 L 0.000 95.000 -0.000 112.050 L -0.000 129.100 5.706 128.800 L 11.413 128.500 12.456 124.264 C 13.571 119.738,14.523 119.025,28.250 112.426 C 31.412 110.906,34.000 109.354,34.000 108.977 C 34.000 108.600,35.104 107.101,36.452 105.646 C 39.467 102.393,44.534 102.151,50.729 104.964 C 55.710 107.225,57.902 110.489,61.627 121.189 L 64.346 129.000 71.779 129.000 C 78.272 129.000,79.591 128.680,82.220 126.469 C 84.011 124.961,85.933 124.161,86.973 124.491 C 87.932 124.796,89.286 124.360,89.981 123.523 C 91.427 121.781,95.563 121.484,96.533 123.053 C 96.890 123.632,97.705 123.919,98.342 123.690 C 100.069 123.070,105.000 125.844,105.000 127.435 C 105.000 128.545,107.917 128.843,119.750 128.943 C 132.904 129.054,134.670 128.869,136.067 127.236 C 136.929 126.228,137.433 124.800,137.188 124.063 C 136.942 123.325,137.202 123.007,137.765 123.355 C 138.329 123.703,139.050 123.312,139.367 122.485 C 139.685 121.658,140.509 121.098,141.198 121.241 C 141.888 121.383,142.603 120.520,142.786 119.323 C 143.452 114.979,154.625 109.498,164.500 108.671 C 168.106 108.369,168.007 108.321,163.500 108.179 C 160.750 108.092,156.346 108.675,153.714 109.474 C 147.622 111.322,148.446 109.717,154.679 107.594 C 164.270 104.326,176.928 106.396,184.061 112.398 C 185.762 113.829,186.614 115.000,185.954 115.000 C 185.038 115.000,185.046 115.351,185.989 116.487 C 186.668 117.305,186.972 118.630,186.665 119.432 C 185.967 121.248,190.061 128.981,191.725 128.992 C 192.974 129.000,192.312 126.320,189.996 121.993 C 189.394 120.867,189.362 119.894,189.917 119.551 C 190.424 119.238,191.888 121.217,193.170 123.950 C 195.227 128.336,195.868 128.923,198.642 128.959 C 201.094 128.991,201.909 128.501,202.355 126.723 C 203.114 123.698,209.928 115.809,211.366 116.291 C 213.121 116.879,221.496 113.647,223.556 111.587 C 225.114 110.028,226.443 109.831,232.149 110.309 C 235.861 110.620,239.889 111.406,241.101 112.054 C 243.066 113.106,243.220 113.031,242.531 111.366 C 238.291 101.114,236.765 83.287,239.288 73.500 C 243.256 58.113,248.850 48.842,257.330 43.599 C 261.037 41.307,263.493 40.580,268.165 40.389 C 275.319 40.096,277.087 40.610,276.268 42.743 C 275.791 43.987,276.150 44.194,277.962 43.720 C 279.386 43.348,280.846 43.703,281.795 44.652 C 282.763 45.620,284.321 45.986,286.027 45.645 C 291.400 44.570,297.800 53.869,299.987 65.928 C 301.256 72.924,300.037 84.216,297.454 89.393 C 296.654 90.996,296.000 92.913,296.000 93.654 C 296.000 94.394,295.605 95.000,295.121 95.000 C 294.638 95.000,293.708 96.291,293.054 97.870 C 291.456 101.728,282.696 110.000,280.208 110.000 C 279.111 110.000,277.974 110.626,277.680 111.392 C 277.285 112.420,274.872 112.816,268.459 112.906 C 257.860 113.055,255.514 113.980,259.355 116.497 C 260.820 117.457,263.702 118.867,265.759 119.631 C 269.482 121.013,269.472 121.017,263.500 120.376 C 260.200 120.022,256.458 119.342,255.185 118.866 C 251.181 117.368,251.090 117.860,254.335 123.463 L 257.500 128.925 273.539 128.963 C 287.649 128.995,290.049 128.760,293.500 127.000 C 298.482 124.460,301.211 124.470,303.535 127.038 C 305.306 128.995,306.403 129.071,331.132 128.949 C 356.715 128.822,356.886 128.807,357.192 126.661 C 357.388 125.284,358.107 124.600,359.175 124.777 C 360.096 124.929,361.148 124.569,361.514 123.978 C 361.980 123.223,362.598 123.251,363.589 124.074 C 364.687 124.985,365.007 124.940,365.030 123.872 C 365.051 122.945,365.393 123.070,366.084 124.257 C 366.873 125.611,367.537 125.783,368.988 125.007 C 371.850 123.475,372.726 123.770,373.411 126.500 L 374.038 129.000 388.877 129.000 L 403.717 129.000 407.362 123.510 C 409.373 120.481,412.910 116.836,415.253 115.376 C 420.432 112.150,420.460 112.127,419.808 111.475 C 419.519 111.185,416.529 112.506,413.163 114.408 C 406.446 118.205,402.906 119.145,402.276 117.300 C 402.033 116.587,403.824 115.498,406.683 114.619 L 411.500 113.139 407.309 113.070 C 405.004 113.031,402.858 112.579,402.539 112.064 C 402.221 111.549,401.174 111.186,400.213 111.259 C 396.415 111.545,388.284 108.518,384.332 105.345 C 382.039 103.505,379.339 102.005,378.332 102.010 C 376.569 102.020,377.315 102.809,390.282 114.649 C 391.812 116.046,393.612 116.981,394.282 116.726 C 394.952 116.471,396.589 116.667,397.920 117.162 C 401.625 118.539,398.964 120.352,393.276 120.327 C 387.551 120.302,379.438 116.498,375.744 112.108 C 371.925 107.568,370.500 100.205,370.500 85.000 C 370.500 72.316,370.669 71.140,373.290 65.542 C 374.824 62.265,377.187 58.133,378.540 56.359 C 379.893 54.585,381.000 52.937,381.000 52.697 C 381.000 52.458,378.637 52.211,375.750 52.149 C 368.755 51.999,365.410 51.212,359.838 48.404 C 351.696 44.302,349.476 39.066,348.303 21.199 C 347.871 14.624,348.004 11.884,348.734 12.336 C 349.935 13.078,351.305 10.303,350.434 8.893 C 350.119 8.384,349.382 8.264,348.796 8.626 C 348.064 9.079,347.948 7.831,348.426 4.642 C 349.101 0.146,349.042 -0.000,346.561 -0.000 C 344.308 -0.000,344.000 0.415,344.000 3.451 C 344.000 5.349,343.378 9.287,342.617 12.201 C 341.161 17.779,332.512 37.439,330.387 40.000 C 329.298 41.312,330.165 41.500,337.321 41.500 C 344.537 41.500,346.138 41.853,350.922 44.500 C 356.568 47.623,363.227 54.986,365.688 60.825 C 368.155 66.678,368.471 76.130,366.460 83.886 C 365.460 87.742,364.214 90.632,363.691 90.309 C 363.168 89.986,362.961 90.347,363.229 91.111 C 363.498 91.875,362.390 95.157,360.767 98.405 C 355.573 108.794,350.887 114.981,346.064 117.817 C 341.965 120.227,340.533 120.497,332.000 120.472 C 323.942 120.449,321.663 120.055,316.987 117.882 C 305.106 112.360,302.809 107.186,302.682 85.665 C 302.574 67.535,305.235 59.746,314.704 50.465 C 318.000 47.235,318.179 46.844,316.064 47.499 C 308.160 49.945,294.229 46.617,288.892 41.007 C 285.547 37.490,285.161 36.425,283.592 26.357 C 282.662 20.386,281.631 12.013,281.302 7.750 L 280.704 0.000 242.352 0.000 L 204.000 0.000 204.100 3.250 C 204.195 6.358,204.236 6.391,205.046 4.000 C 205.858 1.602,205.884 1.623,205.696 4.500 C 205.546 6.792,204.960 7.577,203.212 7.824 C 201.185 8.112,200.990 7.827,201.503 5.324 C 201.822 3.771,200.582 6.100,198.749 10.500 C 196.515 15.862,194.674 18.830,193.166 19.500 C 191.929 20.050,190.662 21.509,190.352 22.743 C 190.041 23.977,189.366 24.726,188.853 24.409 C 188.339 24.091,188.192 22.970,188.527 21.916 C 189.315 19.432,187.795 19.464,185.520 21.978 C 183.761 23.922,179.000 24.424,179.000 22.665 C 179.000 22.171,177.875 21.982,176.500 22.245 C 174.824 22.565,174.000 22.274,174.000 21.361 C 174.000 20.613,173.550 20.000,173.000 20.000 C 172.450 20.000,172.000 20.675,172.000 21.500 C 172.000 22.325,171.583 23.000,171.073 23.000 C 170.564 23.000,169.941 23.788,169.689 24.750 C 169.402 25.851,169.189 25.502,169.116 23.809 C 168.999 21.105,167.000 18.689,167.000 21.252 C 167.000 22.006,166.213 23.495,165.250 24.561 C 164.287 25.628,163.399 27.625,163.275 29.000 C 163.152 30.375,163.302 30.938,163.609 30.250 C 164.471 28.319,165.893 28.773,165.731 30.927 C 165.595 32.727,165.362 32.760,162.171 31.427 C 157.051 29.288,156.522 29.676,159.923 33.077 C 161.615 34.769,163.000 36.569,163.000 37.077 C 163.000 37.585,163.618 38.000,164.373 38.000 C 165.128 38.000,167.846 38.929,170.413 40.064 C 174.564 41.901,175.490 41.985,178.790 40.828 C 180.830 40.113,183.033 39.516,183.684 39.501 C 184.336 39.487,186.064 38.436,187.525 37.165 C 188.986 35.895,190.759 35.077,191.466 35.349 C 193.181 36.007,194.604 32.371,194.430 27.780 C 194.353 25.734,194.562 24.214,194.895 24.402 C 195.228 24.590,196.400 23.833,197.500 22.718 C 198.600 21.604,198.968 20.994,198.318 21.363 C 197.586 21.779,197.738 20.792,198.718 18.767 C 201.105 13.838,202.182 12.676,203.054 14.087 C 203.456 14.738,202.231 19.821,200.332 25.385 C 196.201 37.488,193.076 41.050,184.366 43.582 C 172.948 46.901,156.456 43.482,150.910 36.644 C 149.304 34.664,147.361 29.470,146.442 24.701 C 146.233 23.613,145.332 20.212,144.439 17.143 C 143.324 13.306,143.158 11.447,143.908 11.197 C 144.509 10.997,145.000 9.746,145.000 8.417 C 145.000 6.667,144.448 6.000,143.000 6.000 C 141.420 6.000,140.990 5.317,140.951 2.750 C 140.918 0.604,140.105 2.558,138.555 8.500 C 135.953 18.483,132.803 26.943,129.991 31.500 L 128.140 34.500 133.913 34.169 C 142.827 33.658,147.507 35.377,153.488 41.358 C 160.130 47.999,163.049 55.281,162.882 64.788 C 162.817 68.479,162.420 72.850,162.000 74.500 L 161.237 77.500 161.019 74.500 C 160.803 71.531,160.792 71.526,160.000 74.000 C 159.560 75.375,159.161 77.400,159.115 78.500 C 159.045 80.148,159.201 80.236,160.000 79.000 C 161.816 76.191,161.128 80.881,158.385 90.022 C 156.552 96.131,154.473 100.469,151.431 104.537 C 149.044 107.728,147.293 110.665,147.540 111.065 C 147.787 111.464,147.293 112.057,146.442 112.384 C 145.592 112.710,145.137 112.588,145.431 112.112 C 145.724 111.637,144.285 111.847,142.232 112.580 C 138.204 114.018,128.198 114.431,126.390 113.235 C 125.010 112.322,121.694 105.972,122.288 105.379 C 122.527 105.140,123.939 105.407,125.426 105.972 C 128.836 107.268,130.731 107.320,129.450 106.081 C 128.928 105.576,126.925 105.014,125.000 104.831 C 123.075 104.649,121.275 104.240,121.000 103.923 C 120.725 103.606,117.807 102.481,114.514 101.423 C 108.769 99.577,108.454 99.299,106.672 94.500 C 104.781 89.407,104.343 80.057,105.268 64.500 C 105.804 55.487,110.009 46.811,115.759 42.854 C 117.873 41.399,117.544 41.330,110.635 41.773 C 104.745 42.151,101.884 41.792,96.488 39.996 C 84.052 35.857,79.821 29.742,76.379 10.928 C 74.958 3.159,74.917 1.666,76.104 0.914 C 76.976 0.363,74.257 0.025,68.868 0.015 L 60.236 0.000 60.182 3.906 C 60.132 7.521,58.328 16.000,57.608 16.000 C 57.435 16.000,57.465 13.637,57.676 10.750 C 58.006 6.206,57.885 5.764,56.779 7.461 C 55.026 10.150,50.831 14.266,48.461 15.623 C 46.553 16.715,46.550 16.801,48.342 18.803 C 50.150 20.823,50.141 20.851,47.842 20.342 C 46.554 20.056,44.825 19.562,44.000 19.244 C 41.518 18.288,35.548 18.432,34.807 19.466 C 34.426 19.998,34.594 21.011,35.180 21.716 C 35.766 22.422,35.869 23.000,35.410 23.000 C 34.951 23.000,33.658 21.851,32.538 20.447 C 30.964 18.476,29.373 17.803,25.548 17.493 C 22.825 17.271,20.065 17.531,19.415 18.071 C 18.613 18.736,18.064 18.608,17.705 17.673 C 17.366 16.790,15.897 16.380,13.619 16.533 C 10.885 16.716,9.924 16.335,9.464 14.886 C 9.135 13.849,8.528 13.000,8.117 13.000 C 7.705 13.000,6.282 11.088,4.954 8.750 C 2.467 4.372,2.337 4.039,2.125 1.500 C 2.056 0.675,1.550 0.000,1.000 0.000 C 0.372 0.000,0.000 6.444,0.000 17.332 M142.158 2.000 C 142.158 3.375,142.385 3.938,142.662 3.250 C 142.940 2.563,142.940 1.438,142.662 0.750 C 142.385 0.062,142.158 0.625,142.158 2.000 M410.848 7.336 C 410.556 13.117,409.824 15.925,407.395 20.586 C 404.411 26.311,402.739 30.894,402.500 34.000 C 402.227 37.553,400.689 40.922,399.155 41.329 C 398.245 41.570,400.461 41.820,404.081 41.884 C 408.843 41.968,411.951 42.653,415.331 44.364 L 420.000 46.728 420.000 23.364 L 420.000 0.000 415.609 0.000 L 411.219 0.000 410.848 7.336 M283.000 3.000 C 283.000 4.100,283.173 5.000,283.383 5.000 C 283.594 5.000,284.002 4.100,284.290 3.000 C 284.577 1.900,284.405 1.000,283.906 1.000 C 283.408 1.000,283.000 1.900,283.000 3.000 M341.000 8.000 C 341.000 9.100,341.173 10.000,341.383 10.000 C 341.594 10.000,342.002 9.100,342.290 8.000 C 342.577 6.900,342.405 6.000,341.906 6.000 C 341.408 6.000,341.000 6.900,341.000 8.000 M135.000 8.000 C 134.175 8.533,133.950 8.969,134.500 8.969 C 135.050 8.969,136.175 8.533,137.000 8.000 C 137.825 7.467,138.050 7.031,137.500 7.031 C 136.950 7.031,135.825 7.467,135.000 8.000 M61.870 16.668 C 60.760 22.609,59.636 23.802,60.243 18.394 C 60.658 14.701,61.582 12.000,62.430 12.000 C 62.601 12.000,62.349 14.101,61.870 16.668 M154.000 15.000 C 154.000 15.550,154.450 16.000,155.000 16.000 C 155.550 16.000,156.000 15.550,156.000 15.000 C 156.000 14.450,155.550 14.000,155.000 14.000 C 154.450 14.000,154.000 14.450,154.000 15.000 M152.000 22.449 C 152.000 22.831,152.675 23.818,153.500 24.643 C 154.325 25.468,155.000 25.716,155.000 25.194 C 155.000 24.672,154.325 23.685,153.500 23.000 C 152.675 22.315,152.000 22.067,152.000 22.449 M404.122 32.675 C 402.943 34.702,402.659 34.053,403.624 31.539 C 403.966 30.645,404.458 30.124,404.715 30.382 C 404.973 30.639,404.706 31.671,404.122 32.675 M393.000 35.971 C 385.862 39.474,383.987 39.928,377.045 39.834 C 369.571 39.733,367.647 40.632,370.417 42.931 C 372.379 44.559,375.220 44.965,376.661 43.823 C 378.362 42.475,379.430 44.777,377.938 46.575 C 376.934 47.784,377.058 48.331,378.602 49.499 C 381.379 51.602,382.508 51.362,387.394 47.633 C 389.820 45.781,393.039 43.956,394.547 43.578 C 396.428 43.105,396.966 42.566,396.260 41.860 C 395.553 41.153,394.267 41.328,392.165 42.415 C 388.349 44.388,388.000 44.386,388.000 42.393 C 388.000 41.381,388.551 40.997,389.488 41.357 C 390.306 41.671,390.869 41.554,390.738 41.096 C 390.607 40.639,391.625 39.344,393.000 38.218 C 395.603 36.088,395.603 34.693,393.000 35.971 M137.000 37.000 C 137.000 37.550,137.450 38.000,138.000 38.000 C 138.550 38.000,139.000 37.550,139.000 37.000 C 139.000 36.450,138.550 36.000,138.000 36.000 C 137.450 36.000,137.000 36.450,137.000 37.000 M80.655 40.365 C 82.389 40.439,83.600 40.837,83.345 41.250 C 83.091 41.663,83.610 42.000,84.500 42.000 C 85.428 42.000,85.826 42.472,85.434 43.107 C 84.964 43.867,85.481 43.982,87.078 43.475 C 89.309 42.767,89.332 42.810,87.629 44.513 C 86.652 45.491,86.257 46.563,86.751 46.895 C 87.246 47.228,88.404 48.962,89.325 50.750 C 90.246 52.538,91.675 55.307,92.500 56.904 C 94.080 59.963,94.477 65.739,93.235 67.602 C 91.930 69.560,85.220 72.171,82.369 71.831 C 80.135 71.564,79.488 71.966,79.027 73.906 C 78.494 76.145,78.340 76.197,76.799 74.656 C 74.459 72.316,74.014 72.561,73.898 76.250 L 73.796 79.500 72.810 76.449 C 72.269 74.772,70.852 72.972,69.663 72.449 C 68.464 71.923,67.351 70.386,67.165 69.000 C 66.599 64.772,65.000 64.255,65.000 68.300 C 65.000 73.287,63.513 72.984,62.297 67.750 L 61.311 63.500 60.533 68.699 C 59.909 72.876,59.508 73.651,58.498 72.641 C 57.806 71.949,56.922 69.497,56.532 67.192 C 55.836 63.069,54.610 61.792,53.708 64.250 C 52.933 66.364,51.194 63.856,50.127 59.086 L 49.139 54.673 57.003 46.691 L 64.867 38.710 71.184 39.470 C 74.658 39.888,78.920 40.290,80.655 40.365 M218.235 43.965 C 223.622 46.515,231.000 53.609,231.000 56.240 C 231.000 57.208,230.550 58.000,230.000 58.000 C 229.450 58.000,229.000 57.475,229.000 56.833 C 229.000 56.192,228.729 55.938,228.398 56.269 C 228.067 56.600,228.517 57.900,229.398 59.158 C 230.639 60.930,231.000 61.071,231.000 59.785 C 231.000 58.819,231.732 58.180,232.750 58.258 C 234.168 58.367,234.560 59.529,234.819 64.384 C 234.994 67.679,234.706 71.303,234.179 72.438 C 233.652 73.572,232.723 76.344,232.115 78.598 C 230.702 83.843,226.682 88.183,222.821 88.632 C 220.450 88.909,219.693 88.541,219.265 86.907 C 218.853 85.331,218.521 85.152,217.884 86.165 C 217.423 86.899,217.279 88.250,217.564 89.166 C 218.361 91.730,216.300 92.300,214.120 90.120 C 213.046 89.046,211.942 88.391,211.667 88.666 C 210.419 89.914,199.726 89.583,198.397 88.255 C 197.201 87.058,197.000 87.131,197.000 88.762 C 197.000 89.810,196.721 90.945,196.381 91.286 C 195.493 92.173,193.000 89.434,193.000 87.571 C 193.000 85.363,191.276 85.616,189.993 88.013 C 189.098 89.685,188.564 89.837,186.838 88.914 C 185.696 88.302,184.527 86.908,184.242 85.816 C 183.901 84.513,183.476 84.230,183.004 84.993 C 182.608 85.634,181.462 82.978,180.450 79.078 C 179.441 75.185,178.251 72.000,177.807 72.000 C 176.592 72.000,176.838 64.450,178.146 61.578 C 179.974 57.568,180.917 59.563,179.347 64.119 C 178.562 66.397,178.128 68.764,178.381 69.380 C 178.635 69.996,178.878 69.807,178.921 68.961 C 179.005 67.332,185.566 54.165,187.098 52.550 C 187.594 52.028,187.982 51.127,187.959 50.550 C 187.937 49.973,186.596 51.047,184.980 52.937 C 183.364 54.828,181.810 56.143,181.527 55.860 C 181.244 55.577,182.630 53.456,184.607 51.147 C 193.003 41.337,206.566 38.440,218.235 43.965 M342.000 44.000 C 342.000 44.550,342.477 45.000,343.059 45.000 C 343.641 45.000,343.840 44.550,343.500 44.000 C 343.160 43.450,342.684 43.000,342.441 43.000 C 342.198 43.000,342.000 43.450,342.000 44.000 M408.000 45.000 C 408.000 45.550,408.450 46.000,409.000 46.000 C 409.550 46.000,410.000 45.550,410.000 45.000 C 410.000 44.450,409.550 44.000,409.000 44.000 C 408.450 44.000,408.000 44.450,408.000 45.000 M385.000 46.393 C 385.000 46.609,384.325 47.045,383.500 47.362 C 382.675 47.678,382.000 47.501,382.000 46.969 C 382.000 46.436,382.675 46.000,383.500 46.000 C 384.325 46.000,385.000 46.177,385.000 46.393 M104.662 66.250 C 104.385 66.938,104.158 66.375,104.158 65.000 C 104.158 63.625,104.385 63.063,104.662 63.750 C 104.940 64.438,104.940 65.563,104.662 66.250 M233.158 70.000 C 233.158 71.375,233.385 71.938,233.662 71.250 C 233.940 70.563,233.940 69.438,233.662 68.750 C 233.385 68.063,233.158 68.625,233.158 70.000 M374.079 73.583 C 374.127 74.748,374.364 74.985,374.683 74.188 C 374.972 73.466,374.936 72.603,374.604 72.271 C 374.272 71.939,374.036 72.529,374.079 73.583 M373.195 78.500 C 373.215 80.150,373.439 80.704,373.693 79.731 C 373.947 78.758,373.930 77.408,373.656 76.731 C 373.382 76.054,373.175 76.850,373.195 78.500 M240.079 80.583 C 240.127 81.748,240.364 81.985,240.683 81.188 C 240.972 80.466,240.936 79.603,240.604 79.271 C 240.272 78.939,240.036 79.529,240.079 80.583 M331.000 104.000 C 330.099 104.582,329.975 104.975,330.691 104.985 C 331.346 104.993,332.160 104.550,332.500 104.000 C 333.267 102.758,332.921 102.758,331.000 104.000 M335.564 104.707 C 335.022 106.132,335.136 106.247,336.124 105.267 C 336.808 104.588,337.115 103.781,336.807 103.474 C 336.499 103.166,335.940 103.721,335.564 104.707 M315.813 105.683 C 316.534 105.972,317.397 105.936,317.729 105.604 C 318.061 105.272,317.471 105.036,316.417 105.079 C 315.252 105.127,315.015 105.364,315.813 105.683 M404.500 106.000 C 404.160 106.550,404.557 107.000,405.382 107.000 C 406.207 107.000,407.160 106.550,407.500 106.000 C 407.840 105.450,407.443 105.000,406.618 105.000 C 405.793 105.000,404.840 105.450,404.500 106.000 M417.557 108.582 C 416.491 109.362,416.041 109.993,416.559 109.985 C 417.941 109.962,420.520 108.186,419.969 107.636 C 419.710 107.376,418.624 107.802,417.557 108.582 M328.321 110.481 C 329.097 112.849,342.775 112.625,345.195 110.205 C 345.797 109.603,342.807 109.292,337.067 109.357 C 331.390 109.422,328.112 109.843,328.321 110.481 M232.000 112.059 C 232.000 112.641,232.450 112.840,233.000 112.500 C 233.550 112.160,234.000 111.684,234.000 111.441 C 234.000 111.198,233.550 111.000,233.000 111.000 C 232.450 111.000,232.000 111.477,232.000 112.059 M182.000 113.500 C 182.685 114.325,183.695 115.000,184.245 115.000 C 184.803 115.000,184.694 114.337,184.000 113.500 C 183.315 112.675,182.305 112.000,181.755 112.000 C 181.197 112.000,181.306 112.663,182.000 113.500 M251.000 123.809 C 251.000 124.254,251.661 125.491,252.468 126.559 C 253.967 128.541,254.486 127.431,253.393 124.582 C 252.766 122.948,251.000 122.377,251.000 123.809 " stroke="none" fill="black" fill-rule="evenodd"/></svg>