<svg width="420" height="129" xmlns="http://www.w3.org/2000/svg"><path d="M0 17.332v17.333l5.464-.454c3.005-.249 6.268-.102 7.25.327.982.429 2.124.708 2.536.621.412-.088.75.291.75.841s-.675 1-1.5 1-1.5.423-1.5.941c0 1.641 2.035 2.274 3.474 1.081 1.087-.903 1.624-.707 2.487.906 1.035 1.933.843 2.05-3.18 1.948-7.533-.192-7.44.096.985 3.028 4.546 1.582 9.017 3.489 9.937 4.236 1.459 1.187 1.584 1.138.984-.39a84.214 84.214 0 01-1.269-3.5c-.547-1.648-.499-1.65.835-.035.842 1.02 1.788 1.351 2.332.818 1.093-1.073 3.396.587 5.165 3.723.688 1.219 1.198 4.585 1.134 7.48-.064 2.895-.322 4.476-.573 3.514C34.375 57.168 33 59.171 33 64.117c0 4.567-.208 5.062-1.935 4.61-2.273-.594-3.065.963-3.065 6.021 0 1.972-.296 3.289-.658 2.927C26.323 76.656 24 79.028 24 81.087c0 2.214-2.877 11.075-3.974 12.239-.428.454-.556-.333-.285-1.75.291-1.524.036-2.576-.624-2.576-.615 0-1.117.675-1.117 1.5s-.418 1.387-.929 1.25c-.512-.138-1.562.597-2.334 1.632-.993 1.332-1.435 1.479-1.512.5-.059-.76-.325-2.282-.59-3.382-.265-1.1-.516-3.538-.558-5.417-.119-5.284-1.025-3.102-1.442 3.472-.313 4.928-.684 5.915-2.255 6.001-1.034.056-3.342.179-5.13.273L0 95v34.1l5.706-.3 5.707-.3 1.043-4.236c1.115-4.526 2.067-5.239 15.794-11.838 3.162-1.52 5.75-3.072 5.75-3.449 0-.377 1.104-1.876 2.452-3.331 3.015-3.253 8.082-3.495 14.277-.682 4.981 2.261 7.173 5.525 10.898 16.225L64.346 129h7.433c6.493 0 7.812-.32 10.441-2.531 1.791-1.508 3.713-2.308 4.753-1.978.959.305 2.313-.131 3.008-.968 1.446-1.742 5.582-2.039 6.552-.47.357.579 1.172.866 1.809.637 1.727-.62 6.658 2.154 6.658 3.745 0 1.11 2.917 1.408 14.75 1.508 13.154.111 14.92-.074 16.317-1.707.862-1.008 1.366-2.436 1.121-3.173-.246-.738.014-1.056.577-.708.564.348 1.285-.043 1.602-.87.318-.827 1.142-1.387 1.831-1.244.69.142 1.405-.721 1.588-1.918.666-4.344 11.839-9.825 21.714-10.652 3.606-.302 3.507-.35-1-.492-2.75-.087-7.154.496-9.786 1.295-6.092 1.848-5.268.243.965-1.88 9.591-3.268 22.249-1.198 29.382 4.804 1.701 1.431 2.553 2.602 1.893 2.602-.916 0-.908.351.035 1.487.679.818.983 2.143.676 2.945-.698 1.816 3.396 9.549 5.06 9.56 1.249.008.587-2.672-1.729-6.999-.602-1.126-.634-2.099-.079-2.442.507-.313 1.971 1.666 3.253 4.399 2.057 4.386 2.698 4.973 5.472 5.009 2.452.032 3.267-.458 3.713-2.236.759-3.025 7.573-10.914 9.011-10.432 1.755.588 10.13-2.644 12.19-4.704 1.558-1.559 2.887-1.756 8.593-1.278 3.712.311 7.74 1.097 8.952 1.745 1.965 1.052 2.119.977 1.43-.688-4.24-10.252-5.766-28.079-3.243-37.866 3.968-15.387 9.562-24.658 18.042-29.901 3.707-2.292 6.163-3.019 10.835-3.21 7.154-.293 8.922.221 8.103 2.354-.477 1.244-.118 1.451 1.694.977 1.424-.372 2.884-.017 3.833.932.968.968 2.526 1.334 4.232.993 5.373-1.075 11.773 8.224 13.96 20.283 1.269 6.996.05 18.288-2.533 23.465-.8 1.603-1.454 3.52-1.454 4.261 0 .74-.395 1.346-.879 1.346-.483 0-1.413 1.291-2.067 2.87-1.598 3.858-10.358 12.13-12.846 12.13-1.097 0-2.234.626-2.528 1.392-.395 1.028-2.808 1.424-9.221 1.514-10.599.149-12.945 1.074-9.104 3.591 1.465.96 4.347 2.37 6.404 3.134 3.723 1.382 3.713 1.386-2.259.745-3.3-.354-7.042-1.034-8.315-1.51-4.004-1.498-4.095-1.006-.85 4.597l3.165 5.462 16.039.038c14.11.032 16.51-.203 19.961-1.963 4.982-2.54 7.711-2.53 10.035.038 1.771 1.957 2.868 2.033 27.597 1.911 25.583-.127 25.754-.142 26.06-2.288.196-1.377.915-2.061 1.983-1.884.921.152 1.973-.208 2.339-.799.466-.755 1.084-.727 2.075.096 1.098.911 1.418.866 1.441-.202.021-.927.363-.802 1.054.385.789 1.354 1.453 1.526 2.904.75 2.862-1.532 3.738-1.237 4.423 1.493l.627 2.5H403.717l3.645-5.49c2.011-3.029 5.548-6.674 7.891-8.134 5.179-3.226 5.207-3.249 4.555-3.901-.289-.29-3.279 1.031-6.645 2.933-6.717 3.797-10.257 4.737-10.887 2.892-.243-.713 1.548-1.802 4.407-2.681l4.817-1.48-4.191-.069c-2.305-.039-4.451-.491-4.77-1.006-.318-.515-1.365-.878-2.326-.805-3.798.286-11.929-2.741-15.881-5.914-2.293-1.84-4.993-3.34-6-3.335-1.763.01-1.017.799 11.95 12.639 1.53 1.397 3.33 2.332 4 2.077.67-.255 2.307-.059 3.638.436 3.705 1.377 1.044 3.19-4.644 3.165-5.725-.025-13.838-3.829-17.532-8.219-3.819-4.54-5.244-11.903-5.244-27.108 0-12.684.169-13.86 2.79-19.458 1.534-3.277 3.897-7.409 5.25-9.183 1.353-1.774 2.46-3.422 2.46-3.662 0-.239-2.363-.486-5.25-.548-6.995-.15-10.34-.937-15.912-3.745-8.142-4.102-10.362-9.338-11.535-27.205-.432-6.575-.299-9.315.431-8.863 1.201.742 2.571-2.033 1.7-3.443-.315-.509-1.052-.629-1.638-.267-.732.453-.848-.795-.37-3.984.675-4.496.616-4.642-1.865-4.642C344.308 0 344 .415 344 3.451c0 1.898-.622 5.836-1.383 8.75-1.456 5.578-10.105 25.238-12.23 27.799-1.089 1.312-.222 1.5 6.934 1.5 7.216 0 8.817.353 13.601 3 5.646 3.123 12.305 10.486 14.766 16.325 2.467 5.853 2.783 15.305.772 23.061-1 3.856-2.246 6.746-2.769 6.423-.523-.323-.73.038-.462.802.269.764-.839 4.046-2.462 7.294-5.194 10.389-9.88 16.576-14.703 19.412-4.099 2.41-5.531 2.68-14.064 2.655-8.058-.023-10.337-.417-15.013-2.59-11.881-5.522-14.178-10.696-14.305-32.217-.108-18.13 2.553-25.919 12.022-35.2 3.296-3.23 3.475-3.621 1.36-2.966-7.904 2.446-21.835-.882-27.172-6.492-3.345-3.517-3.731-4.582-5.3-14.65-.93-5.971-1.961-14.344-2.29-18.607L280.704 0H204l.1 3.25c.095 3.108.136 3.141.946.75.812-2.398.838-2.377.65.5-.15 2.292-.736 3.077-2.484 3.324-2.027.288-2.222.003-1.709-2.5.319-1.553-.921.776-2.754 5.176-2.234 5.362-4.075 8.33-5.583 9-1.237.55-2.504 2.009-2.814 3.243-.311 1.234-.986 1.983-1.499 1.666-.514-.318-.661-1.439-.326-2.493.788-2.484-.732-2.452-3.007.062-1.759 1.944-6.52 2.446-6.52.687 0-.494-1.125-.683-2.5-.42-1.676.32-2.5.029-2.5-.884 0-.748-.45-1.361-1-1.361s-1 .675-1 1.5-.417 1.5-.927 1.5c-.509 0-1.132.788-1.384 1.75-.287 1.101-.5.752-.573-.941-.117-2.704-2.116-5.12-2.116-2.557 0 .754-.787 2.243-1.75 3.309-.963 1.067-1.851 3.064-1.975 4.439-.123 1.375.027 1.938.334 1.25.862-1.931 2.284-1.477 2.122.677-.136 1.8-.369 1.833-3.56.5-5.12-2.139-5.649-1.751-2.248 1.65 1.692 1.692 3.077 3.492 3.077 4s.618.923 1.373.923 3.473.929 6.04 2.064c4.151 1.837 5.077 1.921 8.377.764 2.04-.715 4.243-1.312 4.894-1.327.652-.014 2.38-1.065 3.841-2.336 1.461-1.27 3.234-2.088 3.941-1.816 1.715.658 3.138-2.978 2.964-7.569-.077-2.046.132-3.566.465-3.378.333.188 1.505-.569 2.605-1.684 1.1-1.114 1.468-1.724.818-1.355-.732.416-.58-.571.4-2.596 2.387-4.929 3.464-6.091 4.336-4.68.402.651-.823 5.734-2.722 11.298-4.131 12.103-7.256 15.665-15.966 18.197-11.418 3.319-27.91-.1-33.456-6.938-1.606-1.98-3.549-7.174-4.468-11.943-.209-1.088-1.11-4.489-2.003-7.558-1.115-3.837-1.281-5.696-.531-5.946.601-.2 1.092-1.451 1.092-2.78 0-1.75-.552-2.417-2-2.417-1.58 0-2.01-.683-2.049-3.25-.033-2.146-.846-.192-2.396 5.75-2.602 9.983-5.752 18.443-8.564 23l-1.851 3 5.773-.331c8.914-.511 13.594 1.208 19.575 7.189 6.642 6.641 9.561 13.923 9.394 23.43-.065 3.691-.462 8.062-.882 9.712l-.763 3-.218-3c-.216-2.969-.227-2.974-1.019-.5-.44 1.375-.839 3.4-.885 4.5-.07 1.648.086 1.736.885.5 1.816-2.809 1.128 1.881-1.615 11.022-1.833 6.109-3.912 10.447-6.954 14.515-2.387 3.191-4.138 6.128-3.891 6.528.247.399-.247.992-1.098 1.319-.85.326-1.305.204-1.011-.272.293-.475-1.146-.265-3.199.468-4.028 1.438-14.034 1.851-15.842.655-1.38-.913-4.696-7.263-4.102-7.856.239-.239 1.651.028 3.138.593 3.41 1.296 5.305 1.348 4.024.109-.522-.505-2.525-1.067-4.45-1.25-1.925-.182-3.725-.591-4-.908-.275-.317-3.193-1.442-6.486-2.5-5.745-1.846-6.06-2.124-7.842-6.923-1.891-5.093-2.329-14.443-1.404-30 .536-9.013 4.741-17.689 10.491-21.646 2.114-1.455 1.785-1.524-5.124-1.081-5.89.378-8.751.019-14.147-1.777-12.436-4.139-16.667-10.254-20.109-29.068-1.421-7.769-1.462-9.262-.275-10.014.872-.551-1.847-.889-7.236-.899L60.236 0l-.054 3.906C60.132 7.521 58.328 16 57.608 16c-.173 0-.143-2.363.068-5.25.33-4.544.209-4.986-.897-3.289-1.753 2.689-5.948 6.805-8.318 8.162-1.908 1.092-1.911 1.178-.119 3.18 1.808 2.02 1.799 2.048-.5 1.539-1.288-.286-3.017-.78-3.842-1.098-2.482-.956-8.452-.812-9.193.222-.381.532-.213 1.545.373 2.25.586.706.689 1.284.23 1.284-.459 0-1.752-1.149-2.872-2.553-1.574-1.971-3.165-2.644-6.99-2.954-2.723-.222-5.483.038-6.133.578-.802.665-1.351.537-1.71-.398-.339-.883-1.808-1.293-4.086-1.14-2.734.183-3.695-.198-4.155-1.647C9.135 13.849 8.528 13 8.117 13c-.412 0-1.835-1.912-3.163-4.25C2.467 4.372 2.337 4.039 2.125 1.5 2.056.675 1.55 0 1 0 .372 0 0 6.444 0 17.332M142.158 2c0 1.375.227 1.938.504 1.25.278-.687.278-1.812 0-2.5-.277-.688-.504-.125-.504 1.25m268.69 5.336c-.292 5.781-1.024 8.589-3.453 13.25-2.984 5.725-4.656 10.308-4.895 13.414-.273 3.553-1.811 6.922-3.345 7.329-.91.241 1.306.491 4.926.555 4.762.084 7.87.769 11.25 2.48L420 46.728V0H411.219l-.371 7.336M283 3c0 1.1.173 2 .383 2 .211 0 .619-.9.907-2 .287-1.1.115-2-.384-2-.498 0-.906.9-.906 2m58 5c0 1.1.173 2 .383 2 .211 0 .619-.9.907-2 .287-1.1.115-2-.384-2-.498 0-.906.9-.906 2M135 8c-.825.533-1.05.969-.5.969s1.675-.436 2.5-.969c.825-.533 1.05-.969.5-.969s-1.675.436-2.5.969m-73.13 8.668c-1.11 5.941-2.234 7.134-1.627 1.726C60.658 14.701 61.582 12 62.43 12c.171 0-.081 2.101-.56 4.668M154 15c0 .55.45 1 1 1s1-.45 1-1-.45-1-1-1-1 .45-1 1m-2 7.449c0 .382.675 1.369 1.5 2.194s1.5 1.073 1.5.551c0-.522-.675-1.509-1.5-2.194s-1.5-.933-1.5-.551m252.122 10.226c-1.179 2.027-1.463 1.378-.498-1.136.342-.894.834-1.415 1.091-1.157.258.257-.009 1.289-.593 2.293M393 35.971c-7.138 3.503-9.013 3.957-15.955 3.863-7.474-.101-9.398.798-6.628 3.097 1.962 1.628 4.803 2.034 6.244.892 1.701-1.348 2.769.954 1.277 2.752-1.004 1.209-.88 1.756.664 2.924 2.777 2.103 3.906 1.863 8.792-1.866 2.426-1.852 5.645-3.677 7.153-4.055 1.881-.473 2.419-1.012 1.713-1.718-.707-.707-1.993-.532-4.095.555-3.816 1.973-4.165 1.971-4.165-.022 0-1.012.551-1.396 1.488-1.036.818.314 1.381.197 1.25-.261-.131-.457.887-1.752 2.262-2.878 2.603-2.13 2.603-3.525 0-2.247M137 37c0 .55.45 1 1 1s1-.45 1-1-.45-1-1-1-1 .45-1 1m-56.345 3.365c1.734.074 2.945.472 2.69.885-.254.413.265.75 1.155.75.928 0 1.326.472.934 1.107-.47.76.047.875 1.644.368 2.231-.708 2.254-.665.551 1.038-.977.978-1.372 2.05-.878 2.382.495.333 1.653 2.067 2.574 3.855.921 1.788 2.35 4.557 3.175 6.154 1.58 3.059 1.977 8.835.735 10.698-1.305 1.958-8.015 4.569-10.866 4.229-2.234-.267-2.881.135-3.342 2.075-.533 2.239-.687 2.291-2.228.75-2.34-2.34-2.785-2.095-2.901 1.594l-.102 3.25-.986-3.051c-.541-1.677-1.958-3.477-3.147-4-1.199-.526-2.312-2.063-2.498-3.449-.566-4.228-2.165-4.745-2.165-.7 0 4.987-1.487 4.684-2.703-.55l-.986-4.25-.778 5.199c-.624 4.177-1.025 4.952-2.035 3.942-.692-.692-1.576-3.144-1.966-5.449-.696-4.123-1.922-5.4-2.824-2.942-.775 2.114-2.514-.394-3.581-5.164l-.988-4.413 7.864-7.982 7.864-7.981 6.317.76c3.474.418 7.736.82 9.471.895m137.58 3.6C223.622 46.515 231 53.609 231 56.24c0 .968-.45 1.76-1 1.76s-1-.525-1-1.167c0-.641-.271-.895-.602-.564-.331.331.119 1.631 1 2.889 1.241 1.772 1.602 1.913 1.602.627 0-.966.732-1.605 1.75-1.527 1.418.109 1.81 1.271 2.069 6.126.175 3.295-.113 6.919-.64 8.054-.527 1.134-1.456 3.906-2.064 6.16-1.413 5.245-5.433 9.585-9.294 10.034-2.371.277-3.128-.091-3.556-1.725-.412-1.576-.744-1.755-1.381-.742-.461.734-.605 2.085-.32 3.001.797 2.564-1.264 3.134-3.444.954-1.074-1.074-2.178-1.729-2.453-1.454-1.248 1.248-11.941.917-13.27-.411-1.196-1.197-1.397-1.124-1.397.507 0 1.048-.279 2.183-.619 2.524-.888.887-3.381-1.852-3.381-3.715 0-2.208-1.724-1.955-3.007.442-.895 1.672-1.429 1.824-3.155.901-1.142-.612-2.311-2.006-2.596-3.098-.341-1.303-.766-1.586-1.238-.823-.396.641-1.542-2.015-2.554-5.915-1.009-3.893-2.199-7.078-2.643-7.078-1.215 0-.969-7.55.339-10.422 1.828-4.01 2.771-2.015 1.201 2.541-.785 2.278-1.219 4.645-.966 5.261.254.616.497.427.54-.419.084-1.629 6.645-14.796 8.177-16.411.496-.522.884-1.423.861-2-.022-.577-1.363.497-2.979 2.387-1.616 1.891-3.17 3.206-3.453 2.923-.283-.283 1.103-2.404 3.08-4.713 8.396-9.81 21.959-12.707 33.628-7.182M342 44c0 .55.477 1 1.059 1s.781-.45.441-1-.816-1-1.059-1-.441.45-.441 1m66 1c0 .55.45 1 1 1s1-.45 1-1-.45-1-1-1-1 .45-1 1m-23 1.393c0 .216-.675.652-1.5.969-.825.316-1.5.139-1.5-.393 0-.533.675-.969 1.5-.969s1.5.177 1.5.393M104.662 66.25c-.277.688-.504.125-.504-1.25s.227-1.937.504-1.25c.278.688.278 1.813 0 2.5M233.158 70c0 1.375.227 1.938.504 1.25.278-.687.278-1.812 0-2.5-.277-.687-.504-.125-.504 1.25m140.921 3.583c.048 1.165.285 1.402.604.605.289-.722.253-1.585-.079-1.917-.332-.332-.568.258-.525 1.312m-.884 4.917c.02 1.65.244 2.204.498 1.231.254-.973.237-2.323-.037-3-.274-.677-.481.119-.461 1.769m-133.116 2.083c.048 1.165.285 1.402.604.605.289-.722.253-1.585-.079-1.917-.332-.332-.568.258-.525 1.312M331 104c-.901.582-1.025.975-.309.985.655.008 1.469-.435 1.809-.985.767-1.242.421-1.242-1.5 0m4.564.707c-.542 1.425-.428 1.54.56.56.684-.679.991-1.486.683-1.793-.308-.308-.867.247-1.243 1.233m-19.751.976c.721.289 1.584.253 1.916-.079.332-.332-.258-.568-1.312-.525-1.165.048-1.402.285-.604.604M404.5 106c-.34.55.057 1 .882 1s1.778-.45 2.118-1c.34-.55-.057-1-.882-1s-1.778.45-2.118 1m13.057 2.582c-1.066.78-1.516 1.411-.998 1.403 1.382-.023 3.961-1.799 3.41-2.349-.259-.26-1.345.166-2.412.946m-89.236 1.899c.776 2.368 14.454 2.144 16.874-.276.602-.602-2.388-.913-8.128-.848-5.677.065-8.955.486-8.746 1.124M232 112.059c0 .582.45.781 1 .441s1-.816 1-1.059-.45-.441-1-.441-1 .477-1 1.059m-50 1.441c.685.825 1.695 1.5 2.245 1.5.558 0 .449-.663-.245-1.5-.685-.825-1.695-1.5-2.245-1.5-.558 0-.449.663.245 1.5m69 10.309c0 .445.661 1.682 1.468 2.75 1.499 1.982 2.018.872.925-1.977-.627-1.634-2.393-2.205-2.393-.773" fill="#014" fill-rule="evenodd"/></svg>
