<svg width="420" height="226" xmlns="http://www.w3.org/2000/svg"><path d="M.032 8.75c.022 6.104.476 9.337 1.5 10.691 1.927 2.548 1.909 4.942-.032 4.197C.178 23.131 0 29.556 0 77.804v54.741l6.75-.59c4.311-.377 7.015-.205 7.485.477 1.301 1.892.82 6.61-.735 7.206-1.89.726-1.962 2.362-.105 2.362.897 0 1.531 1.428 1.777 4.003.301 3.16.009 4.122-1.386 4.565-.973.309-2.292.238-2.932-.158-.724-.447-.894-.283-.449.435.392.635 1.361 1.155 2.154 1.155.972 0 1.42 1.058 1.378 3.25-.062 3.159-.091 3.181-1.052.774-.807-2.022-1.159-2.205-1.921-1-.819 1.295-.937 1.292-.964-.024-.019-.949-.3-1.106-.765-.427C8.241 156.025 5 157.157 5 156.052c0-.487.562-1.13 1.25-1.429.687-.299-.055-.271-1.649.063-1.873.391-2.673.24-2.261-.427.351-.568-.019-1.577-.822-2.244-1.273-1.056-1.462 2.188-1.482 25.392l-.024 26.604 8.494-.653c6.297-.484 8.494-.343 8.494.545C17 205.792 10.549 208 5.032 208 .283 208 0 208.146 0 210.594c0 1.776.648 2.763 2.057 3.131 1.327.347 1.851 1.073 1.477 2.048-.445 1.16-.273 1.255.745.41 1.855-1.539 5.57-.362 9.982 3.164 2.785 2.225 3.603 3.506 3.15 4.933-.566 1.782-.211 1.884 4.739 1.361 2.942-.312 5.8-.54 6.35-.508.55.032 6.089.268 12.308.526l11.309.468-1.559-3.014c-.857-1.657-1.558-3.486-1.558-4.063 0-1.32 5.041-1.365 8.435-.075 2.694 1.025 3.557 4.504 1.315 5.305-3.909 1.396 3.264 1.721 32.743 1.484l32.798-.264-8.265-6c-4.545-3.3-11.486-8.475-15.424-11.5-3.938-3.025-8.722-6.354-10.631-7.398-7.07-3.865-9.468-7.313-11.09-15.948l-1.767-9.414c-1.246-6.636-2.114-6.207-2.114 1.046 0 6.86-1.453 11.714-3.506 11.714-.651 0-2.041-.967-3.089-2.148-3.436-3.873-22.811-18.109-26.426-19.416-1.108-.4-1.435-1.689-1.204-4.743.282-3.742.165-4.005-1.089-2.443-.774.963-1.974 1.75-2.669 1.75-1.015 0-1.014-.298.003-1.524.696-.838.976-1.813.623-2.167-.354-.353-.643-.097-.643.57 0 .852-1.08 1.009-3.645.528-2.844-.534-3.469-.4-2.845.609.507.821.403 1.048-.286.622-.597-.369-1.359-.229-1.693.311-.374.605-1.937.348-4.069-.668-2.422-1.155-3.462-2.322-3.462-3.883 0-1.227-.54-2.411-1.2-2.631-.847-.283-1.145-3.415-1.01-10.631.186-10.005 1.34-14.792 3.276-13.595.532.328.708 1.016.391 1.528-.316.512-.084.931.515.931.6 0 1.35-.675 1.666-1.5.695-1.811 3.363-2.01 3.36-.25-.003 1.496 17.901 1.203 19.452-.318 1.21-1.187 6.606-1.183 8.486.007 1.117.707 1.174 1.223.258 2.327-.647.78-.941 1.654-.653 1.941.827.828-5.303 3.058-6.452 2.348-.568-.351-2.265.168-3.772 1.153-1.507.986-2.393 1.23-1.969.542.955-1.549.439-1.566-2.801-.089-1.401.638-2.547 1.749-2.547 2.468 0 .832-.637 1.067-1.75.646-1.537-.582-1.516-.426.172 1.281 2.088 2.112 10.439 5.648 11.618 4.919.401-.248 2.783-.528 5.295-.623 3.7-.14 8.624-1.553 6.665-1.913l-2.466-.459c-1.081-.201-2.504.08-3.161.625-.752.625-1.414.638-1.785.037-.324-.525-1.602-.732-2.839-.461-1.771.388-1.934.272-.769-.545 1.341-.941 7.884-2.431 9.756-2.221.42.047.764.643.764 1.325 0 .682 1.35 1.489 3 1.792l3 .553-3.196.671c-2.651.558-6.294 4.237-5.135 5.186.182.149 5.506 1.862 11.831 3.806 6.325 1.944 12.983 4.139 14.795 4.879 2.241.915 3.521 1.011 4 .301 2.765-4.095 10.128-5.713 13.229-2.906 1.164 1.053 2.371 1.267 3.917.696 1.929-.714 2.031-.996.75-2.059-.816-.678-1.275-2.033-1.019-3.012.704-2.694-7.73-4.495-10.843-2.315-1.214.851-4.423 1.682-7.132 1.847-4.469.272-4.877.119-4.412-1.661.397-1.519-.232-2.231-2.791-3.156-2.033-.736-3.11-1.698-2.801-2.505.368-.959 1.417-.612 3.918 1.295 2.829 2.158 4.057 2.491 7.152 1.941 8.408-1.495 11.746-1.406 14.873.397 2.785 1.606 3.305 1.641 4.634.312 1.184-1.184 1.942-1.259 3.627-.357 2.876 1.539 9.056.333 9.255-1.806.084-.902.203-2.141.265-2.753.062-.613.708-1.831 1.434-2.707.727-.875 1.064-2.007.75-2.516-.798-1.291-5.535-2.079-6.184-1.029-.294.476.954.902 2.774.945 1.82.043 2.634.336 1.809.65s-1.831 1.066-2.235 1.671c-.524.785-.739.77-.75-.053-.009-.734-1.801-1.098-4.921-1-2.698.084-4.702-.176-4.452-.579.25-.403-1.374-1.524-3.608-2.492s-3.888-2.215-3.675-2.77c.417-1.087-5.528-1.43-6.359-.367-.275.352-1.08.014-1.789-.75-.744-.801-.85-1.389-.25-1.389.571 0 1.039-.635 1.039-1.412 0-.863 1.521-1.669 3.908-2.072 2.149-.364 4.737-1.275 5.75-2.025 1.765-1.307 1.758-1.349-.158-1.004-1.1.198-2.112.439-2.25.536-.704.498-4.982.153-6.601-.532-1.018-.43-2.143-.379-2.5.113-.918 1.267-3.432 1.664-2.664.421.974-1.577-1.083-1.214-2.449.431-.664.801-.944 1.884-.621 2.407.334.54-.304.717-1.48.41-1.463-.383-1.756-.852-1.001-1.607 1.743-1.743 1.226-2.419-1.456-1.907-2.149.411-2.334.715-1.25 2.054.823 1.017.86 1.324.103.87-.644-.386-1.852-.019-2.687.815-.939.94-1.754 1.134-2.139.51-.343-.555-.12-1.008.495-1.008s.864-.412.553-.915c-.311-.503 0-1.142.691-1.421.691-.278-.014-.542-1.565-.585-2.742-.077-6.035 2.045-5.14 3.31.245.345-.073.193-.705-.338-.86-.723-.827-1.354.131-2.509 1.785-2.15-.386-2.018-2.954.18-2.474 2.119-2.563 3.253-.261 3.357.963.043 1.213.297.556.565a1.334 1.334 0 00-.725 1.706c.273.712-.37 1.221-1.542 1.221-1.321 0-1.672-.338-1.025-.985 1.374-1.374 1.231-2.635-.264-2.336-.687.138-1.151-.273-1.029-.912.121-.64-1.132-1.634-2.784-2.21-1.795-.626-2.766-.661-2.412-.088.326.528 1.241.96 2.034.96 1.322 0 1.896 1.244 1.535 3.324-.079.454.43.533 1.131.176.701-.356.48.003-.492.799-.985.806-1.506 2.129-1.177 2.986.375.978-.075 1.701-1.233 1.981-1.002.243-.376.439 1.393.436 1.841-.002 2.957-.423 2.61-.983-.332-.538.021-.756.785-.484s2.289.04 3.389-.516c1.992-1.006 1.993-1.002.028 1.209-1.085 1.221-1.535 2.074-1 1.896.535-.178.972.126.972.676s-.225.929-.5.842c-2.976-.942-6.975-.94-7.323.003-.271.737-1.138.417-2.392-.882-1.546-1.602-1.703-2.283-.732-3.19.679-.634 1.511-.959 1.849-.721.338.237.161-.105-.394-.76-1.321-1.562-1.292-3.792.051-3.792.582 0 .738.52.346 1.155-.443.715-.275.883.44.44 1.667-1.03 1.421-3.595-.345-3.595-.825 0-1.5-.477-1.5-1.059s-.563-.721-1.25-.308c-.858.516-.823.224.114-.931.909-1.121 2.161-1.483 3.75-1.084 1.44.361 2.386.159 2.386-.51 0-.609.637-1.108 1.417-1.108.779 0 1.566-.425 1.75-.945.183-.519 4.107-1.206 8.719-1.525 4.612-.319 8.767-.815 9.233-1.103 1.197-.74 7.881.626 7.881 1.611 0 .448-.562 1.009-1.25 1.245-.687.237-.35.233.75-.007 6.417-1.403 7.015-1.443 5.5-.37-.825.585-1.027 1.07-.45 1.079.578.008 1.59-.525 2.25-1.185.933-.933 1.2-.92 1.2.059 0 .692.419 1 .931.684a1.092 1.092 0 011.501.347c.313.507 1.516.675 2.671.373 1.215-.318 2.517.038 3.086.844.74 1.047.867.853.511-.782-.36-1.654-.102-2.033 1.077-1.58 1.134.435 1.326.213.715-.825-.46-.781.131-.572 1.313.464 1.181 1.036 1.907 2.273 1.612 2.75-.294.476-.085.866.465.866 1.691 0 2.451-2.176 1.06-3.036-1.073-.663-1.051-1.135.122-2.58.79-.972.948-1.476.353-1.12-.596.356-1.084.055-1.084-.671 0-.763.737-1.126 1.749-.861 1.282.335 1.649 1.239 1.378 3.386-.204 1.611-.643 3.368-.974 3.905-.774 1.252.58 1.232 2.514-.038 1.317-.865 1.321-1.1.028-1.931-1.254-.806-1.205-1.049.328-1.637 1.116-.428 2.434-.055 3.472.982 1.471 1.472 1.491 1.793.172 2.664-.825.545-2.829 1.279-4.453 1.63-2.547.55-2.685.734-1 1.336 1.074.384 2.214.294 2.533-.199.804-1.244 4.092.155 3.628 1.543-.207.62-1.779 1.142-3.493 1.161-2.949.033-5.045.982-4.132 1.872 2.291 2.232 11.018.184 9.523-2.235-.327-.529.078-1.219.9-1.535 1.966-.754 1.911 1.246-.096 3.463-1.204 1.331-1.333 2.199-.53 3.579 1.017 1.75 1.06 1.751 1.09.013.016-.995.449-1.55.962-1.233.513.317 1.075-.669 1.25-2.191.194-1.691.844-2.656 1.671-2.483.744.157 2.232-.729 3.306-1.968 1.642-1.892 2.102-2.018 2.882-.784.812 1.283.945 1.279 1.062-.032.074-.825.083-1.83.021-2.232-.131-.857 4.695-2.264 6.876-2.004.876.104 1.004-.045.306-.358-.656-.294-.946-1.181-.643-1.971.392-1.021-.202-1.435-2.056-1.435-2.685 0-3.576 1.509-1.357 2.298.688.244.012.288-1.5.098-1.913-.241-2.75.103-2.75 1.129 0 .966-1.016 1.475-2.941 1.475-1.618 0-3.197.414-3.509.919-.658 1.064-5.743-1.242-7.557-3.428-1.67-2.011.785-2.889 6.33-2.264 2.755.311 4.659.018 5.461-.841.677-.725 2.015-1.038 2.973-.696 1.281.457 1.147.086-.507-1.401-1.238-1.113-2.25-2.745-2.25-3.626 0-.882-1.35-2.601-3-3.821-1.65-1.22-3-2.763-3-3.43 0-1.353-5.746-7.353-10.551-11.019-3.579-2.729-6.962-3.105-7.82-.868-.725 1.888-5.182 1.043-8.129-1.541-1.1-.965-3.013-2.061-4.25-2.436-1.34-.407-2.25-1.479-2.25-2.651 0-1.082-.786-3.167-1.747-4.634-1.679-2.562-1.675-2.639.093-1.961 1.012.389 3.035.971 4.497 1.295 6.411 1.42 16.665 5.91 19.818 8.678 3.086 2.71 3.673 2.884 5.825 1.732 4.172-2.232 10.934-.763 15.509 3.369 3.508 3.17 4.652 3.624 9.123 3.624 4.565 0 5.455-.374 8.318-3.5 1.763-1.925 3.849-3.507 4.635-3.515 2.805-.03 4.174-1.601 3.138-3.601-2.698-5.21-3.426-7.376-2.921-8.691.583-1.521 8.997-3.253 10.696-2.203 1.395.862 12.016 1.388 12.016.595 0-1.15 5.967-4.224 6.981-3.596.538.332 2.803.057 5.033-.611 3.442-1.032 4.584-.963 7.555.453 1.924.918 4.679 1.669 6.121 1.669 2.923 0 9.31-4.387 9.31-6.396 0-3.507 6.218-5.935 11.479-4.482 4.341 1.198 7 4.572 8.985 11.402.865 2.976 2.501 6.039 3.659 6.849 1.152.807 1.794 1.952 1.427 2.545-.366.593.035 2.079.892 3.303 1.701 2.428 2.087 5.779.665 5.779-.491 0-1.152.675-1.469 1.5-.452 1.179.279 1.5 3.418 1.5 3.341 0 4.149-.409 4.945-2.503 1.782-4.687 4.912-10.99 6.952-13.997 1.118-1.65 2.047-4.125 2.063-5.5.028-2.37.113-2.331 1.625.736.877 1.78 2.012 2.979 2.521 2.664.509-.315 1.582-.027 2.384.638.866.719 2.71.961 4.538.595 2.559-.512 5.937.349 7.823 1.993.223.195-.677 1.395-2 2.668-1.324 1.272-3.69 3.799-5.258 5.615-2.331 2.698-3.363 3.198-5.654 2.74-1.752-.35-4.244.16-6.649 1.361-6.824 3.409-6.999 3.621-4.677 5.671 2.035 1.795 6.916 9.319 6.045 9.319-.246 0-1.667-1.841-3.156-4.092-1.489-2.25-2.933-3.867-3.208-3.592-.922.923 4.896 8.684 6.533 8.714 1.407.027 1.389.163-.133 1.05-.962.561-1.75 1.672-1.75 2.47 0 1.78-2.128 1.888-3.947.2-1.077-1-1.205-1-.641 0 .475.842-.049 1.255-1.603 1.265-1.858.013-2.016.205-.809.985 1.882 1.216 9.312 1.314 8.57.113-.301-.487.132-1.451.964-2.141 1.232-1.023 1.413-.998.979.137-.371.966.309 1.429 2.227 1.514 1.518.068 2.198-.082 1.51-.333-2.313-.845-1.276-2.018 1.342-1.517 1.893.362 2.23.725 1.25 1.346-1.085.688-1.055.867.158.936.991.056.821.358-.5.888-1.442.579-.396.908 3.753 1.18l5.753.377.598-3.196c.329-1.759 1.34-3.393 2.247-3.634 1.36-.361 1.322-.458-.215-.554-1.656-.103-1.778-.643-1.092-4.866.424-2.612.796-5.537.827-6.5.032-.963.438-1.75.902-1.75.465 0 .567-.45.227-1-.34-.55-.093-1 .548-1s.912.661.603 1.468c-.31.807-.064 1.777.547 2.154.673.416.83.232.397-.467-.937-1.517-.256-1.458 4.076.352l3.607 1.507-.586 5.743c-.345 3.386-1.183 6.126-2.041 6.677-1.271.814-1.263 1.229.061 3.25 1.399 2.134 1.372 2.323-.347 2.399-1.026.046-2.99.284-4.365.528-6.093 1.083-13.748.444-68.777-5.737-5.652-.635-10.532-.898-10.845-.586-.312.313-.273 1.913.088 3.555.597 2.719 1.119 3.049 5.845 3.689 2.854.386 5.864.825 6.689.976 2.399.437 16.066 2.384 21.227 3.022 6.826.845 6.85 2.383.029 1.842-10.99-.872-21.636-2.367-22.194-3.118-.309-.414-2.137-.807-4.062-.872-1.925-.065-6.381-.648-9.901-1.296-7.447-1.371-11.166-.809-12.886 1.945-.677 1.083-.813 1.969-.303 1.969.509 0 1.751.309 2.758.687 1.613.605 1.668.485.46-1-1.627-2-.992-2.066 5.83-.603 5.997 1.287 5.855 2.89-.208 2.341l-4.25-.386 3.5 1.06c1.925.583 5.075 1.236 7 1.451 2.767.309 2.978.231 1.01-.372-1.369-.42-2.044-1.024-1.5-1.343 1.205-.706 12.314-.281 18.49.708 2.475.396 8.775.773 14 .839 7.492.093 9.44-.167 9.217-1.232-.229-1.09 1.5-1.232 9-.737 5.106.337 10.633.841 12.283 1.122 4.067.691 9.528 1.316 12.215 1.398 2.522.076 3.73 1.952 4.693 7.288.621 3.442.47 3.772-2.026 4.398-2.467.619-2.548.786-.952 1.953.96.703 4.969 1.844 8.908 2.537 3.939.693 6.369 1.436 5.4 1.651-.969.215-1.525.776-1.234 1.247.291.47.002 1.18-.642 1.578-.669.414-.905.293-.551-.28.789-1.275-3.752-3.769-5.216-2.864-.602.372-1.095.2-1.095-.382 0-.582-1.068-1.059-2.372-1.059-1.305 0-5.819-1.125-10.031-2.5-4.212-1.375-9.332-2.506-11.378-2.513-2.045-.007-6.546-.899-10.001-1.982-3.456-1.084-9.756-2.238-14-2.566-4.245-.328-10.005-.931-12.8-1.34-2.794-.409-5.944-.405-7 .009-1.853.726-1.85.754.082.837 1.607.069 1.716.265.552 1.002-1.142.722-.931 1.014 1 1.38 1.346.255 5.373 1.026 8.948 1.712 3.575.686 7.4 1.185 8.5 1.109 2.776-.194 10.5 2.791 10.5 4.057 0 .698.411.711 1.25.041.712-.569 2.111-.652 3.25-.193 1.1.444 1.411.838.691.877-2.651.142-.06 1.916 3.736 2.558 2.254.381 4.185 1.36 4.548 2.309.548 1.427.769 1.451 1.655.175.773-1.114 1.146-1.168 1.529-.222.279.687.947 1.25 1.483 1.25.537 0 .717-.419.4-.932-.844-1.366 21.562-.226 23.261 1.183.767.637 2.589 1.234 4.046 1.325 7.523.471 8.551.622 7.401 1.086-.688.278-1.25.944-1.25 1.48 0 .537.5.667 1.112.289.611-.378 1.399-.23 1.75.329.909 1.447 15.302 3.209 14.804 1.812-.21-.59-1.12-1.01-2.024-.933-.903.076-1.642-.231-1.642-.683 0-.452 1.371-.783 3.046-.736 1.676.048 3.48-.428 4.009-1.058.529-.63.674-.94.322-.689-.352.251-1.529-.019-2.616-.601-1.401-.75-2.294-.739-3.068.035-1.49 1.49-2.74 1.379-2.137-.191.337-.881-.379-1.22-2.282-1.081-3.934.287-4.04.385-1.524 1.396 1.238.498 2.243 1.482 2.235 2.187-.011.854-.261.924-.75.209-.404-.59-1.551-1.374-2.548-1.743-2.069-.764-1.515-2.17 1.489-3.778 1.62-.867 1.896-.832 1.281.164-.547.884-.309 1.087.781.669.862-.331 1.85-.318 2.196.029.347.346 4.666.702 9.598.79 7.91.142 8.968-.044 8.968-1.576 0-2.137 2.536-4.387 3.956-3.509.574.355 1.044 1.293 1.044 2.086 0 1.296 3.005 1.986 6.675 1.533.646-.08 1.46.317 1.809.881.349.565 1.132 1.027 1.742 1.027.609 0 .829-.279.488-.619-.34-.341.064-1.302.898-2.136 1.132-1.132 1.805-1.228 2.652-.381.848.848.766 1.136-.323 1.136-.803 0-1.999.863-2.657 1.918-.826 1.322-1.881 1.739-3.397 1.342-1.39-.363-1.963-.191-1.556.467.355.573 2.675 1.347 5.157 1.719 2.481.372 4.512.764 4.512.872 0 .107.411 1.627.913 3.377.883 3.08.837 3.148-1.421 2.119-1.372-.625-2.114-1.634-1.802-2.45.366-.951.028-1.193-1.073-.771-.883.339-1.357 1.019-1.052 1.512.304.492.126.895-.395.895s-.885.739-.809 1.642c.077.904-.495 1.865-1.27 2.137-.948.332-1.216-.012-.817-1.051.409-1.065-.176-1.738-1.887-2.167-1.363-.342-2.908-.357-3.433-.033-.525.325-.954.087-.954-.528s-.457-.835-1.016-.49c-.559.346-.758 1.047-.441 1.559.316.512-.1.931-.925.931-.825 0-1.778-.45-2.118-1-.34-.55.121-1 1.024-1 2.311 0 1.225-2.49-1.11-2.547-1.147-.028-1.78-.629-1.581-1.5.184-.799.012-1.131-.381-.738s-1.61.236-2.704-.35c-1.207-.646-1.747-.673-1.374-.07.338.548-.1 1.269-.972 1.604-1.054.405-1.762-.06-2.108-1.384-.287-1.096-.92-1.746-1.408-1.445-.487.302-.886.05-.886-.558 0-.615-1.063-.309-2.396.691-2.207 1.655-2.252 1.852-.57 2.489 1.005.381 3.975.945 6.6 1.254 5.467.643 8.418 2.554 3.944 2.554-2.316 0-2.613.253-1.653 1.41.952 1.147.612 1.533-1.826 2.068-2.259.496-3.755.097-6.086-1.626-2.737-2.024-3.34-2.129-5.28-.918-1.204.753-5.349 1.503-9.211 1.669-5.367.23-7.098.666-7.345 1.849-.2.955-1.404 1.548-3.143 1.548-1.672 0-3.072.657-3.439 1.613-.499 1.3-.905 1.375-2.096.386-1.635-1.356-1-3.426.725-2.361.62.384.8.209.418-.408-.366-.593.127-1.285 1.096-1.538.975-.255.386-.512-1.321-.576-1.696-.064-3.421-.454-3.833-.866-.413-.412-2.85-.818-5.417-.9-3.747-.121-5.061.305-6.667 2.164-2.594 3.001-6.5 4.235-6.5 2.053 0-.884.845-1.567 1.941-1.567 1.068 0 2.266-.526 2.664-1.17.495-.801.164-.955-1.052-.489-1.32.507-1.627.294-1.196-.83.735-1.913-.42-1.93-2.916-.043-2.519 1.906-3.441 1.897-3.441-.032 0-1.162-.835-1.483-3.25-1.25-1.788.173-3.587.764-4 1.314-.47.627-1.108.442-1.711-.495-.828-1.29-1.15-1.235-2.348.403-1.531 2.094-4.171 1.285-3.291-1.009.296-.77.302-1.399.014-1.399-1.561 0-10.057 4.497-11.043 5.845-.853 1.167-1.509 1.299-2.513.505-.747-.591-2.546-1.357-3.998-1.703-2.237-.534-4.573-3.268-3.612-4.228.162-.163 2.424.406 5.027 1.262 3.794 1.25 5.028 1.312 6.228.316 2.632-2.184 1.628-2.997-3.703-2.997-5.028 0-5.723-1.223-1.3-2.287 1.1-.265.16-.533-2.089-.597-3.334-.095-4.301-.578-5.229-2.616-1.314-2.883-2.413-3.132-4.22-.954-.705.85-1.816 1.34-2.469 1.09-.652-.251-2.493.633-4.09 1.963l-2.903 2.418 5.752-.359c6.982-.435 9.066 1.132 4.831 3.634-1.562.923-3.614 3.306-4.558 5.296l-1.717 3.618-5.654-.699c-3.11-.385-6.132-1.092-6.717-1.571-1.429-1.17-8.441.033-8.422 1.445.009.615.44 1.79.959 2.611.751 1.188 1.196 1.238 2.184.25 1.87-1.87 4.842-1.527 4.842.558 0 .99.439 2.239.975 2.775 1.137 1.137-2.443 5.68-5.318 6.748-1.322.492-1.983.145-2.342-1.226-.537-2.055-3.027-3.046-7.815-3.11l-3-.041 3.5-2.908 3.5-2.908-2.468-.918c-1.85-.688-3.227-.455-5.5.932-1.668 1.016-4.495 1.85-6.282 1.852-2.29.003-3.25.469-3.25 1.579 0 1.096.837 1.521 2.75 1.394 1.512-.099 3.324-.133 4.025-.075 1.261.105 3.449 4.317 3.631 6.989.119 1.751 10.122 4.425 13.844 3.701 2.257-.438 2.75-.178 2.75 1.453 0 1.77.453 1.914 4.153 1.323 2.636-.422 3.931-.305 3.544.321-.676 1.094.522 1.311 7.688 1.394 4.783.055 8.177 1.538 11.848 5.175 1.486 1.472 3.68 1.75 13.812 1.75 11.456 0 12.166-.12 14.5-2.455 2.636-2.635 3.047-4.061 1.455-5.045-2.132-1.318-.915-3.382 2.173-3.687 4.09-.404 5.028-2.771 1.16-2.929-2.012-.082-2.274-.259-.904-.608 1.061-.27 2.597-1.159 3.412-1.975 1.27-1.269 1.28-1.611.071-2.376-.777-.492-2.312-.917-3.412-.945-1.1-.028-3.125-.694-4.5-1.48-3.69-2.11-7-1.912-7 .418 0 1.055-.261 2.599-.58 3.431-.433 1.127.248 1.594 2.673 1.832 3.566.35 5.361 2.819 2.049 2.819-1.113 0-2.29-.43-2.615-.956-.325-.526-1.139-.781-1.809-.566-1.893.607-10.179 1.385-22.218 2.085-6.05.352-13.223.991-15.941 1.419-3.536.558-5.299.421-6.202-.482-1.586-1.586-.719-2.5 2.372-2.5 1.317 0 4.621-.728 7.341-1.618 4.034-1.319 5.482-1.396 7.848-.416 2.119.878 3.446.909 4.926.118 1.228-.658 2.936-.755 4.341-.246 3.415 1.236 10.815.249 10.815-1.443 0-.767-.9-1.395-2-1.395s-2-.45-2-1c0-1.413 4.75-1.249 5.227.18.583 1.75 3.875.147 4.485-2.185.287-1.097 1.14-1.995 1.896-1.995s1.937-.9 2.624-2c1.476-2.363 4.768-2.673 4.768-.449 0 .853 1.534 2.192 3.408 2.975 1.875.783 3.616 1.998 3.87 2.699.37 1.025.877 1.029 2.578.025 3.211-1.896 4.408-1.611 3.144.75-.809 1.512-.757 2.035.215 2.142.707.079 2.86.367 4.785.641 1.925.273 5.863.547 8.75.607 5.492.115 6.027.433 4.05 2.41-.933.933-.587 1.2 1.559 1.2 3.682 0 2.438 1.76-1.807 2.556-4.17.782-8.515-.332-6.434-1.65 1.394-.883-1.868-1.344-6.772-.958-1.185.094-2.45-.306-2.81-.889-1.245-2.016-2.769-1.058-2.291 1.441.263 1.375.064 2.5-.443 2.5-.506 0-.642.45-.302 1s2.141 1 4.002 1c2.336 0 3.854.67 4.9 2.163 1.719 2.455 1.324 3.566-1.754 4.927-1.542.681-.284.838 4.453.557 6.793-.404 9.899.465 9.899 2.771 0 2.348 7.822 2.681 11.88.506 1.975-1.058 4.063-1.924 4.64-1.924.945 0 4.48-5.015 4.48-6.357 0-1.037-7.38-2.586-9.63-2.021-1.475.37-3-.131-4.418-1.452-3.011-2.805-1.639-4.526 2.913-3.651 1.999.384 4.233.794 4.965.91.731.117 1.707.822 2.168 1.567.541.876 3.079 1.418 7.17 1.53 8.923.246 11.901 1.225 15.332 5.041 3.38 3.759 4.451 4.089 9.723 2.994 4.536-.942 12.531.794 18.769 4.076 2.471 1.3 5.846 2.566 7.5 2.814 1.655.248 6.735.98 11.291 1.627 6.292.894 8.524 1.627 9.285 3.049 1.348 2.519 3.128 2.358 5.84-.529l2.257-2.403-2.999-.659c-4.822-1.059-4.733-3.265.153-3.781 4.93-.52 6.317.313 6.878 4.133.341 2.327.097 2.74-1.391 2.351-1.324-.346-1.806.096-1.806 1.656 0 1.922.387 2.067 3.984 1.492 2.855-.457 4.688-.177 6.465.988 1.364.894 3.396 1.625 4.516 1.625 1.934 0 2.035-.597 2.035-12.031 0-10.586-.21-12.097-1.75-12.573-.962-.298-2.531-.959-3.486-1.469-.955-.51-3.655-.947-6-.971-2.345-.024-6.064-.728-8.264-1.564-2.2-.837-6.075-2.11-8.612-2.829-2.537-.72-5.462-1.803-6.5-2.406-1.623-.942-1.378-1.1 1.745-1.127 2.711-.022 3.76-.511 4.13-1.927.445-1.703-.231-1.941-6.634-2.337-3.921-.243-8.254-.984-9.629-1.646-4.967-2.395-6.976-3.811-6.327-4.459.599-.6.077-.741-3.923-1.061-2.831-.226-4.038-6.6-1.25-6.6.825 0 1.5-.637 1.5-1.417 0-.779.562-1.643 1.25-1.921 1.107-.447-2.572-1.085-4.5-.78-.413.065-.75-.332-.75-.882 0-1.457 2.079-1.216 5.5.638 1.65.894 6.812 2.428 11.471 3.408s8.629 2.253 8.821 2.829c.193.58 1.58.801 3.112.494 1.52-.304 6.55.132 11.18.967 4.629.836 10.779 1.82 13.666 2.186l5.25.666v-43.249c0-41.107-.087-43.173-1.75-41.715-2.113 1.853-7.744 4.776-9.2 4.776-1.491 0-1.314-9.538.2-10.784.688-.566 3.387-1.347 6-1.736l4.75-.707V0H317.075l.607 6.5c.334 3.575.286 6.5-.107 6.5-.393 0-2.654-1.334-5.025-2.965-4.395-3.024-5.55-4.713-5.55-8.117C307 .078 305.972 0 281.566 0h-25.433l-.417 2.75-.416 2.75-.15-2.75L255 0H142C79.85 0 29 .358 29 .796c0 .438 2.469 3.701 5.486 7.25 7.62 8.965 7.492 9.652-.92 4.904-6.785-3.829-7.981-5.281-7.861-9.538L25.802 0H0l.032 8.75m191.722-5.746c8.683 1.128 12.502 3.571 14.143 9.047.743 2.48 2.211 4.491 4.089 5.6 2.94 1.736 5.673 6.474 4.671 8.096-.295.477-3.826 2.839-7.847 5.25-5.808 3.482-8.164 4.349-11.463 4.219-2.851-.113-4.33.298-4.719 1.31-.311.811-1.254 1.474-2.097 1.474-.842 0-1.531.42-1.531.933 0 .513-1.371.894-3.046.847-1.676-.048-3.566.432-4.2 1.066-.635.635-2.015 1.154-3.068 1.154-2.234 0-9.686-3.988-9.686-5.184 0-.449-.652-.816-1.449-.816-.877 0-2.124-2.143-3.161-5.43-1.573-4.991-1.582-5.628-.114-7.868 1.351-2.063 2.415-2.446 6.91-2.492 7.21-.074 10.602-1.518 11.444-4.872.436-1.736.263-2.874-.472-3.119-1.548-.516-1.459-2.562.291-6.751 1.61-3.854 1.235-3.772 11.305-2.464M346.5 15c-.34.55-1.154.993-1.809.985-.716-.01-.592-.403.309-.985 1.921-1.242 2.267-1.242 1.5 0M85 16.401c0 .77 2.023 2.233 4.496 3.25l4.497 1.849.003 5.816c.005 7.323-1.104 9.577-4.401 8.947-4.073-.779-5.877-3.806-7.174-12.042-.669-4.247-1.011-8.058-.76-8.471.795-1.306 3.339-.81 3.339.651m258-.518c0 .486-1.012 1.139-2.25 1.451-2.173.547-2.184.517-.309-.884 2.264-1.691 2.559-1.757 2.559-.567m-82.317 26.305c-.319.797-.556.56-.604-.605-.043-1.054.193-1.644.525-1.312.332.332.368 1.195.079 1.917m114.635-.801c.379.987-.047 1.235-1.477.861-1.538-.402-1.697-.724-.676-1.371 1.692-1.072 1.531-1.11 2.153.51M222 43.558c0 2.755-2.334 2.634-6.971-.362-.259-.168.107-.662.815-1.099 1.836-1.135 6.156-.11 6.156 1.461m39.662 7.692c-.277.688-.504.125-.504-1.25s.227-1.937.504-1.25c.278.688.278 1.813 0 2.5m1.021 3.938c-.319.797-.556.56-.604-.605-.043-1.054.193-1.644.525-1.312.332.332.368 1.195.079 1.917m97.864 4.887c.37.6-.698.381-2.374-.485-1.675-.867-3.349-2.066-3.72-2.665-.37-.6.698-.381 2.374.485 1.675.867 3.349 2.066 3.72 2.665m-97.829 4.661c-.23 1.52-.424.514-.432-2.236-.007-2.75.181-3.994.418-2.764.237 1.23.243 3.48.014 5M164 64.059c0 1.132-.43 1.793-.956 1.468-.526-.325-.703-1.252-.393-2.059.793-2.067 1.349-1.824 1.349.591m-34 1.059c0 .55-.45.722-1 .382-.55-.34-1-1.068-1-1.618s.45-.722 1-.382c.55.34 1 1.068 1 1.618m4.813 16.632c-.354 1.86-4.813 3.111-4.813 1.351 0-.571.675-.779 1.5-.463.95.365 1.5-.013 1.5-1.031 0-.884.483-1.607 1.073-1.607.591 0 .924.787.74 1.75m156.252 1.342c2.157 3.029 2.16 3.065.114 1.788-1.148-.717-1.887-1.505-1.642-1.75.245-.245-.056-1.05-.668-1.788-.613-.738-.864-1.342-.56-1.342.305 0 1.546 1.391 2.756 3.092M365 84.5c0 .825-.675 1.5-1.5 1.5-2.602 0-1.759-1.971 1.25-2.921.137-.043.25.596.25 1.421M270.5 89c-.34.55-.168 1 .382 1s1.278-.45 1.618-1c.34-.55.168-1-.382-1s-1.278.45-1.618 1m22.865 2.723c-2.299 1.681-3.365 1.614-3.365-.212 0-.985.864-1.417 2.556-1.277 2.33.193 2.401.324.809 1.489m6.258 5.765c1.307.857 2.377 1.715 2.377 1.906 0 .486-8.926-1.23-10.067-1.935-.513-.318-.933-1.194-.933-1.948 0-1.636 4.783-.539 8.623 1.977m69.328-.238c1.844 5.228 2.575 15.75 1.094 15.75-2.521 0-8.045-6.696-8.045-9.751 0-8.308 4.704-12.368 6.951-5.999M85 98c0 1.656-.646 1.989-3.75 1.937-3.254-.055-3.453-.183-1.5-.968C80.987 98.471 82 97.6 82 97.032c0-.567.675-1.032 1.5-1.032.833 0 1.5.889 1.5 2m-43.75 1.74c-3.437.196-9.062.196-12.5 0-3.437-.195-.625-.355 6.25-.355s9.688.16 6.25.355m297.548 8.089c.176 3.65-.112 6.171-.703 6.171-.551 0-1.897 2.025-2.992 4.5s-2.654 4.5-3.465 4.5c-.811 0-2.299.267-3.306.594-1.055.343-1.408.237-.832-.25.55-.464 1.154-3.544 1.343-6.844.341-5.956 2.714-11.579 6.02-14.263 2.665-2.164 3.626-.798 3.935 5.592m-69.136-1.579c-.277.688-.504.125-.504-1.25s.227-1.937.504-1.25c.278.688.278 1.813 0 2.5m29.43-1.677c.742-.746-.261 9.911-1.008 10.701-.402.425-1.598-.215-2.658-1.422-1.059-1.208-1.39-1.883-.735-1.501.866.504 1.036-.256.626-2.785-.737-4.541.215-7.199 2.037-5.687.731.607 1.514.919 1.738.694m13.876 2.677c-.029 3-.139 3.108-1.431 1.403-.77-1.016-1.157-2.479-.861-3.25.977-2.546 2.325-1.46 2.292 1.847M137 111.469c0 .892.587 1.243 1.494.895.822-.316 1.246-.976.941-1.469-.872-1.412-2.435-1.044-2.435.574m31.25 5.491c-1.238 1.023-2.25 2.351-2.25 2.95 0 .6-.525 1.09-1.167 1.09-.641 0-.912.255-.601.566.763.763 8.768-1.44 8.768-2.413 0-.424-.562-1.51-1.25-2.413-1.152-1.512-1.427-1.495-3.5.22M95 118c-1.958 1.266-3.282 1.266-2.5 0 .34-.55 1.379-.993 2.309-.985 1.457.014 1.484.15.191.985m17.477.037c-.372.603-.933.84-1.246.527-.313-.312-1.409.192-2.437 1.122-1.95 1.766-6.111 2.635-5.147 1.076.305-.493-.479-1.167-1.743-1.497-1.871-.49-1.989-.709-.634-1.183 3.302-1.156 11.915-1.191 11.207-.045M185.5 119c.34.55 1.829.968 3.309.93 2.403-.063 2.477-.163.691-.93-2.778-1.194-4.738-1.194-4 0m-61 1c.34.55 1.068 1 1.618 1s.722-.45.382-1c-.34-.55-1.068-1-1.618-1s-.722.45-.382 1m29.711 1.601c-.71.769-.849 1.399-.309 1.399 1.038 0 2.541-1.902 1.948-2.466-.192-.183-.93.297-1.639 1.067m4.602-.918c.721.289 1.584.253 1.916-.079.332-.332-.258-.568-1.312-.525-1.165.048-1.402.285-.604.604M76.638 122.5c.317.825 1.033 1.5 1.591 1.5.586 0 .489-.635-.229-1.5-.685-.825-1.401-1.5-1.591-1.5-.19 0-.087.675.229 1.5m52.175-.817c.721.289 1.584.253 1.916-.079.332-.332-.258-.568-1.312-.525-1.165.048-1.402.285-.604.604m193.754 1.461c-2.163.495-5.021.538-6.35.095-1.767-.589-.708-.832 3.932-.901 5.916-.089 6.082-.034 2.418.806m41.433.734c0 .482-.675 1.437-1.5 2.122-1.217 1.01-1.5.97-1.5-.211 0-.801.3-1.756.667-2.122.949-.95 2.333-.825 2.333.211m-198.306 1.761c-1.031 1.031.268 2.361 2.306 2.361 1.035 0 2.201-.516 2.59-1.146.501-.81-.092-.945-2.025-.46-1.789.449-2.511.327-2.09-.354.711-1.15.22-1.402-.781-.401m-61.105 2.217c-.291.47.583.643 1.941.383 1.359-.26 2.47-.645 2.47-.856 0-.773-3.899-.356-4.411.473M120.5 128c-.34.55.11 1 1 1s1.34-.45 1-1c-.34-.55-.79-1-1-1-.21 0-.66.45-1 1m13.962.939c.319.516-.217 1.402-1.191 1.969-1.595.929-1.548 1.034.479 1.062 1.238.016 2.251.368 2.252.78.001.412 1.689.835 3.75.94 2.89.146 3.29-.01 1.748-.68-1.787-.777-1.807-.877-.191-.94.995-.038 1.531-.52 1.191-1.07-.34-.55-.115-1 .5-1s.899-.354.632-.786c-.594-.961-4.786-.855-6.432.163-.66.407-1.2.264-1.2-.318 0-.582-.477-1.059-1.059-1.059s-.798.422-.479.939M82.5 130c-.34.55-.115 1 .5 1s.859.419.543.931c-.317.512-.118 1.213.441 1.559.559.345 1.016.154 1.016-.425s1.013-.864 2.25-.633c1.237.231 2.798.453 3.469.494 1.719.105.381 3.074-1.385 3.074-.799 0-1.174-.45-.834-1 .767-1.241-1.596-1.294-4.721-.106-1.869.71-2.365.557-2.42-.75-.039-.904-.408-2.431-.821-3.394-.545-1.267-.292-1.75.914-1.75.916 0 1.388.45 1.048 1m13.415.315c.452.452 2.568.669 4.703.482l3.882-.339-4.704-.483c-2.586-.265-4.333-.112-3.881.34m78.085-.323c.825.53 2.326.705 3.336.391 1.612-.503 1.693-.307.669 1.608-1.63 3.046-.562 3.609 2.714 1.429 2.289-1.524 2.472-1.914 1.031-2.209-.963-.197-1.75-.775-1.75-1.284 0-.51-1.687-.92-3.75-.912-2.777.012-3.361.265-2.25.977m-21.921.699c-.114 1.721 1.656 2.548 2.506 1.171.432-.698.292-.904-.345-.51-.588.363-1.297.095-1.576-.596-.362-.899-.529-.917-.585-.065M163 131.5c0 .825.661 1.5 1.469 1.5.894 0 1.243-.586.893-1.5-.317-.825-.978-1.5-1.469-1.5-.491 0-.893.675-.893 1.5m4-.607c0 1.25 2.823 2.203 3.462 1.168.29-.468-.183-1.124-1.05-1.456-2.096-.805-2.412-.767-2.412.288m167.668 1.161c.189.795.626 2.972.972 4.838.599 3.233.51 3.363-1.893 2.759-2.369-.594-2.566-.343-3.233 4.108-1.072 7.156-4.535 8.519-6.952 2.736-.847-2.027-2.96-4.387-5.013-5.599-2.087-1.231-3.549-2.877-3.549-3.995 0-1.045-.468-1.901-1.039-1.901-.651 0-.602-.469.129-1.252.805-.861 3.621-1.14 9.031-.894 6.59.299 7.963.091 8.493-1.291.733-1.91 2.554-1.617 3.054.491m-309.501 1.648c.623.75 1.549 1.226 2.058 1.056 1.488-.496.434-2.154-1.458-2.294-1.354-.099-1.485.171-.6 1.238m51.786-.258c.982 1.183.824 1.415-.877 1.287-2.117-.16-2.603-.871-1.409-2.064.889-.89.909-.883 2.286.777m35.267.205c.86.86 2.752 1.366 4.395 1.175 2.652-.308 2.53-.43-1.51-1.51-3.919-1.048-4.231-1.011-2.885.335m100.255.311c.354.572 1.816 1.04 3.251 1.04 3.134 0 2.772-.479-1.06-1.399-1.858-.447-2.612-.323-2.191.359m161.51.29c-.009.688-.396 1.85-.861 2.584-.675 1.064-.975.997-1.485-.332-.993-2.587-.768-3.502.861-3.502.825 0 1.493.563 1.485 1.25M72.54 135.935c-.318.515.893 1.086 2.691 1.27l3.269.335-3.554.506c-2.898.413-3.579.179-3.688-1.27-.073-.977.315-1.776.863-1.776s.737.421.419.935m29.58.709c1.218 1.468 1.096 1.576-1.128 1.009-1.371-.349-1.927-.375-1.236-.058.691.317.955 1.064.586 1.66-.412.667-.091.863.835.507 1.704-.653 4.612.782 3.611 1.783-.36.36-2.278.118-4.262-.536-1.985-.655-4.251-.945-5.035-.644-.785.301-1.697.11-2.028-.425-.331-.535-.989-.733-1.463-.44-.474.293-1.136.088-1.472-.454-.738-1.195 3.864-2.493 5.97-1.685.916.351 1.502.003 1.502-.892 0-1.969 2.426-1.866 4.12.175m27.88-.626c-1.19.784-1.041.924.724.677 1.224-.17 2.536-.622 2.917-1.003 1.061-1.061-1.942-.792-3.641.326m9.5-.018c.34.55.816 1 1.059 1s.441-.45.441-1-.477-1-1.059-1-.781.45-.441 1m25.5-.112c0 .531-1.463.785-3.25.564-2.347-.291-2.833-.136-1.75.557.998.639 1.082.965.25.976-1.951.024-2.774-.412-2.475-1.309.151-.454-.194-.535-.767-.181-.572.354-.792 1.175-.487 1.824.304.65.004.437-.667-.472-1.1-1.489-1.449-1.503-3.529-.14-1.282.84-2.004 2.019-1.624 2.652.414.693.07.645-.876-.121-1.262-1.022-1.774-1.004-2.684.092-.618.745-.804 1.674-.413 2.065.391.391-.1.399-1.092.019-1.233-.473-1.435-.92-.639-1.412 1.116-.69-4.421-2.491-6.405-2.083-.5.103-1.231-.335-1.625-.973-.518-.838-.907-.852-1.401-.053-.376.609-.152 1.107.497 1.107.906 0 .905.333-.005 1.43-.951 1.146-.763 1.657.942 2.57 1.705.913 1.893 1.424.942 2.57-1.469 1.77-5.274 1.916-4.682.18.234-.687 1.509-1.13 2.833-.982 2.232.248 2.192.147-.558-1.395-2.701-1.514-3.208-1.524-5.677-.106-2.224 1.276-2.805 1.313-3.23.207-.284-.742.245-1.55 1.177-1.795.932-.246.01-.499-2.049-.563-3.711-.115-3.74-.086-3.298 3.368.303 2.367.061 3.409-.756 3.25-.661-.129-1.095.312-.964.98.148.756-.418.979-1.5.591-1.018-.365-1.392-.247-.902.286.899.979 3.975 1.392 12.728 1.708 5.19.188 5.534.352 5.132 2.457-.587 3.068 1.457 5.244 4.926 5.244 3.066 0 3.754-1.664 1.628-3.936-1.028-1.099-.806-1.228 1.25-.728 3.086.752 7.832-1.232 8.579-3.585.532-1.677 2.548-2.553 2.303-1.001-.355 2.246.545 2.732 4.727 2.557 5.341-.223 6.214-.779 4.784-3.045-1.504-2.386-3.068-2.614-3.613-.527-.263 1.004-1.491 1.893-2.746 1.987-2.096.158-2.134.072-.5-1.124 2.495-1.824 1.019-3.964-1.722-2.497-1.589.85-2.265.793-2.924-.248-1.366-2.156-1.049-4.573.531-4.047.506.169.382-.341-.275-1.133-.949-1.143-.862-1.567.421-2.059.888-.341 2.038-.36 2.553-.041.516.319 2.318.754 4.003.968 2.336.295 2.936.049 2.52-1.034-.431-1.122-.048-1.232 1.822-.521 2.803 1.066 4.065-.769 1.912-2.781-.756-.706-1.375-.849-1.375-.317m-109.655 3.177c-1.015.362-2.497.413-3.294.113-1.005-.378-1.08-.668-.244-.947.663-.221.949-.817.636-1.324-.314-.507.626-.377 2.088.289 2.351 1.071 2.445 1.287.814 1.869m114.267-2.246c-.279.451.82.624 2.441.387 1.621-.238 2.947-.607 2.947-.819 0-.762-4.893-.37-5.388.432M180.5 137c-.34.55.309 1 1.441 1 1.132 0 2.059-.45 2.059-1s-.648-1-1.441-1-1.719.45-2.059 1m-149.053 1.278c-.774 2.016-3.483 2.254-5.372.472-1.068-1.007-1.239-.969-.885.195.519 1.703 5.81 3.398 5.81 1.862 0-.562.675-.762 1.5-.445 1.705.654 1.898-.184.538-2.334-.797-1.261-1.025-1.225-1.591.25M198 138.031c0 .533.675.969 1.5.969s1.5-.177 1.5-.393c0-.216-.675-.652-1.5-.969-.825-.316-1.5-.139-1.5.393m-26.75 1.219c.159.795-.927 1.247-2.986 1.241-1.779-.005-3.441.527-3.692 1.182-.282.734.288 1.047 1.486.816 2.9-.559 2.343.966-.808 2.212-2.247.887-2.381 1.106-.732 1.193 1.11.058 3.673-1.019 5.697-2.394 2.023-1.375 4.49-2.507 5.482-2.515 1.484-.013 1.546-.178.351-.934-.799-.506-1.811-.697-2.25-.426-.439.271-.798.016-.798-.566s-.45-1.059-1-1.059-.887.563-.75 1.25m-82.583 1.252c0 .704-1.332 1.08-3.344.945-1.838-.123-3.59.176-3.892.665-.937 1.515-2.402.975-1.776-.655.326-.849.79-1.345 1.032-1.104.242.242 1.649.114 3.126-.284 3.759-1.014 4.854-.916 4.854.433m92.146-.819c.721.289 1.584.253 1.916-.079.332-.332-.258-.568-1.312-.525-1.165.048-1.402.285-.604.604m22.456.01c.973.254 2.323.237 3-.037.677-.274-.119-.481-1.769-.461-1.65.02-2.204.244-1.231.498M44 141c1.647 1.065 1.379 1.191-2.915 1.375-2.226.095-2.67-.17-1.878-1.125 1.237-1.49 2.752-1.569 4.793-.25m68.495 1.363c.686-.263 1.516.223 1.845 1.08.328.856.161 1.557-.371 1.557-.533 0-.969-.477-.969-1.059s-.493-.754-1.095-.382c-1.184.731-5.905-1.402-5.905-2.669 0-.424 1.181-.159 2.624.59 1.444.749 3.186 1.146 3.871.883m73.318-1.68c.721.289 1.584.253 1.916-.079.332-.332-.258-.568-1.312-.525-1.165.048-1.402.285-.604.604m3.694.306c-.35.566.051.734.941.393 1.732-.665 2.049-1.382.611-1.382-.518 0-1.216.445-1.552.989m18.047-.077c-.31.502.578.788 1.974.634 3.496-.383 4.397-1.546 1.198-1.546-1.435 0-2.862.411-3.172.912m155.446.159c0 1.576-2.183 3.485-4.75 4.155-3.015.786-2.844-.614.385-3.153 2.916-2.295 4.365-2.627 4.365-1.002m-288.676 1.331c.634 1.652-.113 2.598-2.05 2.598-.765 0-1.114-.45-.774-1 .34-.55.115-1-.5-1s-.84-.45-.5-1c.904-1.462 3.201-1.221 3.824.402m105.259-.652c-.412.412-1.162.806-1.666.875-.505.069-1.353.181-1.886.25-.532.069-.715.912-.405 1.875.403 1.254.301 1.386-.362.466-1.083-1.505-4.523-.505-3.981 1.157.536 1.644 7.065 3.641 7.846 2.401.379-.603.844-.458 1.171.363.363.912.568.96.621.144.046-.716.764-.955 1.743-.58 1.169.449 1.434.266.891-.612-.524-.848-.173-1.188 1.086-1.055 3.148.333 4.359.013 4.359-1.151 0-.624-.882-.886-2-.593-1.1.287-2 .115-2-.384 0-.498.787-.94 1.75-.982.963-.042.175-.683-1.75-1.424-4.299-1.655-4.485-1.681-5.417-.75M356.5 142c-.34.55-1.743 1-3.118 1-1.412 0-2.231-.435-1.882-1 .34-.55 1.743-1 3.118-1 1.412 0 2.231.435 1.882 1m19.5-.607c0 .216-.675.652-1.5.969-.825.316-1.5.139-1.5-.393 0-.533.675-.969 1.5-.969s1.5.177 1.5.393m-233.547 1.768c2.601 1.184 3.336 3.234 1.555 4.334-.546.337-1.783.153-2.75-.41-1.381-.805-1.437-1.034-.258-1.07 1.333-.041 1.333-.153 0-1.015-.825-.533-1.05-.983-.5-1 .55-.017.325-.467-.5-1-2.071-1.338-.629-1.244 2.453.161M161 143c0 .55.45 1 1 1s1-.45 1-1-.45-1-1-1-1 .45-1 1m62.269-.307c.973.254 2.323.237 3-.037.677-.274-.119-.481-1.769-.461-1.65.02-2.204.244-1.231.498m-129.511 1.882c-.316.316-1.178.666-1.916.778-.738.112-2.017.614-2.842 1.117-1.291.787-1.31.68-.137-.767.75-.925 1.732-1.454 2.181-1.176.45.278 1.119.018 1.487-.577.368-.596.924-.828 1.236-.517a.81.81 0 01-.009 1.142m61.752-.559c.346.559 1.047.758 1.559.441 1.387-.857 1.129-1.457-.628-1.457-.857 0-1.276.457-.931 1.016M69 146.2c.893.298.145.804-1.849 1.251-2.158.484-3.758.339-4.5-.409-.871-.878-.727-.999.591-.497 1.145.436 1.963.085 2.389-1.025.356-.928.922-1.267 1.258-.754.336.514 1.286 1.159 2.111 1.434m79.729-1.596c-.332.332-1.195.368-1.916.079-.798-.319-.561-.556.604-.604 1.054-.043 1.644.193 1.312.525m85.926.146c-.255.412.843.75 2.44.75 1.598 0 2.905-.338 2.905-.75s-1.098-.75-2.441-.75c-1.343 0-2.65.338-2.904.75m169.345.668c0 .78.273 2.13.607 3 .398 1.038.055 1.582-1 1.582-1.119 0-1.607-.911-1.607-3 0-1.65.45-3 1-3s1 .638 1 1.418m-214.393 1.164c-.88 2.294-.809 2.418 1.393 2.418 1.1 0 2 .45 2 1s.675 1 1.5 1 1.5-.45 1.5-1 .75-1 1.667-1c.916 0 1.37-.296 1.008-.658-.362-.362-.156-1.262.456-2 .89-1.072.505-1.342-1.915-1.342-2.536 0-2.944.325-2.506 2 .288 1.1.073 2-.477 2-.55 0-1.235-.9-1.523-2-.626-2.395-2.26-2.616-3.103-.418m19.31-.332c-.555 1.664-.403 4.949.247 5.351.46.285.836-.185.836-1.042s.45-1.559 1-1.559 1-.675 1-1.5c0-1.18-2.737-2.29-3.083-1.25M353.5 147c-.34.55-1.293 1-2.118 1s-1.222-.45-.882-1c.34-.55 1.293-1 2.118-1s1.222.45.882 1M35 148c-.825.533-1.05.969-.5.969s1.675-.436 2.5-.969c.825-.533 1.05-.969.5-.969s-1.675.436-2.5.969m268.527-.044c-.325.526-1.252.703-2.059.393-2.067-.793-1.824-1.349.591-1.349 1.132 0 1.793.43 1.468.956m-64.258.737c.973.254 2.323.237 3-.037.677-.274-.119-.481-1.769-.461-1.65.02-2.204.244-1.231.498m70.731.52c0 1.043-1.159.972-2.987-.184-1.169-.739-1.009-.904.75-.772 1.23.093 2.237.523 2.237.956M77.5 150c-.34.55.335 1 1.5 1s1.854.427 1.531.949c-.323.523 1.006 1.249 2.952 1.614 3.28.615 5.283 2.005 4.302 2.985-.228.228-2.86-.513-5.85-1.648-2.989-1.134-6.56-2.437-7.935-2.895-2.33-.776-2.351-.839-.309-.919 1.205-.047 2.469-.536 2.809-1.086.34-.55.843-1 1.118-1 .275 0 .222.45-.118 1m31.113.183c.289.467.944.591 1.456.274 1.308-.808 1.161-1.124-.525-1.124-.801 0-1.22.383-.931.85m41.093.024c.663.069.946.547.629 1.06-.318.514-1.807.689-3.31.388-1.504-.301-3.211-.069-3.795.515-.749.749-1.749.558-3.396-.647-2.241-1.64-2.248-1.683-.168-1.075 1.212.354 2.475.133 2.867-.501.413-.668 1.785-.874 3.334-.501 1.448.349 3.176.691 3.839.761m96.107-.524c.721.289 1.584.253 1.916-.079.332-.332-.258-.568-1.312-.525-1.165.048-1.402.285-.604.604m10.52.629c0 .703 1.163 1.338 2.584 1.409 1.42.072 1.908-.122 1.083-.43s-1.988-.942-2.583-1.409c-.656-.515-1.084-.346-1.084.43M172 151c0 .55.702 1 1.559 1s1.281.45.941 1c-.34.55-.19 1 .334 1 .811 0 2.166-2.241 2.166-3.582 0-.23-1.125-.418-2.5-.418s-2.5.45-2.5 1m136 0c.825.533 1.05.969.5.969s-1.675-.436-2.5-.969c-.825-.533-1.05-.969-.5-.969s1.675.436 2.5.969m-142 1.5c-2.692 1.539-2.657 1.634.75 1.991 1.238.13 2.25-.179 2.25-.687 0-.507.375-.69.833-.407.459.283.834-.14.834-.941 0-1.815-1.439-1.801-4.667.044m-68-.059c0 .243-.45.719-1 1.059-.55.34-1 .141-1-.441S96.45 152 97 152s1 .198 1 .441m88.319.844c-2.798 1.559-1.344 4.715 2.172 4.715 3.437 0 4.219 1.984.818 2.076-4.702.127-9.364 2.226-8.4 3.781.702 1.133 1.773 1.087 6.466-.278 3.262-.948 5.625-2.204 5.625-2.99 0-1.482 2.988-2.554 7.179-2.575 1.473-.008 3.473-.801 4.444-1.764 1.333-1.322 1.626-1.382 1.196-.245-.312.828.152 2.178 1.032 3 .88.822 1.611 1.316 1.624 1.098.014-.218 1.039-.075 2.278.319 1.496.474 2.78.188 3.821-.854.863-.862 1.987-1.568 2.497-1.568 2.391 0 .526-1.804-2.937-2.842-4.998-1.497-5.629-1.459-4.208.253.801.965.839 1.616.123 2.059-.577.356-1.049.149-1.049-.462 0-3.082-12.332-4.547-14.174-1.684-.468.728-1.078.724-2-.015-.776-.622-2.155-.728-3.326-.256-3.334 1.344-3.9 1.046-2-1.053 2.074-2.291 1.871-2.414-1.181-.715m-71.681 3.215c.317.825.753 1.5.969 1.5.216 0 .393-.675.393-1.5s-.436-1.5-.969-1.5c-.532 0-.709.675-.393 1.5M149 156c-.901.582-1.025.975-.309.985.655.008 1.469-.435 1.809-.985.767-1.242.421-1.242-1.5 0m162.729-.396c-.332.332-1.195.368-1.916.079-.798-.319-.561-.556.604-.604 1.054-.043 1.644.193 1.312.525M93 157.412c0 1.267.607 1.48 2.75.966 3.313-.794 4.159-1.378 1.998-1.378-.871 0-2.296-.273-3.166-.607-1.043-.4-1.582-.053-1.582 1.019m245.813-.729c.721.289 1.584.253 1.916-.079.332-.332-.258-.568-1.312-.525-1.165.048-1.402.285-.604.604m5.416 1.505c.218.653.931 1.365 1.584 1.583.731.244.954-.214.581-1.187-.698-1.818-2.765-2.196-2.165-.396m-246.214 2.784c-.597 1.115-1.857 2.042-2.8 2.058-1.544.028-1.532.137.127 1.102 1.013.588 4.163 1.085 7 1.103 3.089.02 5.845.629 6.871 1.52 1.797 1.561 4.787 1.077 4.787-.775 0-1.946-6.84-4.101-10.714-3.374-3.06.574-3.515.433-2.991-.932.931-2.426-1.034-3.031-2.28-.702M151.5 160c-.34.55-.141 1 .441 1s1.059-.45 1.059-1-.198-1-.441-1-.719.45-1.059 1m9.25-.311c-.963.252-1.75.903-1.75 1.448 0 1.426 6.267.604 6.756-.887.408-1.243-1.555-1.463-5.006-.561m118.063-.006c.721.289 1.584.253 1.916-.079.332-.332-.258-.568-1.312-.525-1.165.048-1.402.285-.604.604m44.187-.3c0 .211.901.619 2.001.907 1.101.288 1.75.115 1.441-.383-.538-.871-3.442-1.313-3.442-.524m-182.187 2.3c.721.289 1.584.253 1.916-.079.332-.332-.258-.568-1.312-.525-1.165.048-1.402.285-.604.604m6 0c.721.289 1.584.253 1.916-.079.332-.332-.258-.568-1.312-.525-1.165.048-1.402.285-.604.604m51 0c.721.289 1.584.253 1.916-.079.332-.332-.258-.568-1.312-.525-1.165.048-1.402.285-.604.604m-179.789 1.281c-1.205.762-1.022 1.114 1 1.921 1.643.656 1.907 1.01.785 1.052-.93.034-1.987-.416-2.349-1.002-.43-.695-1.4-.434-2.792.75-1.473 1.253-1.755 1.322-.909.223.673-.876.89-1.96.482-2.41-.407-.45-.178-.495.509-.099.688.395 1.25.242 1.25-.34 0-.582.788-1.052 1.75-1.044 1.472.013 1.515.164.274.949M5.5 164c-.34.55-1.154.993-1.809.985-.716-.01-.592-.403.309-.985 1.921-1.242 2.267-1.242 1.5 0m129.5 0c0 .55.675 1 1.5 1s1.5-.45 1.5-1-.675-1-1.5-1-1.5.45-1.5 1m75.5 0c-.34.55.335 1 1.5 1s1.84-.45 1.5-1c-.34-.55-1.015-1-1.5-1-.485 0-1.16.45-1.5 1m10.5.059c0 .582.45.781 1 .441s1-.816 1-1.059-.45-.441-1-.441-1 .477-1 1.059m127 .441c0 .825-.62 1.5-1.378 1.5-.757 0-1.937-.675-2.622-1.5-1.053-1.268-.84-1.5 1.378-1.5 1.664 0 2.622.548 2.622 1.5m-189.187.183c.721.289 1.584.253 1.916-.079.332-.332-.258-.568-1.312-.525-1.165.048-1.402.285-.604.604m223.937.006c-.962.252-1.75.875-1.75 1.384 0 1.459 2.626 1.082 4-.573 1.259-1.517.919-1.639-2.25-.811m-241.218 3.276c-1.013 1.119-2.447 2.035-3.187 2.035-.74 0-1.232.563-1.095 1.25.166.829-1.101 1.264-3.758 1.291-8.335.086-8.758 3.482-.868 6.972 3.094 1.368 6.858 2.487 8.366 2.487 1.507 0 4.016 1.004 5.576 2.23 1.559 1.227 5.102 3.281 7.873 4.565l5.038 2.334 1.672-2.064c.919-1.136 2.443-2.065 3.386-2.065 1.353 0 1.594.603 1.144 2.854-.69 3.45.778 5.146 4.454 5.146 1.862 0 2.936-.643 3.372-2.017.994-3.131 7.788-6.202 11.009-4.977 3.381 1.285 3.486 1.27 3.486-.506 0-.825.483-1.5 1.073-1.5.591 0 .928-.738.75-1.641-.201-1.023-2.204-2.135-5.323-2.956-6.409-1.685-6.5-1.684-6.5.097 0 .833.889 1.5 2 1.5 1.1 0 2 .45 2 1s-1.103 1-2.45 1c-2.702 0-4.531-2.357-3.85-4.962.242-.923-.258-2.256-1.109-2.963-1.188-.985-1.303-1.745-.493-3.258 1.737-3.246.475-4.913-2.844-3.756-1.56.544-3.943.865-5.296.714-2.126-.238-2.458.131-2.458 2.725 0 2.914-.137 3-4.77 3-4.041 0-4.958.37-6 2.421-1.542 3.036-3.29 3.669-4.124 1.495-.774-2.017 1.016-4.416 3.294-4.416.911 0 2.379-.845 3.264-1.879.885-1.033 2.223-2.124 2.972-2.424 1.119-.447 1.095-.739-.136-1.628-2.074-1.498-6.132-.916-8.24 1.181-1.94 1.929-3.547 2.171-5.638.846C142.06 170.79 143.724 169 147 169c1.585 0 3.16-.45 3.5-1 .348-.564-.462-1-1.859-1-1.363 0-3.105-.241-3.872-.535-.767-.295-2.224.38-3.237 1.5m90.886-.358c2.775 1.065 1.706 2.06-2.383 2.221-3.141.123-3.847-.155-3.393-1.337.595-1.551 3.056-1.928 5.776-.884m24.304 1.059c.596 1.788-3.763 2.392-4.444.616-.506-1.319-.77-1.346-1.689-.172-1.646 2.1-8.276 4.89-11.623 4.89-3.859 0-3.835-1.876.034-2.65 1.65-.33 3-.956 3-1.392 0-2.449 13.929-3.671 14.722-1.292M12 169c0 .55-.477 1-1.059 1s-.781-.45-.441-1 .816-1 1.059-1 .441.45.441 1m108.859.67c-.607.732-1.761 1.33-2.565 1.33-.803 0-1.276.563-1.05 1.25.507 1.545 5.756 2.289 5.756.816 0-.586.62-1.066 1.378-1.066.757 0 1.894-.622 2.525-1.383.926-1.116.561-1.469-1.897-1.829-1.81-.266-3.491.092-4.147.882m271.391.274c-1.238 1.032-2.236 2.479-2.218 3.216.022.925.443.798 1.36-.41 1.592-2.097 2.35-2.209 2.785-.411.209.866 1.144.337 2.649-1.5l2.326-2.839-2.326.033c-1.279.019-3.338.878-4.576 1.911m-387.521.66c-.332.332-1.195.368-1.917.079-.797-.319-.56-.556.605-.604 1.054-.043 1.644.193 1.312.525M293 171.833c0 1.302-1.189 2.168-2.156 1.571-1.034-.639-.142-2.404 1.215-2.404.518 0 .941.375.941.833M271 174c0 .55-.45 1-1 1s-1-.45-1-1 .45-1 1-1 1 .45 1 1M6.296 176.104c-.76.76-1.292.711-1.838-.171-.494-.801-.357-.988.387-.528.635.392 1.155.161 1.155-.513s.308-.918.683-.542c.376.376.202 1.165-.387 1.754m5.333.601c-.824.824-3.629-.496-3.629-1.709 0-.739.639-.724 2.086.05 1.147.614 1.841 1.36 1.543 1.659m214.371-.69c1.333.876 1.333 1.094 0 1.97-.825.541-2.47.991-3.656 1-1.667.012-2.038-.439-1.634-1.985.562-2.148 2.864-2.577 5.29-.985m173.53-.064c-.356.577.016 1.049.828 1.049.811 0 1.702.563 1.98 1.25.317.785.533.831.583.122.121-1.734-2.61-3.684-3.391-2.421M217.5 178c.34.55-.309 1-1.441 1-1.132 0-2.059-.45-2.059-1s.648-1 1.441-1 1.719.45 2.059 1m161.521 1.367c1.657.696 2.705 1.574 2.329 1.95-1.137 1.136-8.181.765-8.945-.472-.473-.763-.271-.88.595-.345s1.068.418.595-.345c-.392-.635-2.963-1.155-5.713-1.155-3.421 0-4.783-.352-4.311-1.114.841-1.361 11.011-.386 15.45 1.481m-207.534-.388c.964 1.56-1.379 5.021-3.4 5.021-2.369 0-4.478-2.537-3.73-4.487.647-1.688 6.162-2.101 7.13-.534M333 180c-.825.533-3.3.931-5.5.885-3.47-.073-3.669-.19-1.5-.885 1.375-.44 3.85-.839 5.5-.885 2.285-.064 2.643.147 1.5.885m85.667-.333c-.367.366-.667 1.131-.667 1.7 0 .626.466.567 1.183-.15.651-.651.951-1.416.667-1.7-.284-.285-.817-.217-1.183.15M307.5 181c.379.614-1.047.954-3.691.882-4.018-.111-4.107-.17-1.309-.882 4.313-1.098 4.322-1.098 5 0m14.417-.587c-.229.227-3.273.704-6.763 1.06-4.366.446-6.142.317-5.691-.413.36-.583 3.403-1.06 6.763-1.06 3.359 0 5.92.186 5.691.413m80.275.662c.197.591.786 1.075 1.308 1.075s1.111-.484 1.308-1.075c.197-.591-.391-1.075-1.308-1.075s-1.505.484-1.308 1.075M195 190.109c0 .679-1.358.951-3.5.701-2.929-.342-3.5-.094-3.5 1.516 0 1.622.491 1.826 3.125 1.299 1.719-.344 4.981-.628 7.25-.632l4.125-.006-3-1.987c-3.417-2.263-4.5-2.477-4.5-.891m72.992 2.906c-.858 1.603-.724 2.396.633 3.752 2.245 2.246 9.705 2.046 12.073-.322 1.612-1.612 1.586-1.67-.443-1.026-1.468.466-2.759.077-4.059-1.223-3.046-3.046-6.908-3.602-8.204-1.181m29.737-.411c-.332.332-1.195.368-1.916.079-.798-.319-.561-.556.604-.604 1.054-.043 1.644.193 1.312.525m9.271 2.289c0 1.109-3.076 2.364-3.864 1.576-.318-.318.084-.996.893-1.508 1.87-1.183 2.971-1.208 2.971-.068M179 198c0 .55 1.098 1 2.441 1 1.343 0 2.678.384 2.969.854.861 1.393 16.07 2.294 19.125 1.133 1.508-.574 2.557-1.228 2.331-1.454-.51-.511-10.152-.644-14.836-.205-1.909.179-4.609-.269-6-.995-3.003-1.567-6.03-1.734-6.03-.333m32.26.818c-1.744 1.108 5.179 3.495 7.76 2.676 1.106-.351 3.557-.129 5.447.495 2.628.868 3.975.844 5.734-.1l2.299-1.234-3-1.283c-3.3-1.41-16.271-1.804-18.24-.554m117.937 1.385c-.662.662-2.89 1.282-4.95 1.379-5.968.279-6.015.447-.824 2.933 4.894 2.343 4.938 2.346 7.385.421 1.354-1.065 3.076-1.936 3.827-1.936 2.304 0 1.514-1.993-1.2-3.025-3.145-1.195-2.796-1.214-4.238.228m9.524 5.838c.613 2.343 2.622 2.101 3.102-.374.214-1.104-.345-1.667-1.656-1.667-1.501 0-1.851.494-1.446 2.041M61 209.5c0 .833-.889 1.5-2 1.5-1.992 0-2.601-1.066-1.333-2.333 1.218-1.218 3.333-.689 3.333.833m302.516 1.317c-1.236 1.236 2.068 3.18 5.356 3.151 3.097-.027 7.128-1.774 7.128-3.088 0-.588-11.898-.649-12.484-.063M48 212c0 .55-.198 1-.441 1s-.719-.45-1.059-1c-.34-.55-.141-1 .441-1s1.059.45 1.059 1m-22.336 3.433c-.851 2.219-3.664 1.95-3.664-.35 0-2.106 1.991-3.298 3.383-2.025.485.444.612 1.513.281 2.375m17.586-1.51c1.489.152.703 2.295-1.5 4.086-2.054 1.671-2.403 1.693-4 .256-3.179-2.861-1.398-5.415 3.25-4.661.825.134 1.837.277 2.25.319m21.655.827a93.003 93.003 0 00-1.622 2.167c-.156.229-.283-.559-.283-1.75 0-1.332.625-2.167 1.622-2.167 1.389 0 1.43.252.283 1.75m245.536-.282c-1.841 1.393-1.78 1.47 1.187 1.5 1.72.018 3.687-.643 4.372-1.468 1.049-1.263.861-1.5-1.186-1.5-1.338 0-3.305.661-4.373 1.468M291 217c0 .55.648 1 1.441 1s1.719-.45 2.059-1c.34-.55-.309-1-1.441-1-1.132 0-2.059.45-2.059 1m-33.809 3.346c-6.801 1.478-6.324 3.216.809 2.944 3.025-.115 8.07-.299 11.211-.409 6.028-.211 7.12-1.881 1.23-1.881-1.893 0-3.441-.45-3.441-1 0-1.246-2.96-1.142-9.809.346m30.622.337c.721.289 1.584.253 1.916-.079.332-.332-.258-.568-1.312-.525-1.165.048-1.402.285-.604.604M.032 223.25C.005 225.579.414 226 2.7 226c2.242 0 2.462-.212 1.296-1.25A32.205 32.205 0 011.328 222c-1.077-1.278-1.269-1.092-1.296 1.25m355.546-.301c-2.157.303-4.107 1.114-4.333 1.801-.307.933 1.695 1.25 7.886 1.25 7.244 0 8.112-.183 6.833-1.445-1.813-1.79-5.269-2.324-10.386-1.606M393 225c0 .55 1.602 1 3.559 1 2.118 0 3.309-.405 2.941-1-.34-.55-1.941-1-3.559-1s-2.941.45-2.941 1m-119.187.683c.721.289 1.584.253 1.916-.079.332-.332-.258-.568-1.312-.525-1.165.048-1.402.285-.604.604" fill="#014" fill-rule="evenodd"/></svg>
