<svg id="Layer_1" data-name="Layer 1" xmlns="http://www.w3.org/2000/svg" viewBox="0 0 1000 362"><defs><style>.cls-1{fill:#0d2846;}</style></defs><title>luminor-wordmark-dark-blue</title><path class="cls-1" d="M123,113.8h-32V271H200.72V239H123ZM536,271h32V158.86H536ZM290.1,214.46c0,14.61-4.53,24-11.61,28.52-3.48,2.19-9,3.3-14.25,3.3-17.73,0-22.13-10.12-22.13-26.69V158.9H211.35v69.75c0,31.31,15.56,45.26,43.24,45.26h0c29.37,0,37-18.28,37-18.28L301,271h19.82V158.9H290.1Zm191.26-58.53c-28.26,0-36.57,16.83-36.65,17l-.63,1.33-.81-1.23c-7.6-11.49-18.53-17.09-36.76-17.09-28.26,0-36.58,16.83-36.65,17l-.63,1.3-9.42-15.37H340V271h30.77V215.41c0-21.71,7.43-31.82,23.41-31.82,14.11,0,20.69,8.4,20.69,26.44V271H445.6v-56.3c0-21.21,7.29-31.08,22.92-31.08,9.09,0,21.18,2.77,21.18,26.68V271h30.76V201.22C520.46,169.91,508.23,155.93,481.36,155.93Zm388.09,18.3L860,158.86H840.21V271H871V228.69c0-14.61,2.72-23.71,11.43-31.55,11.15-10,26.55-9.83,26.55-9.83V155.93C876,155.93,869.45,174.23,869.45,174.23Zm-102.77-18.3c-18.11,0-33.59,6-44.74,17.46-10.46,10.71-16.22,25.46-16.22,41.54s5.76,30.82,16.22,41.53c11.15,11.43,26.63,17.46,44.74,17.46,36,0,61.22-24.25,61.22-59S802.72,155.93,766.68,155.93Zm-.12,91.85c-17.47,0-30.15-13.82-30.15-32.85,0-18.73,13-32.86,30.15-32.86,17.47,0,30.64,14.13,30.64,32.86C797.2,234,784.32,247.78,766.56,247.78ZM651.67,156v0c-29.36,0-37,18.28-37,18.28l-9.43-15.37H585.41V271h30.76V215.41c0-14.61,4.53-24,11.6-28.51,3.47-2.2,9-3.31,14.26-3.31,17.72,0,22.12,10.12,22.12,26.68V271h30.76V201.22C694.91,169.91,679.36,156,651.67,156ZM529.19,113.8,552,136.56l22.76-22.76L552,91Z"/></svg>