<?xml version="1.0" encoding="utf-8"?>
<!-- Generator: Adobe Illustrator 21.0.2, SVG Export Plug-In . SVG Version: 6.00 Build 0)  -->
<svg version="1.1" id="Layer_1" xmlns="http://www.w3.org/2000/svg" xmlns:xlink="http://www.w3.org/1999/xlink" x="0px" y="0px"
	 viewBox="0 0 283.5 186" style="enable-background:new 0 0 283.5 186;" xml:space="preserve">
<style type="text/css">
	.st0{fill:url(#SVGID_1_);}
	.st1{fill:url(#SVGID_2_);}
	.st2{fill:url(#SVGID_3_);}
	.st3{fill:url(#SVGID_4_);}
	.st4{fill:#868686;}
	.st5{fill:#5A5A5A;}
</style>
<g>
	<g>
		
			<linearGradient id="SVGID_1_" gradientUnits="userSpaceOnUse" x1="99.2" y1="117.84" x2="99.2" y2="81.0806" gradientTransform="matrix(1 0 0 -1 0 188.54)">
			<stop  offset="0" style="stop-color:#20C200"/>
			<stop  offset="1" style="stop-color:#17A14A"/>
		</linearGradient>
		<path class="st0" d="M99.1,70.7c-1.9,0-3.5,0.7-4.7,2s-1.8,3.3-1.8,5.9v4v9v7.7c0,2.6,0.6,4.6,1.8,6c1.2,1.4,2.8,2.1,4.7,2.1
			c1.9,0,3.5-0.7,4.8-2c1.3-1.4,1.9-3.4,1.9-6v-5.6V81.5v-3.3c0-2.4-0.6-4.2-1.9-5.5C102.6,71.3,101,70.7,99.1,70.7z"/>
		
			<linearGradient id="SVGID_2_" gradientUnits="userSpaceOnUse" x1="122.3" y1="134.94" x2="122.3" y2="81.1107" gradientTransform="matrix(1 0 0 -1 0 188.54)">
			<stop  offset="0" style="stop-color:#20C200"/>
			<stop  offset="1" style="stop-color:#17A14A"/>
		</linearGradient>
		<path class="st1" d="M122.2,53.6c-1.9,0-3.5,0.7-4.7,2s-1.8,3.3-1.8,5.9v37.9c0,2.6,0.6,4.6,1.8,6c1.2,1.4,2.8,2.1,4.7,2.1
			c1.9,0,3.5-0.7,4.8-2c1.3-1.4,1.9-3.4,1.9-6V61.2c0-2.4-0.6-4.2-1.9-5.5C125.7,54.3,124.1,53.6,122.2,53.6z"/>
		
			<linearGradient id="SVGID_3_" gradientUnits="userSpaceOnUse" x1="145.45" y1="154.64" x2="145.45" y2="81.1231" gradientTransform="matrix(1 0 0 -1 0 188.54)">
			<stop  offset="0" style="stop-color:#20C200"/>
			<stop  offset="1" style="stop-color:#17A14A"/>
		</linearGradient>
		<path class="st2" d="M150.2,36c-1.2-1.4-2.8-2.1-4.8-2.1c-2.1,0-3.7,0.8-4.8,2.3s-1.7,3.8-1.7,6.7v56.4c0,2.7,0.6,4.7,1.7,6
			c1.2,1.4,2.8,2,4.8,2c1.7,0,3.3-0.7,4.6-2.1c1.3-1.4,2-3.3,2-5.9V42.1C152,39.4,151.4,37.4,150.2,36z"/>
	</g>
	
		<linearGradient id="SVGID_4_" gradientUnits="userSpaceOnUse" x1="174.398" y1="134.9465" x2="174.398" y2="81.1172" gradientTransform="matrix(1 0 0 -1 0 188.54)">
		<stop  offset="0" style="stop-color:#83E800"/>
		<stop  offset="1" style="stop-color:#4CC900"/>
	</linearGradient>
	<path class="st3" d="M188.4,98.3c-0.4-0.8-1.2-2-2.2-3.6l-13.5-21.4l7-6.4c3.6-3.2,5.4-5.8,5.4-7.8c0-1.6-0.5-2.9-1.6-4
		s-2.5-1.6-4.1-1.6c-1.4,0-2.6,0.4-3.5,1.1c-1,0.7-2.4,2-4.2,4l-8.1,8.2c0,0-2.7,2.7-3.3,4c-0.7,1.4-0.9,2.8-0.5,3.9
		c0.4,1.2,1.3,2.9,2.7,5.3l8.6,13.6l4.7,7.7c1.5,2.3,2.7,3.9,3.5,4.8c0.9,0.9,2.1,1.3,3.7,1.3c1.9,0,3.4-0.6,4.5-1.8s1.7-2.9,1.7-5
		C189.1,99.9,188.8,99.1,188.4,98.3z"/>
</g>
<g>
	<path class="st4" d="M34.8,132.6c0.2,0,0.4,0,0.6-0.1c0.2,0,0.4,0,0.5,0c0.2,0,0.4,0,0.6,0c0.2,0,0.4,0,0.6,0.1
		c0,0.4,0.1,1,0.1,1.6s0,1.2,0,1.7c0.2-0.5,0.5-0.9,0.9-1.4c0.3-0.4,0.8-0.8,1.2-1.2c0.5-0.3,1-0.6,1.6-0.8s1.3-0.3,2.1-0.3
		c0.7,0,1.3,0.1,1.8,0.3s1,0.4,1.3,0.7c0.4,0.3,0.7,0.7,1,1.1c0.3,0.4,0.5,0.9,0.7,1.4c0.3-0.4,0.6-0.8,0.9-1.2s0.7-0.8,1.2-1.1
		c0.4-0.3,1-0.6,1.5-0.8c0.6-0.2,1.2-0.3,1.9-0.3c2.2,0,3.8,0.6,4.8,1.9c1,1.3,1.5,3.1,1.5,5.4v12c-0.1,0-0.4,0-0.6,0.1
		c-0.3,0-0.5,0-0.6,0s-0.3,0-0.6,0c-0.3,0-0.5,0-0.6-0.1v-11.3c0-2-0.3-3.5-1-4.4c-0.7-1-1.6-1.4-2.9-1.4c-0.8,0-1.5,0.2-2.1,0.5
		s-1.1,0.8-1.5,1.3s-0.7,1.2-0.9,1.9c-0.2,0.7-0.3,1.5-0.3,2.3v11.1c-0.1,0-0.4,0-0.6,0.1s-0.5,0-0.6,0s-0.3,0-0.6,0
		c-0.3,0-0.5,0-0.6-0.1v-11.7c0-1.9-0.3-3.3-0.9-4.2s-1.5-1.4-2.6-1.4c-0.8,0-1.5,0.2-2.1,0.6c-0.6,0.4-1.2,0.9-1.7,1.6
		c-0.5,0.7-0.8,1.5-1.1,2.5c-0.3,0.9-0.4,2-0.4,3.1v9.5c-0.1,0-0.4,0-0.6,0.1c-0.3,0-0.5,0-0.6,0s-0.3,0-0.6,0c-0.3,0-0.5,0-0.6-0.1
		v-19H34.8z"/>
	<path class="st4" d="M76.1,139c0-1.6-0.4-2.8-1.1-3.6c-0.8-0.8-1.9-1.1-3.4-1.1c-1,0-1.9,0.1-2.7,0.2c-0.8,0.1-1.5,0.3-2.2,0.5
		c-0.1-0.2-0.2-0.5-0.3-1c-0.1-0.4-0.1-0.8-0.1-1.2c0.6-0.2,1.4-0.4,2.4-0.5c0.9-0.1,1.9-0.2,2.9-0.2c2.4,0,4.2,0.5,5.3,1.6
		c1.2,1,1.7,2.7,1.7,4.9v12.5c-0.9,0.2-1.9,0.3-3.1,0.5s-2.4,0.3-3.5,0.3c-2.3,0-4.1-0.5-5.4-1.4s-2-2.4-2-4.4c0-1,0.2-1.9,0.6-2.6
		c0.4-0.8,0.9-1.4,1.6-2c0.7-0.5,1.5-0.9,2.4-1.2s2-0.4,3.1-0.4c0.9,0,1.7,0,2.3,0.1c0.6,0.1,1.2,0.1,1.6,0.2V139H76.1z M76.1,142.3
		c-0.4,0-0.9-0.1-1.6-0.2c-0.6-0.1-1.2-0.1-1.8-0.1c-1.9,0-3.3,0.3-4.3,1s-1.5,1.7-1.5,3c0,0.8,0.2,1.5,0.5,2s0.7,0.9,1.2,1.1
		c0.5,0.3,1,0.4,1.6,0.5s1.2,0.1,1.8,0.1c0.8,0,1.5,0,2.1-0.1c0.7-0.1,1.3-0.2,2-0.3C76.1,149.3,76.1,142.3,76.1,142.3z"/>
	<path class="st4" d="M84.7,124.3c0.1,0,0.4,0,0.6-0.1c0.3,0,0.5,0,0.6,0s0.3,0,0.6,0c0.3,0,0.5,0,0.6,0.1v27.2
		c-0.1,0-0.4,0-0.6,0.1c-0.3,0-0.5,0-0.6,0s-0.4,0-0.6,0c-0.3,0-0.5,0-0.6-0.1V124.3z M88.7,141.8l6.8-9.1c0.4-0.1,0.8-0.1,1.3-0.1
		s1.1,0,1.6,0.1l-6.7,8.9l8,10c-0.4,0.1-0.9,0.1-1.3,0.1c-0.5,0-1.1,0-1.6-0.1L88.7,141.8z"/>
	<path class="st4" d="M102.8,148.9c0.5,0.2,1.2,0.4,2.1,0.6c0.9,0.2,1.7,0.2,2.5,0.2c1.5,0,2.7-0.3,3.5-1c0.9-0.7,1.3-1.5,1.3-2.4
		c0-0.7-0.1-1.2-0.4-1.6c-0.3-0.4-0.6-0.8-1-1.1s-0.9-0.5-1.5-0.7c-0.5-0.2-1.1-0.4-1.7-0.6c-0.6-0.2-1.2-0.4-1.8-0.7
		c-0.6-0.2-1.1-0.6-1.6-0.9c-0.5-0.4-0.8-0.8-1.1-1.4c-0.3-0.5-0.4-1.2-0.4-2c0-1.5,0.5-2.7,1.6-3.7c1.1-0.9,2.8-1.4,5.1-1.4
		c1,0,1.9,0.1,2.8,0.3s1.6,0.4,2.1,0.6c-0.1,0.7-0.3,1.4-0.5,2.1c-0.5-0.2-1.2-0.3-2-0.5s-1.6-0.3-2.5-0.3c-1.5,0-2.6,0.3-3.2,0.8
		s-0.9,1.2-0.9,2.1c0,0.5,0.1,0.9,0.3,1.2c0.2,0.3,0.5,0.6,0.9,0.9c0.4,0.2,0.8,0.4,1.2,0.6c0.5,0.2,0.9,0.3,1.5,0.5
		c0.7,0.2,1.3,0.5,2,0.7c0.7,0.3,1.3,0.6,1.8,1c0.6,0.4,1,0.9,1.4,1.6c0.4,0.6,0.5,1.4,0.5,2.4c0,0.9-0.2,1.7-0.5,2.4
		c-0.4,0.7-0.9,1.3-1.5,1.8s-1.4,0.9-2.3,1.2s-1.9,0.4-2.9,0.4c-1.2,0-2.2-0.1-3.2-0.2c-0.9-0.1-1.7-0.3-2.2-0.6
		C102.2,150.4,102.5,149.7,102.8,148.9z"/>
	<path class="st4" d="M121.6,142.4c0,2.5,0.6,4.4,1.7,5.6c1.2,1.2,2.9,1.8,5.2,1.8c0.9,0,1.8-0.1,2.6-0.2c0.8-0.2,1.6-0.4,2.3-0.6
		c0.1,0.3,0.2,0.6,0.3,1s0.1,0.8,0.1,1.1c-0.7,0.3-1.6,0.6-2.5,0.7c-1,0.2-2,0.3-3.1,0.3c-1.6,0-3-0.2-4.2-0.7s-2.1-1.2-2.9-2
		c-0.8-0.9-1.3-1.9-1.7-3.1c-0.4-1.2-0.5-2.5-0.5-3.9s0.2-2.7,0.5-3.9s0.8-2.3,1.5-3.2s1.5-1.6,2.6-2.1s2.3-0.8,3.8-0.8
		c1.2,0,2.3,0.2,3.3,0.6c1,0.4,1.8,1,2.4,1.8c0.7,0.8,1.1,1.7,1.5,2.7c0.3,1,0.5,2.2,0.5,3.4c0,0.2,0,0.5,0,0.9c0,0.3,0,0.6-0.1,0.9
		h-13.3V142.4z M132.7,140.4c0-0.8-0.1-1.5-0.3-2.3c-0.2-0.7-0.5-1.4-0.9-1.9c-0.4-0.6-1-1-1.6-1.4c-0.7-0.3-1.5-0.5-2.4-0.5
		c-1.7,0-3.1,0.5-4,1.6c-1,1.1-1.5,2.6-1.7,4.5L132.7,140.4L132.7,140.4z"/>
	<path class="st5" d="M140.5,124.3c0.1,0,0.4,0,0.6-0.1c0.3,0,0.5,0,0.6,0s0.3,0,0.6,0s0.5,0,0.6,0.1v27.2c-0.1,0-0.4,0-0.6,0.1
		c-0.3,0-0.5,0-0.6,0s-0.4,0-0.6,0c-0.3,0-0.5,0-0.6-0.1V124.3z M144.5,141.8l6.8-9.1c0.4-0.1,0.8-0.1,1.3-0.1s1.1,0,1.6,0.1
		l-6.7,8.9l8,10c-0.4,0.1-0.9,0.1-1.3,0.1c-0.5,0-1.1,0-1.6-0.1L144.5,141.8z"/>
	<path class="st5" d="M159.9,142.4c0,2.5,0.6,4.4,1.7,5.6c1.2,1.2,2.9,1.8,5.2,1.8c0.9,0,1.8-0.1,2.6-0.2c0.8-0.2,1.6-0.4,2.3-0.6
		c0.1,0.3,0.2,0.6,0.3,1s0.1,0.8,0.1,1.1c-0.7,0.3-1.6,0.6-2.5,0.7c-1,0.2-2,0.3-3.1,0.3c-1.6,0-3-0.2-4.2-0.7s-2.1-1.2-2.9-2
		c-0.8-0.9-1.3-1.9-1.7-3.1c-0.4-1.2-0.5-2.5-0.5-3.9s0.2-2.7,0.5-3.9s0.8-2.3,1.5-3.2s1.5-1.6,2.6-2.1s2.3-0.8,3.8-0.8
		c1.2,0,2.3,0.2,3.3,0.6c1,0.4,1.8,1,2.4,1.8c0.7,0.8,1.1,1.7,1.5,2.7c0.3,1,0.5,2.2,0.5,3.4c0,0.2,0,0.5,0,0.9c0,0.3,0,0.6-0.1,0.9
		h-13.3V142.4z M171,140.4c0-0.8-0.1-1.5-0.3-2.3c-0.2-0.7-0.5-1.4-0.9-1.9c-0.4-0.6-1-1-1.6-1.4c-0.7-0.3-1.5-0.5-2.4-0.5
		c-1.7,0-3.1,0.5-4,1.6c-1,1.1-1.5,2.6-1.7,4.5L171,140.4L171,140.4z"/>
	<path class="st5" d="M178.3,148.9c0.5,0.2,1.2,0.4,2.1,0.6c0.9,0.2,1.7,0.2,2.5,0.2c1.5,0,2.7-0.3,3.5-1c0.9-0.7,1.3-1.5,1.3-2.4
		c0-0.7-0.1-1.2-0.4-1.6c-0.3-0.4-0.6-0.8-1-1.1s-0.9-0.5-1.5-0.7c-0.5-0.2-1.1-0.4-1.7-0.6c-0.6-0.2-1.2-0.4-1.8-0.7
		c-0.6-0.2-1.1-0.6-1.6-0.9c-0.5-0.4-0.8-0.8-1.1-1.4c-0.3-0.5-0.4-1.2-0.4-2c0-1.5,0.5-2.7,1.6-3.7c1.1-0.9,2.8-1.4,5.1-1.4
		c1,0,1.9,0.1,2.8,0.3c0.9,0.2,1.6,0.4,2.1,0.6c-0.1,0.7-0.3,1.4-0.5,2.1c-0.5-0.2-1.2-0.3-2-0.5s-1.6-0.3-2.5-0.3
		c-1.5,0-2.6,0.3-3.2,0.8c-0.6,0.5-0.9,1.2-0.9,2.1c0,0.5,0.1,0.9,0.3,1.2s0.5,0.6,0.9,0.9c0.4,0.2,0.8,0.4,1.2,0.6
		c0.5,0.2,0.9,0.3,1.5,0.5c0.7,0.2,1.3,0.5,2,0.7c0.7,0.3,1.3,0.6,1.8,1c0.6,0.4,1,0.9,1.4,1.6c0.4,0.6,0.5,1.4,0.5,2.4
		c0,0.9-0.2,1.7-0.5,2.4c-0.4,0.7-0.9,1.3-1.5,1.8s-1.4,0.9-2.3,1.2c-0.9,0.3-1.9,0.4-2.9,0.4c-1.2,0-2.2-0.1-3.2-0.2
		c-0.9-0.1-1.7-0.3-2.2-0.6C177.7,150.4,177.9,149.7,178.3,148.9z"/>
	<path class="st5" d="M195.5,124.3c0.1,0,0.4,0,0.6-0.1c0.3,0,0.5,0,0.6,0s0.3,0,0.6,0s0.5,0,0.6,0.1v27.2c-0.2,0-0.4,0-0.6,0.1
		c-0.3,0-0.5,0-0.6,0s-0.4,0-0.6,0c-0.3,0-0.5,0-0.6-0.1V124.3z M199.5,141.8l6.8-9.1c0.4-0.1,0.8-0.1,1.3-0.1s1.1,0,1.6,0.1
		l-6.7,8.9l8,10c-0.4,0.1-0.9,0.1-1.3,0.1c-0.5,0-1.1,0-1.6-0.1L199.5,141.8z"/>
	<path class="st5" d="M213.9,132.6c0.1,0,0.4,0,0.6-0.1c0.3,0,0.5,0,0.6,0s0.4,0,0.6,0c0.3,0,0.5,0,0.6,0.1v10.7
		c0,1.3,0.1,2.4,0.4,3.3c0.3,0.9,0.7,1.5,1.2,2s1.2,0.8,1.9,1c0.8,0.2,1.6,0.3,2.6,0.3c0.8,0,1.5,0,2.2-0.1c0.6-0.1,1.2-0.2,1.7-0.4
		v-16.7c0.1,0,0.4,0,0.6-0.1c0.3,0,0.5,0,0.6,0c0.2,0,0.4,0,0.6,0c0.3,0,0.5,0,0.6,0.1v18.4c-0.9,0.2-1.9,0.5-3.1,0.6
		c-1.1,0.2-2.3,0.3-3.5,0.3s-2.3-0.1-3.3-0.3s-1.9-0.6-2.7-1.3c-0.8-0.6-1.3-1.5-1.8-2.6c-0.4-1.1-0.7-2.6-0.7-4.3v-10.9H213.9z"/>
	<path class="st5" d="M234.8,148.9c0.5,0.2,1.2,0.4,2.1,0.6c0.9,0.2,1.7,0.2,2.5,0.2c1.5,0,2.6-0.3,3.5-1s1.3-1.5,1.3-2.4
		c0-0.7-0.1-1.2-0.4-1.6c-0.3-0.4-0.6-0.8-1-1.1s-0.9-0.5-1.5-0.7c-0.5-0.2-1.1-0.4-1.7-0.6c-0.6-0.2-1.2-0.4-1.8-0.7
		c-0.6-0.2-1.1-0.6-1.6-0.9c-0.5-0.4-0.8-0.8-1.1-1.4c-0.3-0.5-0.4-1.2-0.4-2c0-1.5,0.5-2.7,1.6-3.7c1.1-0.9,2.8-1.4,5.1-1.4
		c1,0,1.9,0.1,2.8,0.3c0.9,0.2,1.6,0.4,2.1,0.6c-0.1,0.7-0.3,1.4-0.5,2.1c-0.5-0.2-1.2-0.3-2-0.5s-1.6-0.3-2.5-0.3
		c-1.5,0-2.6,0.3-3.2,0.8c-0.6,0.5-0.9,1.2-0.9,2.1c0,0.5,0.1,0.9,0.3,1.2s0.5,0.6,0.9,0.9c0.4,0.2,0.8,0.4,1.2,0.6
		c0.5,0.2,0.9,0.3,1.5,0.5c0.7,0.2,1.3,0.5,2,0.7c0.7,0.3,1.3,0.6,1.8,1c0.6,0.4,1,0.9,1.4,1.6c0.4,0.6,0.5,1.4,0.5,2.4
		c0,0.9-0.2,1.7-0.5,2.4c-0.4,0.7-0.9,1.3-1.5,1.8s-1.4,0.9-2.3,1.2c-0.9,0.3-1.9,0.4-2.9,0.4c-1.2,0-2.2-0.1-3.2-0.2
		c-0.9-0.1-1.7-0.3-2.2-0.6C234.3,150.4,234.5,149.7,234.8,148.9z"/>
</g>
</svg>
