<svg width="420" height="133" xmlns="http://www.w3.org/2000/svg"><path d="M26.173 3.5c-.155 2.302.203 3.5 1.046 3.5.797 0 1.281-1.321 1.281-3.5 0-1.925-.471-3.5-1.046-3.5-.575 0-1.151 1.575-1.281 3.5M58.587.987c1.174 1.174 22.458 9.302 22.983 8.776C82.169 9.164 61.373 0 59.413 0c-1.193 0-1.475.338-.826.987m10.694 1.006c2.08 1.147 4.179 1.841 4.665 1.541.486-.301 1.034-.193 1.219.239C75.525 4.616 95.77 15 97.054 15c.423 0 .663-.726.532-1.612-.296-2.016-3.219-3.733-4.748-2.788-.76.47-.871.263-.328-.615.599-.97.358-1.149-.898-.666-1.156.443-1.482.28-1-.5.468-.757.178-.953-.833-.564-.852.327-2.389.041-3.414-.635C83.642 5.825 71.988 1.176 68.5.493c-2.871-.562-2.837-.498.781 1.5M78.756.574c.691.328 1.062.911.825 1.295-.237.384 1.222.639 3.244.568 2.021-.072 4.702.536 5.956 1.352 1.255.815 2.532 1.231 2.839.925.306-.307-.72-1.25-2.282-2.096-1.561-.846-2.388-1.553-1.838-1.571.55-.019 2.35.86 4 1.953s2.411 1.99 1.691 1.993c-.72.004-1.057.415-.749.914.309.498-.452.7-1.691.447-1.381-.282-.765.362 1.593 1.666 2.115 1.168 4.113 1.856 4.441 1.529.327-.328.673-2.638.768-5.134l.173-4.537-6.789.277c-3.986.163-6.545.671-6.198 1.231.355.575-.172.643-1.325.17C81.078.6 77-.259 78.756.574m106.795.343c-.319.516.214 1.227 1.184 1.58.971.353 3.115 2.267 4.765 4.254l3 3.612-2.75-1.796C189.398 7.03 189 6.991 189 8.3c0 .841 2.363 3.421 5.25 5.732 2.887 2.311 5.155 4.545 5.04 4.966-.344 1.25 3.628 4.367 5.765 4.524 1.907.141 1.899.057-.211-2.188-1.206-1.284-2.429-2.334-2.718-2.334-.289 0 .014.54.674 1.2 2.056 2.056 1.312 3.211-.824 1.279-1.531-1.387-1.716-2.022-.758-2.614 1.008-.623 1.012-1.035.024-2.023-.683-.683-1.242-1.671-1.242-2.195 0-1.016 2.915 2.087 5.213 5.548 1.836 2.765 4.41 1.418 7.787-4.075 2.834-4.609 3.926-4.964 6.506-2.114.998 1.104 2.04 1.781 2.315 1.506.275-.275-.34-1.428-1.367-2.563-1.844-2.037-1.835-2.057.723-1.593 2.244.407 2.518.181 2.052-1.693-.621-2.5-5.38-9.61-6.453-9.642-.398-.011.614 2.249 2.25 5.023 1.636 2.774 2.974 5.345 2.974 5.712 0 1.132-5.998-6.122-6.976-8.437-.849-2.008-1.641-2.185-9.973-2.224C198.043.062 196 .36 196 1.419c0 .752-.704 1.637-1.563 1.967-.86.33-1.284 1.053-.941 1.607 1.332 2.156-1.495.854-4.353-2.004-1.656-1.656-3.272-2.589-3.592-2.072M191 1c0 .55.45 1 1 1s1-.45 1-1-.45-1-1-1-1 .45-1 1m30.133 2.5C223.318 7.203 225 8.042 225 5.429c0-1.665 2.909-5.151 3.129-3.75.279 1.778.616 6.074.888 11.321.157 3.025.582 5.95.945 6.5 1.198 1.813.571 3.734-1.712 5.25-1.568 1.041-2.25 1.133-2.25.305 0-.657-.784-.966-1.75-.69-1.139.325-2.609-.58-4.208-2.592l-2.458-3.092 2.708 1.775c2.258 1.479 2.708 1.528 2.708.294 0-1.584-3.695-6.752-4.823-6.747-.372.002-.79 2.252-.928 5-.144 2.862.18 4.997.758 4.997.601 0 .506.808-.235 1.994-1.089 1.743-.838 2.401 1.991 5.231 2.163 2.163 3.237 2.729 3.237 1.706 0-.842-.562-2.137-1.25-2.878-.755-.813-.797-1.093-.105-.705.63.352 1.421-.079 1.759-.957.337-.879 1.255-1.352 2.04-1.051.785.301 1.619.01 1.855-.646.235-.657 1.102.381 1.925 2.306.926 2.163 1.152 3.941.594 4.654-1.046 1.336-.031 6.346 1.285 6.346.487 0 .642-1.535.344-3.412-.3-1.886-.079-3.698.494-4.052.674-.416.475-1.498-.567-3.088-1.068-1.63-1.212-2.448-.43-2.448.646 0 .905-.436.575-.969-.371-.6 1.242-.77 4.237-.447 2.66.287 6.023.07 7.474-.481 3.134-1.192 3.927.048 2.566 4.012-.739 2.153-.27 3.658 2.651 8.5 1.951 3.237 3.527 6.56 3.502 7.385-.025.825-1.381-1.087-3.013-4.25-3.059-5.926-5.158-7.451-4.818-3.5.47 5.477-.014 6.636-2.578 6.171l-2.46-.446 1.473 4.176c.811 2.297 1.973 4.778 2.583 5.513.61.735.774 1.336.364 1.336-.41 0-.206.65.453 1.444.975 1.174.848 1.417-.68 1.302-1.032-.078-1.937-.931-2.009-1.895-.163-2.16-4.319-7.935-5.283-7.34-.385.239-1.966-.987-3.513-2.723-2.131-2.393-2.952-2.806-3.39-1.707-.318.798-1.6 1.392-2.85 1.321-2.53-.146-6.454-3.227-5.688-4.467.271-.438-.033-1.122-.675-1.519-.832-.514-.68-1.078.528-1.961 1.563-1.143 1.499-1.464-.817-4.098-1.838-2.089-2.521-2.42-2.544-1.229-.018.895.649 2.192 1.48 2.882 1.095.909 1.22 1.608.452 2.534-.751.905-.737 1.478.047 1.963.741.458.521 1.115-.663 1.981-1.432 1.047-1.537 1.58-.545 2.774 1.045 1.259.773 1.426-1.831 1.123-3.059-.356-7.881-3.192-7.941-4.67-.017-.432.908-.283 2.055.331 2.71 1.451 3.059.99 3.404-4.504.24-3.804-.069-4.782-1.803-5.709-1.525-.817-2.191-.82-2.461-.012-.237.712-.967.789-2.047.216-.924-.49-2.459-1.132-3.412-1.426-1.065-.329-1.506-1.129-1.143-2.073.416-1.084-.032-1.538-1.517-1.538-1.159 0-2.107-.612-2.107-1.359s-2.784-4.235-6.186-7.75c-3.402-3.515-5.714-5.716-5.138-4.891.577.825 1.341 2.85 1.698 4.5l.65 3-2.294-2.744-2.295-2.744-2.627 2.994c-1.445 1.647-2.331 3.001-1.968 3.009.363.009.056.398-.682.866-1.882 1.193-.077 3.842 5.177 7.598 2.291 1.639 6.032 4.691 8.314 6.784 2.281 2.092 4.736 3.677 5.454 3.521.718-.156 1.327.263 1.352.932.025.668 2.234 2.604 4.91 4.301s4.592 3.36 4.257 3.695c-.336.335-1.435-.138-2.445-1.051-2.38-2.155-3.561-2.116-2.738.089.359.962-.719.101-2.396-1.915s-6.619-6.057-10.982-8.98c-4.364-2.923-7.763-5.487-7.553-5.696.21-.21-.909-1.467-2.485-2.793l-2.866-2.412-3.59 2.436c-2.312 1.569-3.14 2.644-2.328 3.021.693.322-.201.44-1.987.261-3.17-.317-3.206-.277-1.5 1.671 1.455 1.661 1.485 1.901.179 1.427-1.935-.701-4.475 4.824-2.576 5.603.63.258-.093.505-1.605.548-1.646.047-2.75.638-2.75 1.472 0 2.559-2.761 2.492-5.144-.126-1.296-1.424-1.681-2.215-.856-1.756 1.06.588.979.237-.275-1.196-1.582-1.807-1.609-2.166-.25-3.294.839-.696 1.525-.857 1.525-.358 0 .5.892.908 1.982.908 1.808 0 1.742-.261-.75-2.978l-2.732-2.977 3 1.847 3 1.847-1.905-2.155c-2.411-2.727-1.263-2.767 2.501-.087 4.17 2.969 3.588 1.691-.729-1.602-3.668-2.798-11.21-4.639-9.825-2.398.506.819.1.811-1.473-.031-1.717-.919-3.214-.817-7.129.483-2.725.905-4.77 1.946-4.543 2.313.226.367-.627.667-1.897.667-3.288 0-2.086-1.244 2.542-2.631 5.525-1.655 4.933-2.985-1.292-2.901-2.887.039-7.275-.163-9.75-.449-2.475-.286-10.04-.746-16.811-1.023-9.717-.398-12.147-.24-11.529.75 1.138 1.822 1.323 3.36 1.468 12.254.115 7.027.389 8.148 2.252 9.215 1.856 1.063 1.894 1.219.311 1.25-.995.019-1.531.485-1.191 1.035.653 1.057-.15 1.284-5 1.418-1.65.045-3.267-.281-3.594-.724-.618-.84-13.472-3.496-20.406-4.216-2.937-.305-3.468-.177-2 .483 3.495 1.57.446 1.108-6.67-1.012-3.787-1.127-6.621-2.477-6.299-3 .323-.522 1.037-.949 1.587-.949s.745.413.432.919c-.721 1.167 5.005 2.474 6.58 1.501.735-.454.913-.299.473.413-.511.827.62.969 4.095.514 2.641-.346 4.951-.752 5.133-.903.183-.15-3.417-1.394-8-2.763-6.554-1.959-11.601-2.631-23.661-3.148-8.431-.361-15.943-.892-16.693-1.18-.944-.362-1.114-1.189-.555-2.688.445-1.191.475-3.065.067-4.165s-.326-2.522.183-3.161c.577-.725.531-1.405-.123-1.809-1.492-.922-3.282.422-2.673 2.007.281.733.102 1.475-.399 1.648-.501.173-1.047 2.111-1.214 4.307l-.303 3.992-9.98.084C.522 34.676 0 34.747 0 36.392c0 1.084 2.488 1.477 11.25 1.776 6.188.211 12.006.822 12.931 1.358 1.814 1.051-17.624 1.082-21.798.034L.14 38.997.092 57.999C.046 76.315.116 77 2.034 77c1.922 0 1.973-.536 1.513-15.963-.445-14.906.071-18.752 2.228-16.595.354.353.572 8.037.484 17.074l-.158 16.432 4.2-.514c7.096-.868 37.152-2.267 37.965-1.767 1.294.796-.234 2.293-3.906 3.827-1.927.805-3.25 1.874-2.941 2.375.614.994-6.267 2.616-7.188 1.695-.31-.31.411-.564 1.602-.564 1.2 0 2.055-.558 1.917-1.25-.182-.909-4.749-1.416-16.75-1.86-9.075-.336-17.512-.951-18.75-1.367-2.008-.675-2.25-.427-2.25 2.3 0 2.795.32 3.09 3.75 3.449l3.75.392-3.75.168c-2.062.092-3.75.556-3.75 1.031 0 1.533 12.726 1.938 20.219.644 8.249-1.425 10.138-1.184 3.632.464-2.393.606-5.251 1.505-6.351 1.998-1.914.857-1.904.899.25.963 1.238.038 2.25.408 2.25.825 0 .416-3.554.753-7.898.75-4.344-.004-7.693-.345-7.441-.757.251-.412 1.218-.795 2.148-.85.93-.056-.064-.513-2.21-1.016-4.158-.976-5.998-.381-3.57 1.155.996.63 1.068.935.221.946-.687.008-1.25.669-1.25 1.469 0 1.095 1.671 1.541 6.75 1.804l6.75.35-6.75.196L0 95v4c0 2.525.461 4.006 1.25 4.015.875.011.823.286-.174.917-1.072.678-.701 1.009 1.5 1.335l2.924.433-2.75.15c-1.711.093-2.75.717-2.75 1.65 0 1.103 1.148 1.5 4.333 1.5 2.384 0 4.674-.338 5.089-.75.416-.412 3.753-.754 7.417-.76 14.84-.021 26.696-.747 23.161-1.417-1.925-.365 6.4-.418 18.5-.118s27.118.52 33.373.489c6.255-.031 10.659.194 9.787.5-.873.306 4.584.48 12.127.387 20.432-.252 19.938-.216 18.213-1.331-1.173-.758-.914-.973 1.191-.985 1.48-.008 2.911-.371 3.18-.806.269-.435-1.167-.602-3.191-.371-2.024.231-3.963.863-4.309 1.405-.748 1.169-14.871-.026-14.871-1.258 0-.447-2.491-.596-5.536-.333-3.044.264-7.089-.033-8.987-.66-2.445-.806-4.988-.847-8.715-.141-6.611 1.255-30.024 2.324-24.262 1.108 2.2-.464 7.6-.925 12-1.023l8-.18L80 101.5c-7.617-1.472-5.981-1.677 11.936-1.501 11.668.115 14.328.586 11.921 2.111-1.61 1.02.155 1.207 2.587.273 1.244-.477 1.348-.929.459-2-.918-1.106-.71-1.383 1.034-1.383 1.199 0 1.903.45 1.563 1-.767 1.241.12 1.256 4.243.074 1.982-.569 3.451-.569 3.803 0 .314.509 1.697.926 3.072.926 1.639 0 2.254-.399 1.785-1.158-.502-.811.003-.965 1.691-.513 1.323.354 2.856.681 3.406.728.55.046.144.419-.902.83-1.046.41 1.879.646 6.5.524 11.24-.297 11.102-.279 10.446-1.34-.315-.51.446-1.103 1.691-1.317 3.062-.527-17.511-1.115-24.735-.707-4.932.278-6.269-.072-4-1.047 1.63-.701 1.688-.872.309-.93-3.429-.142-2.496-1.57 1.026-1.57 2.556 0 3.649-.445 3.656-1.486.005-.818.909-1.649 2.009-1.847 2.888-.521 4.323-2.155 1.95-2.221-1.073-.03-5.55-.432-9.95-.894-4.4-.463-8.225-.489-8.5-.059-.275.431-2.3.473-4.5.095l-4-.687 4.138-.694c2.275-.382 8.943-.211 14.817.38 5.874.591 11.353.817 12.176.501 2.292-.879.599-2.588-2.565-2.588-4.196 0-9.098-1.139-8.571-1.991.254-.412 2.384-.377 4.733.078 6.673 1.29 16.011 1.129 15.545-.268-.217-.65-1.938-1.701-3.825-2.336-5.19-1.748-1.47-2.343 5.535-.886 5.248 1.092 5.769 1.07 4.076-.172-1.651-1.212-1.693-1.425-.285-1.425.911 0 3.584.636 5.941 1.414 2.357.778 9.01 1.585 14.785 1.795 5.775.21 11.4.874 12.5 1.477 1.1.603 4.598 1.847 7.773 2.764 3.175.917 5.514 2.085 5.198 2.597-.316.511.083.678.886.369.804-.308 3.077-.114 5.052.431 2.132.589 3.591.618 3.591.072 0-.505-.787-.926-1.75-.934-1.39-.012-1.465-.196-.366-.892.761-.482 2.674-.507 4.25-.055 4.12 1.182 3.555.532-2.116-2.433-5.116-2.676-9.416-3.272-11.966-1.658-1.138.72-.884 1.057 1.193 1.578 1.453.365 3.186.326 3.853-.085.77-.477.952-.329.497.405-1.018 1.648-3.267 1.37-10.095-1.251l-6-2.302 7.148.061c4.295.037 7.742-.432 8.638-1.175 1.642-1.363 8.764-.681 12.214 1.169 2.728 1.463 7.203 1.942 7.881.845.306-.495-.583-1.419-1.976-2.053-1.483-.676-2.274-.737-1.91-.147 1.032 1.67-.684 1.132-1.961-.615-.69-.943-2.871-1.717-5.213-1.849-4.856-.275-6.646-1.239-5.901-3.181.307-.798.165-1.209-.314-.912-.479.296-3.47-.356-6.645-1.448-7.164-2.465-9.076-2.552-4.461-.202 1.925.98 3.376 2.363 3.225 3.074-.191.896.383 1.083 1.875.609 1.586-.503 1.946-.351 1.371.579-.505.817-.376 1.012.367.553.63-.389 1.874-.301 2.764.197 2.79 1.562-1.369 2.435-5.347 1.122-2.516-.83-3.736-.838-4.547-.027-1.364 1.364-5.722 1.434-9.107.146-1.62-.616-2.744-.616-3.125 0-.327.529-1.332.962-2.235.962-1.266 0-1.37-.271-.454-1.187.725-.725 3.873-1.119 8.089-1.013 4.554.114 7.261-.26 7.957-1.099.783-.943.618-1.288-.638-1.332-.932-.033-3.448-.417-5.59-.853-2.823-.575-3.701-.48-3.191.346.447.723-.139 1.151-1.605 1.173-1.27.02-3.434.679-4.809 1.465-3.368 1.925-4.844 1.876-2.441-.082 1.914-1.559 1.913-1.571-.059-.881-2.583.905-3.128.904-8.5-.02-4.943-.851-5.944-.856-14-.071-6.336.617-5.254.592-23.406.552-7.648-.016-16.423.42-19.5.969-3.412.609-8.13.664-12.094.142l-6.5-.855 5.5-.227c4.362-.18 4.983-.392 3-1.027-2.193-.702-2.018-.813 1.417-.9 5.937-.151 3.961-.775-4.417-1.394-5.079-.375-6.532-.272-4.5.321 2.913.849 2.892.867-.75.625-3.67-.245-4.984.656-2.5 1.713.688.293-1.9.295-5.75.004-5.101-.384-6.593-.239-5.5.537.924.655 1.043 1.069.309 1.079-.655.008-1.469-.435-1.809-.985-.34-.55-2.244-1-4.23-1-1.987 0-4.327-.646-5.2-1.436-.873-.79-3.833-1.899-6.578-2.464-4.562-.939-4.26-.989 3.508-.58 5.659.299 7.782.143 6.352-.466-4.087-1.739-3.927-3.321.271-2.693 2.133.32 6.577.847 9.877 1.172 3.3.325 7.35.787 9 1.027 2.439.353 2.626.261 1-.492-1.416-.657-1.562-.968-.5-1.068 3.313-.31-2.696-1.862-7.5-1.937-2.75-.043-7.925-.583-11.5-1.199-3.575-.617-7.288-1.091-8.25-1.055-.962.037-1.75-.355-1.75-.871S53.527 62 54.171 62s1.966-.719 2.938-1.599c1.353-1.224 1.553-2.161.853-4-.502-1.32-.586-2.408-.187-2.416.399-.009.05-.452-.775-.985-.825-.533-1.01-.976-.412-.985.598-.008 1.15-1.654 1.225-3.657.075-2.002.369-3.873.652-4.156.283-.284 4.907.552 10.275 1.856 5.368 1.305 10.66 2.427 11.76 2.494 1.1.067 3.8.643 6 1.279 4.858 1.406 6.51 1.468 4.5.169-.825-.533-1.024-.976-.441-.985.582-.008 1.932.651 3 1.466 1.68 1.282 1.739 1.616.441 2.485-.825.552-2.175 1.003-3 1.003-1.333 0-1.333-.107 0-.969.861-.556 1.002-.976.332-.985-.643-.008-1.954-.316-2.914-.685-1.191-.457-1.516-.298-1.023.5.447.723.032 1.194-1.086 1.233-1.337.047-1.157.325.691 1.065 1.375.551 3.513.81 4.75.575 1.237-.234 2.25-.038 2.25.436 0 .473 1.65.861 3.667.861 7.531 0 2.3 1.009-7.746 1.494C79.23 58.011 75 58.702 75 59.934c0 .758 25.173.362 33.75-.531 6.138-.639 6.835-2.028 1.5-2.986-5.594-1.005-7.017-2.008-3.942-2.779 1.407-.354 2.837-1.519 3.177-2.589.735-2.317 3.86-3.515 6.018-2.307 1.225.685.667 1.356-2.7 3.249-4.242 2.383-4.243 2.386-1.769 3.447 1.361.584 3.111 1.473 3.889 1.975.778.502 3.627 1.091 6.331 1.308 2.705.216 6.033.818 7.397 1.336 1.363.519 3.912.925 5.664.903 2.968-.038 2.81-.205-2.315-2.46-3.025-1.331-6.314-2.438-7.309-2.46-.995-.022-1.54-.475-1.211-1.007.329-.532 2.043-.679 3.809-.326 3.823.763 21.546 8.026 27.211 11.15 5.254 2.898.6 1.688-5.717-1.487-3.07-1.542-6.387-2.354-9.5-2.325l-4.783.045 3 1.395c2.776 1.292 2.366 1.363-5.5.963-5.749-.293-8.015-.116-7 .544.825.538 2.625 1 4 1.028 1.375.028 3.625.694 5 1.48l2.5 1.429-2.5.146c-1.375.081-3.512.064-4.75-.036-1.422-.115-2.25.375-2.25 1.33 0 1.948.671 2.321 5.508 3.058 3.125.477 3.503.395 1.742-.377-2.491-1.091-3.139-2.328-.737-1.407.832.32 2.069.137 2.75-.405 1.57-1.253 7.737-2.146 7.737-1.122 0 .423 2.21.752 4.912.731 2.702-.02 5.908.278 7.125.665 1.615.512 2.008.37 1.454-.527-.583-.943.726-1.104 5.625-.691 3.511.296 6.834.665 7.384.82 2.104.595 10.514-1.283 9.936-2.218-.367-.593.381-.729 1.907-.346 1.38.346 5.018.731 8.084.855 4.257.172 5.573-.11 5.573-1.197 0-.877-.597-1.193-1.558-.824-.857.329-3.306-.294-5.442-1.384-2.136-1.09-4.489-1.75-5.227-1.466-.739.283-2.262-.341-3.384-1.386-1.123-1.046-3.357-2.614-4.965-3.485-4.329-2.343-1.009-2.002 3.651.375 2.431 1.241 3.722 2.482 3.296 3.17-.464.752-.119.909 1.028.469.95-.365 3.084.039 4.742.896s4.217 1.703 5.687 1.879c1.469.176 3.036.371 3.481.434.445.063.531.564.191 1.114-.34.55-.029 1.052.691 1.115 4.287.378 11.628 2.783 12.423 4.07.469.758 0 .947-1.421.576-1.22-.319-2.62.048-3.298.865-.962 1.159-.847 1.293.628.727 1.339-.514 1.594-.351.987.632-.547.884-.433 1.085.344.605 1.636-1.011 5.316.326 4.506 1.637-.407.659-.2.792.529.341.659-.407 1.741-.331 2.405.169 1.673 1.261 5.894 1.377 5.13.141-.34-.551-1.762-1.436-3.16-1.968-1.398-.531-2.298-1.21-2-1.508.298-.298 2.273.326 4.389 1.387 2.116 1.06 6.185 2.193 9.043 2.516 2.858.323 6.514 1.269 8.123 2.102 1.61.832 3.189 1.252 3.508.932.876-.876-8.655-9.42-9.955-8.925-.621.236-1.604-.046-2.186-.628-.743-.743-1.514-.6-2.596.481-1.377 1.377-1.378 1.6-.012 2.124.946.363 1.27.172.853-.502-.476-.772-.071-.767 1.393.017 1.135.607 2.381 1.665 2.767 2.349.555.984.421.983-.644-.005-1.601-1.486-3.324-1.67-2.454-.261.886 1.433-2.607.042-4.993-1.989-3.089-2.629-4.966-3.562-3.99-1.985.619 1.003.353 1.135-1.096.546-1.053-.429-2.814-.898-3.914-1.043-1.1-.144-2.332-.32-2.738-.39-.406-.071-.631-1.122-.5-2.337.16-1.482-.345-2.271-1.532-2.398-1.211-.13-1.29-.041-.25.282 1.681.522 2.003 1.908.639 2.751-.484.3-2.571-.799-4.637-2.441-3.941-3.131-5.021-3.666-3.97-1.966.346.561-.795.223-2.537-.75s-3.082-2.188-2.978-2.7c.103-.512-1.428-1.76-3.404-2.774-1.976-1.013-3.593-2.255-3.593-2.76 0-1.646 2.147-2.291 3.337-1.001.905.98.83 1.099-.337.537-.825-.398-.441.208.854 1.347s2.757 1.822 3.25 1.518c.493-.305.952-.077 1.021.505.303 2.564.415 2.932 1.101 3.619.4.399 1.01-.011 1.355-.911.346-.901 1.144-1.382 1.774-1.069.63.313.271-.14-.796-1.006-2.267-1.838-1.758-1.967 2.126-.538l2.815 1.036-3-2.5c-1.65-1.375-3.289-2.516-3.643-2.536-.354-.02-.903-.712-1.22-1.539-.484-1.263-.172-1.238 1.953.154 2.362 1.548 2.642 1.544 4.22-.051 1.588-1.605 1.57-1.669-.31-1.06-1.426.463-1.617.374-.666-.307 1.086-.777 1.041-1.067-.238-1.558-.865-.332-1.465-.282-1.334.111.131.393-.212.714-.762.714s-.893-.321-.762-.714c.131-.393-.319-.51-1-.26-1.454.533-3.528-.577-11.415-6.111-3.203-2.247-6.498-4.349-7.323-4.671-1.025-.4-.797-.611.719-.665 1.506-.054 2.04-.543 1.664-1.523-.381-.992.086-1.396 1.488-1.291 1.124.085 1.82.377 1.548.649-.272.273.985 1.319 2.793 2.325 2.653 1.476 2.805 1.709.788 1.206-2.134-.532-1.987-.266 1 1.812 1.925 1.34 5.75 3.657 8.5 5.151 2.75 1.493 5.675 3.475 6.5 4.404.825.928 2.376 1.841 3.446 2.027 1.745.304 1.8.149.53-1.5-1.869-2.429 3.668 2.186 7.358 6.131 1.559 1.666 2.545 2.468 2.191 1.78-.393-.764.023-1.25 1.071-1.25 1.6 0 1.597-.129-.053-1.953-1.705-1.884-1.679-1.975.752-2.585 1.385-.348 3.424-.147 4.531.445 1.42.76 2.117.763 2.368.011.195-.586 1.605.093 3.132 1.508 2.977 2.76 4.67 3.479 2.755 1.171-.895-1.077-.865-1.507.127-1.854.958-.334.776-1.071-.701-2.847l-1.993-2.396 2.669 2.355c1.468 1.295 3.17 2.045 3.783 1.666s2.029.474 3.147 1.895c2.048 2.604 4.632 3.657 3.274 1.334-.402-.687.247-.393 1.441.655 2.401 2.106 2.858 3.1.922 2.007-.98-.553-.989-.424-.042.599.893.965 1.554 1.016 2.541.197 1.019-.846 1.656-.588 2.703 1.093 1.25 2.007 1.225 2.079-.291.827-2.53-2.091-1.981.01.61 2.334 1.249 1.121 1.834 1.701 1.3 1.288-2.159-1.668-2.786-.603-.883 1.5 1.12 1.237 2.295 3.375 2.611 4.75l.574 2.5-1.686-2.378C248.4 68.783 245.088 66 242.518 66c-1.615 0-2.38.414-1.976 1.068.363.588 1.257.839 1.986.56 1.385-.532 2.766.755 3.729 3.475.434 1.228-.008 1.539-1.893 1.333-1.353-.149-3.199-.87-4.104-1.603-1.177-.955-1.431-.978-.893-.083.422.702.261 1.25-.367 1.25-.615 0-.819.483-.454 1.074.365.59-.284.482-1.441-.241-1.158-.723-2.105-1.711-2.105-2.196 0-.485.748-.264 1.663.491 1.425 1.176 1.592 1.158 1.167-.128-.273-.825-1.358-1.581-2.413-1.679-1.054-.098-3.042-.418-4.417-.71l-2.5-.532 2.5 2.093c1.375 1.151 2.383 2.495 2.241 2.988-.143.493.532 1.197 1.5 1.565.967.368 2.544 1.66 3.503 2.872 1.811 2.288 7.15 4.676 8.171 3.655 1.026-1.026.646-2.026-1.931-5.089-2.502-2.973-1.3-3.915 1.757-1.378.794.659 1.777.864 2.184.456.408-.407.651-.291.54.259-.545 2.702.417 3.482 5.057 4.097 2.763.367 5.195.945 5.404 1.285.663 1.073-4.867.99-6.176-.093-.864-.714-1.25-.708-1.25.02 0 .58 1.352 2.017 3.004 3.194 2.614 1.861 3.083 1.935 3.607.568.332-.864 1.06-1.571 1.618-1.571.599 0 .52.597-.193 1.456-.664.801-.949 1.875-.633 2.387.316.512-.105 1.495-.936 2.184-1.324 1.099-1.238 1.445.699 2.801 1.596 1.119 2.318 1.219 2.605.36.745-2.235 2.115-1.186 4.884 3.74 1.523 2.71 3.124 4.708 3.557 4.441.434-.268.788.033.788.668s.931 2.461 2.068 4.059c1.468 2.061 1.686 2.927.75 2.983-.725.044-3.793.28-6.818.525-3.025.246-6.552.191-7.838-.12-1.973-.478-2.139-.806-1.065-2.101 1.035-1.247 1.027-1.688-.039-2.347-.768-.475-.985-1.345-.522-2.094.568-.919.31-1.097-.91-.629-1.052.404-1.918.09-2.269-.824-.311-.813-.969-1.229-1.462-.924-.492.304-.902-.036-.91-.756-.011-.951-.281-.899-.985.191-.533.825-.976 4.918-.985 9.095-.017 8.363-.647 9.474-7.045 12.408-3.188 1.462-3.243 1.558-.685 1.176 3.142-.468 4.491 1.282 4.099 5.321-.5 5.163.351 6 6.104 6 5.215 0 5.373-.084 6.123-3.25.424-1.787.673-3.621.555-4.074-.119-.454.218-.557.748-.229.53.327 1.427-.202 1.994-1.176.974-1.674 1.033-1.675 1.062-.021.016.963-.468 1.75-1.077 1.75s-.853.661-.544 1.468c.31.807.133 1.734-.393 2.059-1.51.934-1.113 3.473.544 3.473.944 0 1.5-.952 1.5-2.571 0-1.415.675-3.247 1.5-4.072 1.036-1.036 1.5-1.12 1.5-.273 0 .774.738.558 2-.584 1.1-.995 2-1.398 2-.896 0 .503-.841 1.44-1.869 2.082-1.029.643-2.07 2.213-2.314 3.491-.367 1.921 0 2.345 2.119 2.447 1.41.067 2.053-.065 1.429-.295-1.705-.629.383-4.367 4.053-7.255 1.695-1.335 2.539-1.827 1.875-1.094-1.798 1.987 2.282 7.618 4.305 5.939.968-.804 1.402-.826 1.402-.073 0 .6.693.825 1.541.5.981-.376 1.435-.092 1.25.781-.226 1.066 1.698 1.438 8.616 1.664 7.49.245 8.724.072 7.758-1.092-.631-.761-.933-1.597-.672-1.859.262-.262.563-3.708.669-7.658.155-5.748.507-7.196 1.766-7.252 1.382-.062 1.388-.153.051-.75-2.388-1.067-1.74-3.641 1.021-4.055 2.346-.351 2.377-.429.5-1.269-1.52-.68-1.22-.776 1.25-.4 1.788.272 3.25.145 3.25-.281 0-1.409-2.369-3.175-4.259-3.175-1.022 0-1.581-.45-1.241-1 .34-.55 1.829-.964 3.309-.921 1.48.043 2.101.315 1.38.604-1.019.407-.929.947.405 2.421 2.551 2.818 5.406 2.468 5.406-.663 0-1.56.417-2.301 1.068-1.899.588.363.844 1.245.569 1.961-.278.725.382 1.53 1.493 1.821 2.345.613 3.349-1.281 2.491-4.699-.413-1.644-1.594-2.602-3.858-3.128-2.127-.495-2.672-.909-1.566-1.191 2.344-.597 1.774-7.874-.601-7.667-1.614.14-1.642-1.958-.078-5.889.534-1.342.192-1.75-1.467-1.75-2.057 0-2.03-.114.561-2.343 2.308-1.985 2.697-3.054 2.548-7-.18-4.754.679-5.761 2.766-3.246.801.965.839 1.616.123 2.059-.577.356-1.049 1.127-1.049 1.711 0 .704.475.67 1.403-.1 1.077-.894 1.523-.865 1.921.127.285.711.582.167.66-1.208l.143-2.5.957 2.392c.773 1.934.569 2.663-1.067 3.809-1.649 1.155-1.823 1.792-.94 3.443.934 1.746 1.888 1.979 6.911 1.691 3.205-.184 5.617.003 5.36.415-.256.412-3.027.75-6.157.75-5.21 0-5.698.19-5.777 2.25-.048 1.237-.449 3.078-.892 4.09-.671 1.533-.406 1.788 1.586 1.527 1.316-.173 2.522.124 2.682.66.159.535-.741 1.124-2 1.308-3.546.518-4.095 1.674-2.375 5 .872 1.686 1.585 4.213 1.585 5.615 0 1.403.477 2.55 1.059 2.55s.737.521.343 1.159c-.529.856.906.989 5.494.51 3.82-.4 5.985-.285 5.625.297-.322.521-1.2.711-1.952.422-.752-.288-1.664-.044-2.027.544-.413.668.484 1.068 2.399 1.068 2.759 0 3.059-.306 3.059-3.122 0-2.652.225-2.936 1.488-1.888 2.122 1.761 3.176-1.392 1.739-5.2-.835-2.211-.814-2.82.086-2.525.653.214 1.328 2.067 1.501 4.118.174 2.072.949 3.973 1.744 4.278 1.518.582 1.011 2.339-.676 2.339-.55 0-.679-.52-.287-1.155.433-.699.276-.883-.397-.467-.611.377-.851 1.363-.534 2.19.461 1.2 1.818 1.393 6.707.956 4.22-.377 5.506-.255 4.129.394-1.726.812-1.76.951-.25 1.012.962.038 1.75.52 1.75 1.07 0 1.933 3.678.972 6.076-1.588l2.424-2.589-4 .599c-2.898.434-3.449.34-2-.341 1.1-.517 3.425-.972 5.167-1.011 1.741-.038 3.324-.543 3.517-1.121.213-.641 3.074-.932 7.333-.747l6.983.304-5 .762c-7.045 1.075-12.783 3.014-13.261 4.483-.268.827.215 1.04 1.427.631 1.009-.341.17.559-1.863 1.999-3.878 2.747-5.34 3.298-4.303 1.619.91-1.472-.828-1.216-3.059.451-1.237.925-3.21 1.26-5.441.925-1.925-.289-4.625-.1-6 .42-1.695.641-3.868.536-6.748-.327-2.337-.7-4.033-.924-3.77-.498.264.426-2.147 1.072-5.356 1.435-6.425.727-8.627 3.007-7.043 7.29.809 2.187.918 2.195 22.947 1.852 19.444-.304 21.806-.176 19.438 1.053-1.483.769-3.742 1.399-5.02 1.399-1.73 0-2.284.527-2.169 2.06.118 1.556.652 1.926 2.188 1.513 1.118-.3 2.397-.552 2.842-.559.445-.008.557-.422.249-.92-.704-1.139 8.923-2.533 10.55-1.527.785.485.939.318.444-.483-.416-.673-1.723-1.626-2.904-2.117-3.262-1.356 6.045.07 10.852 1.663l4 1.325-5-.449c-2.75-.247-4.437-.199-3.75.106 2.644 1.174 1.09 2.202-1.993 1.318-3.28-.94-9.397-.322-10.235 1.035-.251.406 12.129.794 27.511.862 17.603.079 27.967-.237 27.967-.851 0-.537-.612-.976-1.359-.976-.86 0-1.687-1.928-2.25-5.25l-.891-5.25-5.5-.503-5.5-.503 5.853-.768c3.219-.422 8.056-.475 10.75-.118l4.897.65V67h-2.567c-2.113 0-2.455-.355-1.933-2 .769-2.424-1.62-2.765-3.5-.5-.685.825-1.874 1.5-2.644 1.5-.769 0-1.87 1.013-2.446 2.25-.576 1.238-2.12 3.043-3.432 4.012l-2.386 1.762.393-3.107c.424-3.351 1.868-4.82 7.885-8.021l3.87-2.059-2.835-1.471c-2.386-1.237-3.906-1.279-9.584-.265-3.712.664-6.54 1.545-6.284 1.959.256.415-.435.518-1.536.23-2.462-.644-2.549.399-.258 3.131 1.327 1.583 1.101 1.513-.949-.298-2.928-2.584-6.185-2.307-5.132.438.554 1.445.372 1.478-1.548.288-1.855-1.15-2.316-1.128-3.129.151-.525.825-.961 1.166-.97.758-.018-.899-7.914 2.067-10.015 3.763-.825.666-2.813 1.523-4.419 1.906-1.605.383-3.855 1.392-5 2.242-2.027 1.507-2.01 1.531.669.92 4.464-1.018 3.146.119-2.195 1.893-3.819 1.268-4.825 2.026-4.42 3.33.303.973-.475.526-1.837-1.055-2.085-2.422-2.735-2.635-5.559-1.826-5.334 1.53-11.301 5.289-10.306 6.491.599.724-.098 1.15-2.122 1.296l-3.014.217 4.351-3.276c3.91-2.944 6.463-4.216 12.145-6.05 1.45-.468 1.589-.961.727-2.572-.872-1.629-.789-1.885.457-1.408.838.322 1.523 1.157 1.523 1.856 0 2.2 2.813 3.915 4.342 2.646.738-.612 1.71-.78 2.16-.372.45.407.521.221.157-.415-.363-.636-1.673-.968-2.91-.739-1.237.229-1.574.129-.749-.224 7.714-3.295 12-5.748 12-6.867 0-1.531-3.801-.611-10.171 2.462-3.636 1.754-3.664 1.752-2.908-.291.42-1.135 1.827-2.766 3.128-3.624 1.83-1.208 2.171-1.243 1.504-.156-.551.897-.49 1.174.169.767.567-.351 1.047-2.333 1.066-4.405.06-6.606.192-7.397 1.143-6.81.512.317 1.218.111 1.569-.457 1.087-1.758 2.5-.029 2.5 3.059 0 1.72.53 2.941 1.277 2.941 2.12 0 5.804-3.06 5.085-4.223-.401-.648-.206-.799.483-.372 1.9 1.174 1.315 3.171-1.345 4.595-3.109 1.664-3.299 3.231-.255 2.105 1.507-.557 2.983-.347 4.492.642 1.984 1.3 2.689 1.294 6.005-.049 3.726-1.51 3.451-2.152-1.242-2.9-1.186-.189-2.131-1.236-2.321-2.573-.177-1.24-.773-1.976-1.324-1.635-.552.341-.434-.291.261-1.404 1.024-1.639 1.014-2.324-.049-3.605-1.662-2.003-4.008-2.011-6.846-.023-3.781 2.648-4.431.507-.871-2.87 1.848-1.754 3.966-4.875 4.706-6.938 1.858-5.178 3.129-4.7 2.371.892l-.63 4.643 4.852-.621c2.668-.341 11.443-.921 19.499-1.289l14.649-.669 1.632 3.157c.898 1.737 1.282 3.1.852 3.029-2.654-.438-7.281.266-7.281 1.108 0 .55.702 1 1.559 1s1.279.453.937 1.007c-.824 1.333 2.046 2.383 4.226 1.546 1.336-.512 1.429-.842.416-1.468-1.047-.647-1.016-.918.156-1.368.804-.308 1.946-.077 2.537.514.766.766 1.092-6.718 1.135-26.078L420.026 0h-13.12c-12.095 0-13.065.137-12.422 1.75.384.963 1.753 4.832 3.041 8.598 1.289 3.767 3.048 7.627 3.909 8.579.861.952 1.566 2.273 1.566 2.935 0 .662 1.155 3.484 2.567 6.271 1.412 2.786 2.275 5.359 1.917 5.716-.358.358-5.226.682-10.818.72-5.591.037-12.753.427-15.916.865-6.166.854-6.474.602-4.764-3.898.768-2.019.555-3.399-.96-6.226-1.07-1.997-1.757-3.935-1.527-4.308.535-.866-6.446-7.523-8.723-8.317-1.269-.443-2.932.969-6.308 5.357C355.946 21.319 353.7 24 353.475 24c-.62 0 5.496-8.864 6.578-9.533 1.786-1.103.946-2.467-1.518-2.467-5.107 0-11.65 8.575-13.926 18.25-.894 3.8.196 3.453 4.709-1.5l3.872-4.25-4.095 5.139c-2.252 2.826-4.095 6.115-4.095 7.309 0 1.292-.435 1.901-1.074 1.506-.591-.365-2.231.396-3.644 1.691l-2.57 2.355 1.647-2.58c2.376-3.72.784-4.413-2.72-1.184L333.64 41.5l2.234-3.5c3.383-5.3 4.523-7.936 3.763-8.696-.96-.96-7.901 1.682-9.248 3.52-.936 1.278-1.911.676-6.224-3.846-2.813-2.949-5.415-5.062-5.782-4.694-.367.367-.07 1.388.66 2.268.784.945.945 1.877.393 2.274-2.22 1.599-5.436 7.298-5.436 9.634 0 1.397-.486 2.427-1.08 2.29-.595-.138-1.677.65-2.405 1.75-1.59 2.401-.358 6.5 1.953 6.5.842 0 1.532.477 1.532 1.059s-.385.821-.856.53c-.47-.291-.641.59-.38 1.956.689 3.603 2.246 4.082 4.376 1.349 1.56-2.001 1.496-1.549-.387 2.748-1.239 2.828-2.594 4.937-3.01 4.686-.416-.25-1.066.361-1.444 1.359-.378.997-1.306 2.439-2.062 3.203-.756.765-2.068 2.449-2.915 3.742-.848 1.293-2.011 2.06-2.586 1.705-.577-.357-.75-.169-.387.418.798 1.291-.215 4.245-1.456 4.245-1.678 0-.896-3.367 1.357-5.847 1.238-1.361 1.618-2.108.845-1.66-.972.565-1.173.441-.652-.4.413-.669 1.833-1.627 3.154-2.13 1.322-.502 2.403-1.586 2.403-2.407 0-.887-.583-1.269-1.435-.942-1.068.409-1.413-.248-1.347-2.568.081-2.849.333-3.079 2.931-2.67 1.563.246 3.058.098 3.323-.33.643-1.041-2.95-4.235-3.803-3.382-.368.368-.669-.531-.669-1.997 0-3.561-2.726-3.519-4.087.063-.571 1.501-1.422 2.967-1.892 3.257-1.821 1.126-9.02 16.09-9.01 18.728.021 5.421 1.247 10.4 2.448 9.939.886-.34.921.373.14 2.869-.572 1.828-1.503 3.099-2.07 2.826-.566-.274-.175.197.868 1.045 1.044.848 2.326 1.277 2.85.953.524-.323.402.439-.27 1.696l-1.222 2.284-1.964-2.414c-1.081-1.327-1.674-1.85-1.319-1.163 1.28 2.476-1.145 1.184-3.334-1.778-2.247-3.038-4.138-3.185-4.138-.319 0 .844.9 1.77 2 2.057 2.365.619 2.6 1.846.506 2.649-2.22.852-5.498 6.745-5.502 9.891-.002 1.513-.259 2.75-.57 2.75-1.679 0-4.369-2.317-6.605-5.69-10.802-16.295-11.154-17.229-8.079-21.432 2.74-3.746 4.25-6.717 4.25-8.364 0-.833.502-1.514 1.117-1.514.634 0 .921-1.02.665-2.361-.31-1.621-.003-2.327.979-2.25.787.061 2.4-1.789 3.585-4.111 2.632-5.159 3.635-5.384 3.462-.778-.073 1.925-.622 3.506-1.22 3.513-.598.007-2.393 2.73-3.987 6.051-2.149 4.474-2.608 6.329-1.774 7.163.834.834 1.605.692 2.978-.551 1.019-.922 2.38-1.676 3.024-1.676.644 0 1.171-.45 1.171-1s-.477-1-1.059-1-.776-.457-.431-1.016c.346-.559 1-.787 1.454-.506 1.011.624 2.255-2.315 1.498-3.539-.835-1.351 2.497-7.121 3.847-6.661 1.706.58 11.359-13.662 13.803-20.366 1.136-3.115 3.859-7.834 6.051-10.487 2.192-2.652 5.126-6.769 6.52-9.147 4.037-6.889 7.339-7.965 28.734-9.366 7.654-.502 14.111-1.107 14.349-1.344.238-.238-.809-2.713-2.326-5.5L351.682 0h-38.758c-30.07 0-38.87.28-39.262 1.25-.403 1-.52 1-.583 0C273.027.427 271.291 0 268 0c-4.381 0-5 .255-5 2.059 0 1.132-.437 1.789-.971 1.459-.534-.33-1.272.6-1.64 2.067-.575 2.29-.802 2.429-1.613.98-.519-.928-.695-2.334-.391-3.126.304-.791.206-1.439-.216-1.439-1.388 0-3.023 2.218-2.548 3.456.286.743-.416 1.18-1.815 1.128-1.912-.07-2.502.726-3.643 4.916-2.343 8.608-2.409 10.124-.591 13.618 1.845 3.543 2.704 9.171 1.265 8.281-.46-.284-.837-1.413-.837-2.508s-.64-3.228-1.422-4.74c-1.283-2.481-1.986-2.766-7.19-2.915-3.172-.091-6.326.298-7.008.864-1.674 1.389-3.243-1.667-2.813-5.48.178-1.583-.041-4.835-.488-7.226s-.461-4.13-.031-3.864c1.309.809 1.702-1.868.701-4.78C230.863.17 230.442 0 224.936 0h-5.869l2.066 3.5m28.489-.75c.941 3.926 1.378 4.058 1.378.417C251 1.425 250.541 0 249.981 0c-.605 0-.751 1.117-.359 2.75M259.5 1c.34.55.816 1 1.059 1s.441-.45.441-1-.477-1-1.059-1-.781.45-.441 1m-45.246 8.779c-.486 1.267-.89 1.153-2.364-.666-1.768-2.184-1.775-2.175-1.333 1.596.428 3.652.408 3.681-.541.791-.541-1.65-.756-3.724-.478-4.609.279-.885-.178-2.177-1.015-2.872-.838-.695-1.523-1.75-1.523-2.344 0-.595 1.764.642 3.921 2.747 2.47 2.413 3.703 4.394 3.333 5.357M57.015 6.25c.022 3.224 1.265 4.752 4.315 5.305 1.468.266 6.742 2.277 11.721 4.468 8.729 3.84 13.595 4.55 16.96 2.47.592-.366 1.726-.126 2.52.533 1.516 1.258 4.469.682 4.469-.871 0-1.033-9.947-5.541-10.658-4.83-.255.255 1.604 1.253 4.13 2.217 2.526.965 4.82 2.122 5.098 2.571.277.449-1.185.11-3.248-.752-2.328-.972-3.882-1.182-4.091-.553-.369 1.105-10.168-2.791-10.207-4.058-.035-1.097 1.755-.916 2.476.25.34.55 1.142 1 1.782 1 .639 0 .125-.727-1.144-1.616-1.576-1.104-2.631-1.291-3.332-.59-.702.702-3.794-.369-9.771-3.384-4.81-2.425-9.26-4.41-9.89-4.41-.63 0-1.138 1.012-1.13 2.25m217.701 7.5c-.229 1.513-.416.275-.416-2.75s.187-4.262.416-2.75c.229 1.513.229 3.988 0 5.5m-16.731-1.941c.008.72-.435 1.031-.985.691-.55-.34-.993-1.604-.985-2.809.013-1.781.197-1.91.985-.691.533.825.976 2.089.985 2.809m12 1.5c.008.445-.435.531-.985.191s-.993-1.379-.985-2.309c.014-1.457.15-1.484.985-.191.533.825.976 1.864.985 2.309M26 16c0 4.649 1.189 6.637 2.242 3.75.704-1.929-.35-8.75-1.351-8.75-.49 0-.891 2.25-.891 5m271.548.907c-2.197 4.248-2.909 3.918-.853-.394.915-1.919 1.841-3.31 2.058-3.093.217.217-.325 1.786-1.205 3.487m11.969-1.879c.349.565-.654 2.252-2.23 3.75-3.709 3.525-6.743 7.959-8.02 11.722-.904 2.666-.983 2.421-.703-2.193.174-2.857 1.069-6.344 1.991-7.75.921-1.406 1.329-2.557.905-2.557-.423 0 .045-.9 1.04-2 1.924-2.126 5.959-2.685 7.017-.972M60 16c-.901.582-1.025.975-.309.985.655.008 1.469-.435 1.809-.985.767-1.242.421-1.242-1.5 0m3 2c.825.533 2.175.945 3 .914.989-.036.819-.347-.5-.914-2.749-1.181-4.328-1.181-2.5 0m-5.41 1.375c.744 1.939 7.958 5.011 9.573 4.077.756-.437.988-.39.533.109-1.239 1.357 8.986 4.492 11.555 3.542 1.865-.69 1.404-1.057-3.291-2.615-3.003-.998-7.71-2.861-10.46-4.141-5.705-2.656-8.697-3.023-7.91-.972M87 21c-1.165.753-.872.973 1.309.985 1.615.008 2.546.44 2.191 1.015-.34.55-.029 1.006.691 1.014.72.007 2.322.285 3.559.616 1.654.444 2.25.175 2.25-1.013C97 22.569 96.14 22 94.559 22c-1.343 0-2.719-.45-3.059-1-.776-1.256-2.556-1.256-4.5 0m-13 1c.825.533 1.95.969 2.5.969s.325-.436-.5-.969c-.825-.533-1.95-.969-2.5-.969s-.325.436.5.969m124 2.101c0 .341 1.177 2.37 2.616 4.509l2.615 3.89-2.615-2.424c-2.362-2.19-3.121-2.12-2.71.248.176 1.013-1.159.214-6.733-4.03-4.054-3.087-4.164-3.294-1.75-3.294 1.57 0 2.577.56 2.577 1.433 0 .788.9 1.718 2 2.067 1.1.349 2 1.081 2 1.626 0 .546.484.693 1.075.328.694-.429.34-1.448-1-2.874-2.772-2.95-2.819-5.062-.075-3.348 1.1.687 2 1.528 2 1.869m-140.481-.132c-.303.491-.046 1.205.571 1.587.799.494.74.931-.204 1.515-.731.451-1.116 1.02-.857 1.263 1.217 1.145 20.224 6.628 21.099 6.087.547-.338 3.241.352 5.986 1.533 4.905 2.11 9.593 1.999 8.236-.196-.435-.705-.083-.869.986-.459.915.351 1.664.293 1.664-.129 0-.423-1.582-1.34-3.516-2.039-1.933-.7-3.257-1.69-2.941-2.201.53-.857-1.158-1.322-4.328-1.193-.986.04-1.016-.272-.128-1.342.637-.767 1.89-1.432 2.785-1.477 1.767-.088-2.816-2.284-6.872-3.292-1.375-.342-.7.221 1.5 1.252l4 1.873-3.761.738c-2.069.406-4.004 1.132-4.302 1.613-.297.481.231.579 1.175.217 1.131-.434 1.48-.276 1.022.464-.401.649.478 1.757 2.086 2.629 5.21 2.826 1.587 1.596-8.825-2.996C58.57 23.1 58.149 22.95 57.519 23.969M113 24c.825.533 1.05.969.5.969s-1.675-.436-2.5-.969c-.825-.533-1.05-.969-.5-.969s1.675.436 2.5.969m117.345 1.543c-.326.849-.807 1.329-1.069 1.067-.262-.262-.18-.957.183-1.543.986-1.596 1.562-1.286.886.476m46.585 5.374c.113 3.898-1.358 1.331-1.561-2.723-.14-2.804.017-3.212.653-1.694.46 1.1.869 3.087.908 4.417M163 26.378c0 .207.685.946 1.523 1.641 1.273 1.057 1.42.995.893-.378-.538-1.401-2.416-2.384-2.416-1.263m3.733.746c.679.684 1.486.991 1.793.683.308-.308-.247-.867-1.233-1.243-1.425-.542-1.54-.428-.56.56M65.526 28.807c-.307.308-1.114.001-1.793-.683-.98-.988-.865-1.102.56-.56.986.376 1.541.935 1.233 1.243M90 28c.825.533 1.95.969 2.5.969s.325-.436-.5-.969c-.825-.533-1.95-.969-2.5-.969s-.325.436.5.969m-16.5 3.55c2.75 1.335 3.875 2.15 2.5 1.812-2.866-.706-10.008-4.282-8.5-4.256.55.009 3.25 1.109 6 2.444m16.583-1.177C91.607 31.736 97 33.881 97 33.124c0-.511-1.417-1.422-3.149-2.026-3.253-1.134-4.491-1.372-3.768-.725m52.443 1.434c-.307.308-1.114.001-1.793-.683-.98-.988-.865-1.102.56-.56.986.376 1.541.935 1.233 1.243m38.474.162c0 .532-.675.709-1.5.393-.825-.317-1.5-.753-1.5-.969 0-.216.675-.393 1.5-.393s1.5.436 1.5.969M88 33c1.333.862 1.333.975 0 1.02-.908.031-.513.615 1 1.48 1.375.786 2.05 1.429 1.5 1.429-1.716 0-6.131-2.854-4.5-2.909 1.333-.045 1.333-.158 0-1.02-.825-.533-1.05-.969-.5-.969s1.675.436 2.5.969m173.683 1.188c-.319.797-.556.56-.604-.605-.043-1.054.193-1.644.525-1.312.332.332.368 1.195.079 1.917m-131.19 1.801c.35.566-.051.734-.941.393-1.732-.665-2.049-1.382-.611-1.382.518 0 1.216.445 1.552.989m60.724 2.811c1.081 1.334 1.046 1.438-.217.657-1.471-.908-1.987-1.08-4-1.332-.55-.069-1-.533-1-1.031 0-1.344 3.737-.122 5.217 1.706m94.768-2.05c-.009.413-.452 1.425-.985 2.25-.704 1.09-.974 1.142-.985.191-.008-.72-.46-1.034-1.004-.698-.566.35-.734-.051-.393-.941.596-1.552 3.396-2.219 3.367-.802m-23.302 2.438c-.319.797-.556.56-.604-.605-.043-1.054.193-1.644.525-1.312.332.332.368 1.195.079 1.917M132 40c.825.533 1.05.969.5.969s-1.675-.436-2.5-.969c-.825-.533-1.05-.969-.5-.969s1.675.436 2.5.969m-8 1c0 .55 1.237 1.007 2.75 1.015 2.143.012 2.419.23 1.25.985-1.235.798-1.25.972-.083.985.779.008 1.12.311.758.673-.362.362-.216 1.191.325 1.842.731.881-.207 1.201-3.676 1.254-2.978.045-4.157-.239-3.27-.787.764-.472 1.074-1.172.691-1.555-.383-.383-1.495-.084-2.471.665s-.714.172.581-1.283c1.295-1.455 2.056-3.129 1.691-3.72-.365-.591-.187-1.074.395-1.074.582 0 1.059.45 1.059 1m31.34 1.259c-.388.627-.166.752.549.309 1.851-1.143 4.394 1.386 3.037 3.021-.604.728-.764 1.864-.356 2.525.542.876.091.998-1.664.45-1.323-.413-3.644-.985-5.156-1.271-1.512-.286-2.75-.945-2.75-1.466 0-.52.563-.654 1.25-.299.688.355.125-.301-1.25-1.458l-2.5-2.103 2.815 1.016c3.963 1.432 4.622 1.286 4.196-.925-.261-1.355.058-1.777 1.052-1.396.784.301 1.134 1.02.777 1.597m111.849 2.231c.499 4.277-.705 3.304-1.691-1.365-.455-2.159-.353-3.153.285-2.759.548.338 1.18 2.194 1.406 4.124M12.75 42.689c-.963.252-2.537.252-3.5 0-.963-.251-.175-.457 1.75-.457s2.713.206 1.75.457m320.509 1.561c-.305 1.237-.236 1.96.154 1.606.389-.354 1.815.462 3.167 1.815 1.672 1.672 3.331 2.358 5.189 2.144 2.728-.315 2.954-.838 1.726-3.992-1.133-2.91 3.285-.946 5.734 2.548 1.528 2.18 1.674 2.713.482 1.757-.941-.755-1.711-.964-1.711-.465 0 .5-.788 1.003-1.75 1.118a218.293 218.293 0 00-13.484 2.028c-4.291.788-4.794.678-5.382-1.176-.367-1.154-.172-2.204.445-2.409.603-.201 2.049-1.909 3.215-3.795 2.476-4.007 2.977-4.273 2.215-1.179M18.25 43.662c-.687.278-1.812.278-2.5 0-.687-.277-.125-.504 1.25-.504s1.938.227 1.25.504m163.337 3.428c3.24 3.383 2.296 3.746-2.361.906-4.258-2.596-6.444-2.537-3.226.086l2.5 2.038-3.43-1.678c-3.372-1.651-3.392-1.699-1.218-2.863 1.216-.65 1.927-1.467 1.58-1.813-.346-.347.269-.395 1.369-.108 1.099.288 3.252 1.832 4.786 3.432m56.191-1.155c.926 1.615 1.822 2.798 1.991 2.63.541-.542-2.061-5.565-2.883-5.565-.436 0-.035 1.321.892 2.935m25.567-1.392c-.326.849-.807 1.329-1.069 1.067-.262-.262-.18-.957.183-1.543.986-1.596 1.562-1.286.886.476m17.281-.684c-1.031.415-2.7 2.304-3.708 4.198l-1.834 3.443-.042-2.809c-.028-1.88.341-2.572 1.116-2.094.776.48.989.072.646-1.239-.421-1.61.036-1.981 2.592-2.104 2.298-.111 2.617.046 1.23.605M30.5 45.856c5.344 1.382 6.501 1.973 4.891 2.5-2.069.676-5.403-.048-6.391-1.389-.275-.373-2.3-1.147-4.5-1.719-2.2-.573-3.325-1.078-2.5-1.122.825-.044 4.65.734 8.5 1.73m159.059.612c1.067.808 2.391 1.468 2.941 1.468.55 0 .126-.66-.941-1.468-1.068-.807-2.391-1.468-2.941-1.468-.55 0-.127.661.941 1.468m-80.83.136c-.332.332-1.195.368-1.916.079-.798-.319-.561-.556.604-.604 1.054-.043 1.644.193 1.312.525m28.682.252c.291.47-.583.643-1.941.383-1.359-.26-2.47-.645-2.47-.856 0-.773 3.899-.356 4.411.473m26.732.718c1.673.865 2.818 1.798 2.543 2.073-.537.537-6.686-2.381-6.686-3.173 0-.798.97-.541 4.143 1.1m-21.124.949c1.057 1.273.995 1.42-.378.893-.902-.347-1.641-1.032-1.641-1.523 0-1.286.579-1.105 2.019.63M48 50.07l2.5.758-2.5.009c-1.375.005-4.3-.604-6.5-1.354l-4-1.364 4 .596c2.2.328 5.125.938 6.5 1.355m225.283-.365c-.676 1.76-3.283 1.647-3.283-.143 0-.793.847-1.374 1.89-1.295 1.104.083 1.684.681 1.393 1.438m-210.709.183c.59.637 4.865 1.595 9.5 2.128C82.517 53.217 84 53.229 84 52.111c0-.979-5.298-2.188-11.5-2.622-3.067-.216-3.533-.067-2 .634 1.588.727 1.382.813-1 .42-1.65-.272-4.125-.792-5.5-1.155-1.868-.493-2.229-.367-1.426.5M255 51.118c0 .55-.45.722-1 .382-.55-.34-1-1.068-1-1.618s.45-.722 1-.382c.55.34 1 1.068 1 1.618m-85.5 1.132c0 .596.625 1.292 1.389 1.546.899.3 1.121.03.63-.766-.591-.956-.288-.977 1.36-.095 2.568 1.375 2.782 2.21.371 1.452-1.494-.47-1.466-.319.191 1.031 2.782 2.267.892 1.951-3.104-.519-2.063-1.275-4.274-1.881-5.626-1.541-1.225.307-2.899.134-3.719-.384-1.178-.745-.965-.97 1.008-1.069 1.375-.07 3.563-.038 4.862.071 1.72.143 2.152-.167 1.59-1.14-.454-.785-.397-.992.138-.503.5.459.91 1.321.91 1.917m14.993-.25c.894 0 1.365-.42 1.048-.933-.317-.514 1.219-.176 3.413.75 2.67 1.126 3.42 1.801 2.268 2.041-.947.196-2.304.83-3.014 1.407-.911.74-1.635.708-2.45-.107-.637-.637-1.86-1.158-2.717-1.158-.858 0-2.139-.927-2.846-2.06-1.18-1.889-1.123-1.972.694-1 1.089.583 2.711 1.06 3.604 1.06M145 52c.825.533 1.05.969.5.969s-1.675-.436-2.5-.969c-.825-.533-1.05-.969-.5-.969s1.675.436 2.5.969m105.729-.396c-.332.332-1.195.368-1.916.079-.798-.319-.561-.556.604-.604 1.054-.043 1.644.193 1.312.525m103.8.349c-.324.525-2.038 1.938-3.809 3.141l-3.22 2.187 3-3.033c2.891-2.922 5.246-4.263 4.029-2.295M268 53.259c0 .693-.9 1.822-2 2.509-1.681 1.049-2 .999-2-.319 0-.862.453-1.287 1.007-.945.554.343 1.277-.081 1.607-.941.723-1.885 1.386-2.03 1.386-.304m-112.23 2.985c2.899 1.127 5.095 2.224 4.882 2.438-.5.499-10.679-3.347-12.652-4.781-1.742-1.266-.705-.953 7.77 2.343m-34.041-1.64c-.332.332-1.195.368-1.916.079-.798-.319-.561-.556.604-.604 1.054-.043 1.644.193 1.312.525M385 55c1.958 1.266 3.282 1.266 2.5 0-.34-.55-1.379-.993-2.309-.985-1.457.014-1.484.15-.191.985m8-.1c-2.63.451-3.526 1.115-3.605 2.672-.112 2.22.636 2.33 6.605.97 3.034-.691 8.304-3.419 6.973-3.609-3.568-.51-7.12-.521-9.973-.033m-135.509 5.933c-.178.184-1.315-.657-2.526-1.868-1.77-1.77-1.933-2.37-.833-3.064.978-.617 1.698-.084 2.526 1.868.636 1.502 1.011 2.881.833 3.064M406 56c-1.333.862-1.333.969 0 .969.825 0 2.175-.436 3-.969 1.333-.862 1.333-.969 0-.969-.825 0-2.175.436-3 .969M61.244 59.25c.472 1.437 5.899 2.182 9.435 1.294C74.757 59.521 72.174 58 66.358 58c-3.972 0-5.409.351-5.114 1.25m176.889.25c.174 1.1-.038 2.566-.471 3.257-.832 1.326 1.91 3.004 3.048 1.867.343-.343-.153-.624-1.102-.624-.955 0-1.435-.471-1.074-1.054.432-.7 1.461-.524 3.059.523 3.39 2.221 2.993.462-.685-3.032-2.666-2.532-3.049-2.661-2.775-.937m81.108 2.685c-.515 1.97-.637 1.994-1.828.366-.701-.96-1.029-2.388-.728-3.174.869-2.263 3.21.309 2.556 2.808M12.25 59.662c-.687.278-1.812.278-2.5 0-.687-.277-.125-.504 1.25-.504s1.938.227 1.25.504m9.019.994c-.677.274-2.027.291-3 .037-.973-.254-.419-.478 1.231-.498 1.65-.02 2.446.187 1.769.461m237.095 2.85c.604 1.575-1.905 1.353-3.574-.316-.655-.655-1.748-1.19-2.431-1.19s-1.489-.401-1.792-.892c-.303-.49 1.215-.443 3.374.105s4.149 1.58 4.423 2.293M384.8 61.2c.933.933 1.467.933 2.4 0 .933-.933.667-1.2-1.2-1.2s-2.133.267-1.2 1.2M38.996 63.062c1.878.996-10.777-.068-13.496-1.135-1.1-.431 1.15-.531 5-.222 3.85.31 7.673.92 8.496 1.357M110 61.51c0 1.058 7.519 2.371 8.42 1.47.602-.602.613-1.019.03-1.081-5.398-.577-8.45-.717-8.45-.389m61.05 1.016c1.622.839 2.95 1.75 2.95 2.025 0 .448-5.888-2.257-6.917-3.178-1.011-.905 1.269-.242 3.967 1.153M81 62.732c1.375.253 3.11.961 3.856 1.574.745.613 2.995 1.19 5 1.282 2.004.092 4.908.222 6.453.29 1.668.072 2.548.545 2.166 1.162-.413.669.24.819 1.832.419 1.376-.345 2.771-.141 3.143.46.828 1.34 2.55 1.421 2.55.12 0-1.135-5.412-2.672-12.731-3.617-2.877-.371-4.988-1.068-4.691-1.548.297-.481-1.849-.813-4.769-.738-2.92.075-4.184.343-2.809.596m24.55.163c.523.492 2.525 1.163 4.45 1.491l3.5.596-3.5-1.415c-4.184-1.691-5.79-1.934-4.45-.672m124.088.605c.317.825.753 1.5.969 1.5.216 0 .393-.675.393-1.5s-.436-1.5-.969-1.5c-.532 0-.709.675-.393 1.5M98.5 64c1.1.473 3.125.846 4.5.83l2.5-.029L103 64c-1.375-.44-3.4-.814-4.5-.83l-2-.029 2 .859m240.683 1.217c-.717.717-1.183.776-1.183.15 0-1.335 1.183-2.518 1.85-1.85.284.284-.016 1.049-.667 1.7M372 64.178c0 .868-1.012 2.259-2.25 3.091-1.238.832-1.983 1.791-1.657 2.132.327.34 1.847-.543 3.379-1.962 2.068-1.917 2.495-2.872 1.657-3.71-.839-.839-1.129-.723-1.129.449m-258 .961c0 .473 1.125.861 2.5.861s2.5-.173 2.5-.383c0-.211-1.125-.599-2.5-.862s-2.5-.09-2.5.384m-98.75.523c-.687.278-1.812.278-2.5 0-.687-.277-.125-.504 1.25-.504s1.938.227 1.25.504M107.5 66c1.1.473 2.9.846 4 .83 1.608-.024 1.51-.186-.5-.83-3.419-1.095-6.048-1.095-3.5 0m228.025.04c.73 1.182-4.021 5.265-6.433 5.528-.876.096-2.492.483-3.592.862-1.1.378-.297-.257 1.784-1.412 2.232-1.239 3.501-2.557 3.095-3.214-.417-.675-.234-.832.466-.399.635.392 1.653.405 2.262.029.771-.477.696-.944-.25-1.544-1.067-.676-.996-.863.334-.875.93-.008 1.98.453 2.334 1.025m-294.931.675c10.273.674 10.574.753 5.191 1.365-3.144.356-10.344.091-16-.591-12.33-1.486-6.457-1.906 10.809-.774M175 68.16c1.117.728.862.836-1 .422-1.375-.305-3.989-.561-5.809-.568-2.131-.009-3.069-.402-2.635-1.104.743-1.202 6.939-.382 9.444 1.25M258.969 70c0 1.333-.107 1.333-.969 0-.533-.825-.969-2.175-.969-3 0-1.333.107-1.333.969 0 .533.825.969 2.175.969 3m60.424-2.418c.939 2.447.735 2.689-.893 1.061-1.7-1.7-1.917-2.643-.607-2.643.491 0 1.166.712 1.5 1.582m21.472 1.175c-1.45.958-4.487 3.711-6.75 6.117-2.263 2.405-4.115 3.937-4.115 3.405 0-.533.903-1.786 2.006-2.785 1.104-.998 1.787-2.034 1.52-2.302-.721-.721 6.727-6.133 8.474-6.158.883-.012.417.696-1.135 1.723M355.5 68c-.34.55-.168 1 .382 1s1.278-.45 1.618-1c.34-.55.168-1-.382-1s-1.278.45-1.618 1m-267.75.662c.688.278 1.813.278 2.5 0 .688-.277.125-.504-1.25-.504s-1.937.227-1.25.504m-42.021.942c-.332.332-1.195.368-1.916.079-.798-.319-.561-.556.604-.604 1.054-.043 1.644.193 1.312.525M226 70.059c0 .582.45.781 1 .441s1-.816 1-1.059-.45-.441-1-.441-1 .477-1 1.059M97.403 71.158c-.491.793-.037.979 1.442.593 1.396-.365 1.923-.185 1.492.512-.427.691-.04.837 1.081.407.96-.369 2.271-.702 2.914-.74 1.626-.098-2.449-1.774-4.523-1.86-.93-.038-2.013.451-2.406 1.088m170.5 2.273c-.263.263-1.074-.514-1.803-1.726-1.265-2.107-1.243-2.128.479-.479.991.95 1.587 1.942 1.324 2.205m-191.09-1.748c.721.289 1.584.253 1.916-.079.332-.332-.258-.568-1.312-.525-1.165.048-1.402.285-.604.604m65 1c.721.289 1.584.253 1.916-.079.332-.332-.258-.568-1.312-.525-1.165.048-1.402.285-.604.604m-84.563.979c-.687.278-1.812.278-2.5 0-.687-.277-.125-.504 1.25-.504s1.938.227 1.25.504M199 74c-.901.582-1.025.975-.309.985.655.008 1.469-.435 1.809-.985.767-1.242.421-1.242-1.5 0m66.718 4.446c-.629 1.13-1.01 2.504-.847 3.054.163.55-.079.622-.538.16-1.147-1.157-1.047-4.916.167-6.299 1.579-1.799 2.557.678 1.218 3.085m24.449 1.069c-2.23 5.066-2.258 5.417-.635 7.893C291.44 90.32 293 90.784 293 88.441c0-.857.45-1.281 1-.941 1.199.741 1.194.642-.312-7.143l-1.188-6.143-2.333 5.301M101.75 75.662c.688.278 1.813.278 2.5 0 .688-.277.125-.504-1.25-.504s-1.937.227-1.25.504m208.917.66c0 .727-2.032 2.315-4.515 3.529-4.336 2.12-4.442 2.127-2.678.178 1.01-1.116 2.618-2.029 3.574-2.029s1.997-.675 2.314-1.5c.711-1.854 1.305-1.935 1.305-.178m62.062-.718c-.332.332-1.195.368-1.916.079-.798-.319-.561-.556.604-.604 1.054-.043 1.644.193 1.312.525M95.75 76.662c.688.278 1.813.278 2.5 0 .688-.277.125-.504-1.25-.504s-1.937.227-1.25.504M155.5 77c-.34.55-1.068 1-1.618 1s-.722-.45-.382-1c.34-.55 1.068-1 1.618-1s.722.45.382 1m2.5 1c0 .55-.477 1-1.059 1s-.781-.45-.441-1 .816-1 1.059-1 .441.45.441 1m5.68 1.291c.407.659 0 .8-1.098.379-.96-.369-2.159-.67-2.664-.67a.915.915 0 01-.918-.906c0-1.164 3.825-.186 4.68 1.197M415.2 78.2c-.933.933-1.467.933-2.4 0-.933-.933-.667-1.2 1.2-1.2s2.133.267 1.2 1.2m-342.7.83c1.1.032-.25.828-3 1.769-2.75.942-6.35 1.502-8 1.244-2.733-.427-2.785-.502-.588-.846 1.327-.208 3.082-1.048 3.899-1.865.854-.855 2.381-1.247 3.588-.923 1.156.31 3.001.59 4.101.621m326.464.904c.57 1.063 2.255 2.075 3.747 2.25 2.279.266 1.885.567-2.477 1.889-3.278.995-5.656 1.236-6.461.656-.904-.651-.765-.754.477-.355.962.31 1.75.127 1.75-.405 0-.533.685-.969 1.523-.969 1.333 0 1.319-.311-.115-2.5-.947-1.445-1.182-2.5-.558-2.5.594 0 1.545.87 2.114 1.934m-282.235-.33c-.332.332-1.195.368-1.916.079-.798-.319-.561-.556.604-.604 1.054-.043 1.644.193 1.312.525m158.914.909c.32.832.016 2.193-.674 3.024-1.497 1.804-.677 2.949 1.512 2.109 1.661-.638 3.587-4.632 2.843-5.896-.243-.412-1.301-.75-2.352-.75-1.293 0-1.722.488-1.329 1.513m-219.374.143c-.677.274-2.027.291-3 .037-.973-.254-.419-.478 1.231-.498 1.65-.02 2.446.187 1.769.461M316.018 80c-1.504 4.117-.757 10.139 1.036 8.346.633-.633.658-2.402.068-4.917-.507-2.161-1.003-3.704-1.104-3.429m32.478 1.007c-.343.554-2.057 1.736-3.809 2.627-3.624 1.842-3.054.915 1.055-1.72 3.316-2.125 3.555-2.204 2.754-.907m69.895 1.57c.747 1.947.248 1.787-1.93-.62-1.519-1.678-1.56-1.932-.232-1.423.889.341 1.862 1.261 2.162 2.043M50.5 82c-.34.55-1.379.993-2.309.985-1.457-.014-1.484-.15-.191-.985 1.958-1.266 3.282-1.266 2.5 0m89.5 0c0 .55.477 1 1.059 1s.781-.45.441-1-.816-1-1.059-1-.441.45-.441 1m57 0c1.97 1.273 4.287 1.273 3.5 0-.34-.55-1.604-.993-2.809-.985-1.781.013-1.91.197-.691.985m25.485.025c-.349.563-.263.96.191.881 1.954-.339 3.4.163 2.882 1.001-.309.498.395.656 1.564.351 2.103-.55 2.1-.569-.249-1.871-2.914-1.616-3.58-1.671-4.388-.362m8.328-.342c.721.289 1.584.253 1.916-.079.332-.332-.258-.568-1.312-.525-1.165.048-1.402.285-.604.604m-93.084.921c-.332.332-1.195.368-1.916.079-.798-.319-.561-.556.604-.604 1.054-.043 1.644.193 1.312.525m30.698.21c1.797.78 1.807.882.16 1.514-.972.373-2.212.404-2.756.067-.544-.336-5.898-.675-11.899-.753-7.915-.103-11.042.201-11.39 1.108-.332.865.818 1.296 3.739 1.4 3.204.114 3.528.253 1.348.578-3.561.531-7.899-.482-7.163-1.673.494-.8-1.296-.386-6.716 1.552-.963.345-1.75.971-1.75 1.393 0 .422-1.012 1.116-2.25 1.543-1.926.665-1.691.836 1.632 1.185 2.135.225 4.362-.072 4.95-.66.587-.587 2.216-1.023 3.618-.968l2.55.099L140 90c-1.807.579-.559.837 4.5.931 5.524.102 6.609.357 5.146 1.207-1.144.665-4.781.856-9.5.5-5.719-.432-6.89-.331-4.646.401 1.661.542 7.464.727 13 .416 14.15-.796 14.682-.779 15.462.484.497.804 2.748.89 7.717.297 8.196-.979 9.321-.75 9.321 1.897 0 1.811.654 1.952 8.25 1.789 4.537-.097 9.525.333 11.084.958 1.559.624 3.225.892 3.704.597.478-.296 2.058-.24 3.511.125 1.764.442 2.23.916 1.405 1.426-.68.42.965.73 3.655.688 4.934-.077 9.696-2.452 5.104-2.545-3.559-.072-13.713-2.441-13.713-3.2 0-.381-1.238-.529-2.75-.328-1.512.202-2.185.101-1.494-.224.691-.324.959-1.072.595-1.661-.446-.72.37-.864 2.494-.439 1.735.347 3.155.228 3.155-.264s3.259-.658 7.25-.368c4.858.353 6.92.195 6.25-.479-1.13-1.136-15.586-2.156-14.903-1.051.242.392-2.155.448-5.328.125-3.173-.323-7.569-.551-9.769-.508-2.517.051-3.335-.181-2.205-.626 1.445-.568.896-1.143-2.823-2.949-2.54-1.234-4.304-1.736-3.92-1.114.46.743.058.94-1.177.576-1.031-.305-3.173-.003-4.759.669-2.801 1.188-2.73 1.23 2.459 1.456 2.939.128 5.764.653 6.279 1.168.952.952-6.092.612-11.729-.567-1.622-.339-2.631-.205-2.315.306.309.499-1.098.94-3.125.981-2.66.053-2.92-.049-.935-.366 5.116-.82 2.005-3.26-4.2-3.294-1.912-.011-2.185-.279-1.244-1.22.941-.941 2.195-.941 5.714 0 5.186 1.387 9.445 1.506 5.48.154l-2.5-.853 2.5.063c1.375.035 3.4 0 4.5-.078 3.027-.213-.057-1.755-5-2.499-2.516-.379-3.285-.292-2.073.233M215 83c0 .55.873 1 1.941 1s2.219.45 2.559 1c.34.55 1.154.997 1.809.993.655-.003-.159-.9-1.809-1.993-3.354-2.221-4.5-2.476-4.5-1m33-.545c0 .25 1.145 1.6 2.545 3 2.68 2.679 5.629 3.413 5.205 1.295-.378-1.89-3.6-3.961-4.906-3.153-.714.441-.881.272-.439-.442.422-.685.078-1.155-.846-1.155-.857 0-1.559.205-1.559.455m-148 2.098l6.5-.492-6 1.368c-4.446 1.014-8.072 1.138-14 .477-4.4-.49-8.787-.894-9.75-.898-.963-.005-1.75-.36-1.75-.79 0-.431 4.162-.42 9.25.023s12.175.583 15.75.312M232.5 84c.34.55 1.068 1 1.618 1s.722-.45.382-1c-.34-.55-1.068-1-1.618-1s-.722.45-.382 1m125.078-.126c-.871 1.409-11.71 6.253-12.947 5.786-.622-.235-.231-.734.869-1.108 1.1-.375 4.25-1.75 7-3.056 5.845-2.776 5.778-2.754 5.078-1.622M159 85c-.825.533-1.95.969-2.5.969s-.325-.436.5-.969c.825-.533 1.95-.969 2.5-.969s.325.436-.5.969m45.573-.06c.59.609 2.776 1.324 4.858 1.591 2.082.266 4.145.707 4.585.979.439.271 1.853.033 3.142-.531 2.184-.956 2.151-.987-.492-.462-1.558.31-2.614.208-2.345-.227.268-.434-.482-.856-1.666-.937-1.185-.081-3.73-.456-5.655-.833-2.547-.499-3.208-.384-2.427.42m39.46.788c-1.313 1.479-1.273 1.578.377.945 1.044-.401 2.51-.158 3.38.56 1.352 1.114 1.393.995.339-.983-1.414-2.654-2.123-2.744-4.096-.522M271 85.059c0 .582.45.781 1 .441s1-.816 1-1.059-.45-.441-1-.441-1 .477-1 1.059m-233.25.63c-.962.252-2.538.252-3.5 0-.962-.251-.175-.457 1.75-.457s2.712.206 1.75.457M198 85.383c0 .211-.901.619-2.001.907-1.101.288-1.75.115-1.441-.383.538-.871 3.442-1.313 3.442-.524m27.975.632c-1.887 1.166-.956 1.939 2.606 2.164 1.605.101 3.453.583 4.105 1.072.715.535 2.071.414 3.412-.304 2.198-1.176 2.185-1.209-1.05-2.569-3.908-1.643-4.36-1.691-3.548-.378.773 1.251-.113 1.277-2.37.07-1.008-.54-2.333-.563-3.155-.055M301 86c.825.533 1.05.969.5.969s-1.675-.436-2.5-.969c-.825-.533-1.05-.969-.5-.969s1.675.436 2.5.969m30.917-.635c-.229.2-1.542.9-2.917 1.555-2.357 1.122-2.389 1.102-.559-.365 1.593-1.276 4.848-2.391 3.476-1.19M57.945 88.029c1.08.632 1.155.919.246.941-.72.016-1.031.48-.691 1.03.839 1.357.345 1.268-3.442-.621-1.787-.891-5.568-1.996-8.403-2.455-4.186-.678-3.661-.738 2.79-.32 4.37.283 8.645.924 9.5 1.425M305 86.378c0 .207-.788.995-1.75 1.75-1.586 1.243-1.621 1.208-.378-.378 1.307-1.666 2.128-2.195 2.128-1.372m-85 1.015c0 .216.675.652 1.5.969.825.316 1.5.139 1.5-.393 0-.533-.675-.969-1.5-.969s-1.5.177-1.5.393m14.5.607c.34.55.168 1-.382 1s-1.278-.45-1.618-1c-.34-.55-.168-1 .382-1s1.278.45 1.618 1m-170.231.656c-.677.274-2.027.291-3 .037-.973-.254-.419-.478 1.231-.498 1.65-.02 2.446.187 1.769.461M25.25 89.662c-.687.278-1.812.278-2.5 0-.687-.277-.125-.504 1.25-.504s1.938.227 1.25.504m21.518.053c-1.503.228-4.203.232-6 .01-1.797-.223-.568-.41 2.732-.415 3.3-.006 4.771.176 3.268.405m-12.631.985c-1.151.458-1.151.677 0 1.406 1.004.636.778.867-.856.879-1.564.01-2.048-.427-1.643-1.485.317-.825 1.315-1.464 2.219-1.421 1.202.058 1.277.224.28.621M85 91.057c1.065.728.051.831-3.5.356-2.75-.368-5.187-.837-5.417-1.041-1.003-.896 7.569-.238 8.917.685m219.571 2.514c-.367 1.466-.893 2.44-1.168 2.165-.275-.275-.199-1.699.168-3.165.368-1.465.894-2.439 1.169-2.164.275.275.199 1.699-.169 3.164M26.729 91.604c-.332.332-1.195.368-1.916.079-.798-.319-.561-.556.604-.604 1.054-.043 1.644.193 1.312.525m90.021.124c-2.062.216-5.437.216-7.5 0-2.062-.215-.375-.392 3.75-.392s5.813.177 3.75.392m-36.843 1.33c-.692.427.486.746 2.68.724 2.152-.02 9.763.403 16.913.942l13 .979-10.144.148c-5.579.082-14.579-.284-20-.814-5.421-.53-17.679-1.19-27.24-1.467-9.561-.278-17.635-.755-17.941-1.062-.306-.306 9.461-.479 21.704-.385 12.244.095 21.706.515 21.028.935m45.843-.396c.688.278 1.813.278 2.5 0 .688-.277.125-.504-1.25-.504s-1.937.227-1.25.504M196 93.5l2.5 1.429-2.643.036c-1.454.019-2.902-.64-3.219-1.465-.709-1.85.127-1.85 3.362 0m103.579 1.274c-1.722 1.649-1.744 1.628-.479-.479.729-1.212 1.54-1.989 1.803-1.726.263.263-.333 1.255-1.324 2.205m13.338-2.409c-.229.2-1.542.9-2.917 1.555-2.357 1.122-2.389 1.102-.559-.365 1.593-1.276 4.848-2.391 3.476-1.19m57.159 1.738c-2.433 1.08-5.201 2.081-6.152 2.226-.951.146-2.467.877-3.369 1.625-1.347 1.119-1.855 1.129-2.847.056-.971-1.048-.836-1.173.683-.634 1.567.555 1.685.421.687-.782-1.016-1.224-.449-1.564 3.608-2.162 2.648-.39 5.714-1.068 6.814-1.507 4.261-1.7 4.761-.678.576 1.178m-151.51-.205c-1.348.528-1.57.981-.735 1.498 1.853 1.145 9.29 1.609 8.629.539-.318-.514-1.226-.935-2.019-.935-.793 0-1.441-.45-1.441-1 0-1.152-1.657-1.19-4.434-.102m170.163-.294c-.332.332-1.195.368-1.916.079-.798-.319-.561-.556.604-.604 1.054-.043 1.644.193 1.312.525m20.717.308c.31.502-.101.815-.912.696-2.142-.314-3.155-1.608-1.26-1.608.885 0 1.862.41 2.172.912M125.5 95.03l-3 .555 3.375.707c3.831.804 22.727.977 21.952.201-.854-.854-19.137-2.052-22.327-1.463m35.313-.347c.721.289 1.584.253 1.916-.079.332-.332-.258-.568-1.312-.525-1.165.048-1.402.285-.604.604M210.5 95c-.34.55.11 1 1 1s1.34-.45 1-1c-.34-.55-.79-1-1-1-.21 0-.66.45-1 1m173.5-.607c0 .949-2.993 1.427-3.527.563-.325-.526.336-.956 1.468-.956s2.059.177 2.059.393m-341.25 1.52C48.858 95.965 53 96.404 53 97c0 1.195-10.841 1.283-31 .25-10.902-.559-13.135-.875-9-1.274 3.025-.292 8.65-.445 12.5-.341 3.85.105 11.612.229 17.25.278m129.25.102c-1.333.876-1.333 1.096 0 1.981 1.137.754.653.986-2 .956-1.925-.022-4.175.02-5 .093-.825.073-4.29-.194-7.701-.593-6.311-.74-6.988-.56-15.203 4.04l-2.403 1.346 2.903.431c2.441.363 2.266.466-1.096.651-2.2.122-4.887.567-5.972.991-1.776.694-1.705.822.72 1.286 1.48.283 2.479.17 2.218-.251-.439-.712 12.314-2.166 20.701-2.361 2.017-.047 3.971-.389 4.342-.76 1.009-1.009-7.968-2.131-10.535-1.317-1.512.48-2.005.351-1.54-.401.376-.609 1.557-1.107 2.625-1.107s1.941-.46 1.941-1.023c0-.595.941-.451 2.25.345 2.786 1.693 10.312 2.195 11.207.747.364-.588 1.786-1.069 3.161-1.069s2.262.385 1.971.856c-.291.47.583.643 1.941.383 3.154-.603 3.107-1.018-.28-2.457l-2.75-1.168 2.75-.373c1.512-.206 2.75-.794 2.75-1.307 0-1.232-5.089-1.173-7 .081m61-.013c1.215.935.963 1.068-1.326.7-3.709-.596-1.958 1.198 1.843 1.887 1.563.283 3.181.724 3.594.979.413.256 1.033.007 1.379-.552.363-.587-.452-1.016-1.931-1.016-1.407 0-2.446-.506-2.309-1.125s-.425-1.328-1.25-1.576c-1.333-.401-1.333-.323 0 .703m24.813-.319c.721.289 1.584.253 1.916-.079.332-.332-.258-.568-1.312-.525-1.165.048-1.402.285-.604.604m12.849 2.567c-.277.688-.504.125-.504-1.25s.227-1.937.504-1.25c.278.688.278 1.813 0 2.5M373 96c0 .55-1.238.955-2.75.9l-2.75-.099L370 96c1.375-.44 2.613-.845 2.75-.9.137-.055.25.35.25.9m-216.736.718c1.52.229 3.77.223 5-.014 1.23-.237-.014-.425-2.764-.418-2.75.008-3.756.202-2.236.432m35.465-.114c-.332.332-1.195.368-1.916.079-.798-.319-.561-.556.604-.604 1.054-.043 1.644.193 1.312.525m62.271.455c0 .582.45.781 1 .441s1-.816 1-1.059-.45-.441-1-.441-1 .477-1 1.059m101.25-.397c-.687.278-1.812.278-2.5 0-.687-.277-.125-.504 1.25-.504s1.938.227 1.25.504m-294 1c-.687.278-1.812.278-2.5 0-.687-.277-.125-.504 1.25-.504s1.938.227 1.25.504M304 97.378c0 .207-.788.995-1.75 1.75-1.586 1.243-1.621 1.208-.378-.378 1.307-1.666 2.128-2.195 2.128-1.372M356 99c0 .55-.863 1-1.918 1s-2.743.232-3.75.515c-1.008.283-.482-.146 1.168-.955 3.609-1.768 4.5-1.879 4.5-.56m-348.238.687c-.956.25-2.756.259-4 .02-1.244-.239-.462-.444 1.738-.455 2.2-.011 3.218.185 2.262.435m175.488-.025c-2.827 1.141-.931 2.131 3.811 1.989 4.882-.146 4.962-.193 2.25-1.356-3.035-1.301-4.124-1.414-6.061-.633m11.5 0c.688.278 1.813.278 2.5 0 .688-.277.125-.504-1.25-.504s-1.937.227-1.25.504M304.5 101c-.34.55-1.154.993-1.809.985-.716-.01-.592-.403.309-.985 1.921-1.242 2.267-1.242 1.5 0m-73.591.879c.775.515 2.019.702 2.763.417.744-.286 2.096.093 3.003.842 1.41 1.164 1.579 1.144 1.16-.138-.301-.923-1.999-1.607-4.412-1.778-2.701-.192-3.484.013-2.514.657m-221.659.827c-1.238.238-3.262.238-4.5 0-1.238-.239-.225-.434 2.25-.434s3.488.195 2.25.434m175.75.174c-1.375.341-2.643 1.456-2.819 2.478-.294 1.718.209 1.806 6.636 1.16 4.156-.417 7.192-.313 7.546.26.325.526 4.314.987 8.864 1.022 6.99.055 7.752-.088 4.913-.924-4.88-1.438-3.253-2.077 2.464-.967 9.742 1.891 13.258 2.123 14 .923.487-.789.18-.963-.94-.533-.915.351-1.664.26-1.664-.201 0-.92-11.876-2.177-24.619-2.607-4.466-.15-8.966-.489-10-.752-1.035-.264-3.006-.2-4.381.141m-88.271.724c-.332.332-1.195.368-1.916.079-.798-.319-.561-.556.604-.604 1.054-.043 1.644.193 1.312.525m18.354-.244c.23.198 2.892.636 5.917.974 3.674.411 5.002.297 4-.344-1.361-.87-10.896-1.476-9.917-.63m-22.354 1.244c-.332.332-1.195.368-1.916.079-.798-.319-.561-.556.604-.604 1.054-.043 1.644.193 1.312.525m72.771.12c-1.1.27-2.45.836-3 1.256-.55.421-3.701.607-7.003.413-3.301-.194-7.351.009-9 .451-2.045.548.657.85 8.503.952 7.647.099 10.997-.172 10-.809-1.873-1.194-.203-1.392 8.75-1.032 4.039.162 6.25-.14 6.25-.852 0-1.111-10.416-1.383-14.5-.379m230.769-.068c-.677.274-2.027.291-3 .037-.973-.254-.419-.478 1.231-.498 1.65-.02 2.446.187 1.769.461M384 106c-1 .646-1.083.974-.25.985.756.009.46.805-.75 2.015-2.42 2.42-3 2.496-3 .392 0-1.231-.608-1.456-2.584-.96-1.675.42-2.358.283-1.941-.392.354-.572 1.629-1.047 2.834-1.055 1.205-.009 2.866-.452 3.691-.985.825-.533 1.95-.969 2.5-.969s.325.436-.5.969m18.25-.338c-.687.278-1.812.278-2.5 0-.687-.277-.125-.504 1.25-.504s1.938.227 1.25.504m8.399 1.969c-.082.073-1.724-.119-3.649-.427-3.243-.517-3.316-.604-1-1.18 1.375-.342 3.017-.15 3.649.427.632.577 1.082 1.108 1 1.18M168.5 107c-.34.55.11 1 1 1s1.34-.45 1-1c-.34-.55-.79-1-1-1-.21 0-.66.45-1 1m233.417.642c.229.197-1.854.358-4.628.358-4.737 0-8.204 1.752-6.614 3.342.362.362-.563.658-2.055.658-2.7 0-2.705-.012-.917-2.437.988-1.341 2.922-2.6 4.297-2.797 2.536-.365 9.154.219 9.917.876M40 107.654c-1.925.184-6.875.662-11 1.063l-7.5.729 6 .609c5.393.547 5.013.626-3.75.777-6.597.114-9.75.541-9.75 1.321 0 .836 3.36 1.006 12.25.618 6.737-.293 11.125-.182 9.75.248l-2.5.782 2.667.099c1.466.055 2.838-.415 3.047-1.043.282-.845.98-.824 2.669.081 1.259.673 2.55.963 2.869.643.32-.32-.056-.645-.835-.723-.779-.078.383-.464 2.583-.858 3.373-.604 2.747-.757-4-.976-6.002-.196-7.251-.451-5-1.024 1.65-.42 5.362-.817 8.25-.882 2.888-.065 5.25-.568 5.25-1.118 0-.958-3.454-1.066-11-.346m18.25.035c.962.252 2.538.252 3.5 0 .962-.251.175-.457-1.75-.457s-2.712.206-1.75.457m8.518.036c1.797.222 4.497.218 6-.01 1.503-.229.032-.411-3.268-.405-3.3.005-4.529.192-2.732.415m165.79.182c-.309.498.34.671 1.441.383 2.335-.611 2.63-1.29.56-1.29-.793 0-1.693.408-2.001.907m103.521.676c.048 1.165.285 1.402.604.605.289-.722.253-1.585-.079-1.917-.332-.332-.568.258-.525 1.312M72.5 109.974c-3.916.417-.514.648 9.794.666 8.686.015 16.025-.348 16.309-.806.577-.935-16.875-.841-26.103.14m27.5.003c0 .927 10.929.428 11.9-.544.239-.238-2.342-.433-5.733-.433-3.392 0-6.167.44-6.167.977m318.5.023c.782 1.266-.542 1.266-2.5 0-1.293-.835-1.266-.971.191-.985.93-.008 1.969.435 2.309.985m-415.732.725c1.797.222 4.497.218 6-.01 1.503-.229.032-.411-3.268-.405-3.3.005-4.529.192-2.732.415m52.501-.032c.973.254 2.323.237 3-.037.677-.274-.119-.481-1.769-.461-1.65.02-2.204.244-1.231.498m88.231.02c-1.1.265-2.45.949-3 1.52-.687.714-.218.817 1.5.329 1.375-.391 4.75-.883 7.5-1.094 3.979-.305 4.387-.212 2 .456-2.058.576-2.372.874-1 .949 3.92.215 12.5-1.166 12.5-2.012 0-.886-15.929-1.007-19.5-.148m21.922.366c2.654 1.675 15.578 2.55 15.578 1.055 0-.705-2.034-1.134-5.375-1.134-2.956 0-6.894-.255-8.75-.567-2.927-.491-3.12-.405-1.453.646M322.5 111c-.731 1.183.248 1.183 3 0 1.928-.829 1.921-.862-.191-.93-1.205-.038-2.469.38-2.809.93m-140.5.883c0 1.132 4.909 2.089 6.864 1.339 1.2-.46 1.115-.719-.437-1.327-2.704-1.059-6.427-1.066-6.427-.012m95.685.274c2.488 1.023 2.583 1.211.815 1.616-1.1.252-2.272.889-2.605 1.416-.35.556-1.961.133-3.832-1.004-2.123-1.292-2.772-2.145-1.895-2.495 2.232-.891 4.565-.746 7.517.467m25.398-.801c.23.196 1.992.646 3.917.999 2.462.452 3.055.351 2-.341-1.356-.889-6.908-1.506-5.917-.658M0 114.317c0 1.632.487 1.836 3.125 1.308 1.719-.344 7.006-.688 11.75-.765l8.625-.14-8-.868C.098 112.18 0 112.183 0 114.317M54.5 113c-.34.55-2.054 1.007-3.809 1.015-1.755.009-3.866.486-4.691 1.061-1.14.794-.78.92 1.5.523 1.65-.288 5.25-.821 8-1.186 6.896-.913 9.182-2.344 3.809-2.383-2.305-.016-4.469.42-4.809.97m19.304.18c.942.377-.639.711-3.554.75-2.888.038-5.25.452-5.25.918 0 .467 9.739.631 21.643.365 14.596-.326 21.437-.151 21.011.538-1.201 1.942 3.2 2.067 4.944.141.942-1.041 2.741-1.892 3.998-1.892 1.257 0 2.499-.344 2.759-.765.26-.421-10.264-.759-23.387-.75-13.123.008-23.097.321-22.164.695M125.5 113c-1.612.693-1.284.873 1.691.93 2.03.038 3.969-.38 4.309-.93.746-1.207-3.192-1.207-6 0m257.229-.396c-.332.332-1.195.368-1.916.079-.798-.319-.561-.556.604-.604 1.054-.043 1.644.193 1.312.525M268 115.666c0 1.001-.559 1.333-1.582.941-.87-.334-2.107-.621-2.75-.639-.642-.017-.314-.678.729-1.468 2.136-1.617 3.603-1.142 3.603 1.166M306 114c0 .55.702 1 1.559 1s1.281-.45.941-1c-.34-.55-1.041-1-1.559-1s-.941.45-.941 1m-279.25.706c1.238.238 3.262.238 4.5 0 1.237-.239.225-.434-2.25-.434s-3.488.195-2.25.434m85.75.294c-.34.55-1.068 1-1.618 1s-.722-.45-.382-1c.34-.55 1.068-1 1.618-1s.722.45.382 1m208.007.989c-.35.566.051.734.941.393 1.732-.665 2.049-1.382.611-1.382-.518 0-1.216.445-1.552.989M9 117.114c0 .753-1.457.895-4.5.438l-4.5-.675v14.34l2.75-.568 2.75-.567-3 1.458c-2.725 1.324-1.238 1.44 16.261 1.27 17.398-.169 22.24-.833 15.239-2.089-2.318-.416-2.287-.459.421-.585 1.607-.075 3.632.484 4.5 1.241 1.311 1.144 3.02 1.174 10.079.177 6.266-.884 7.712-1.338 5.5-1.727-2.959-.52-2.952-.529.5-.645 1.925-.065 4.327.509 5.339 1.275 1.722 1.305 1.658 1.42-1 1.818-1.954.293-1.436.467 1.661.56 3.235.097 4.078-.138 3-.835-.825-.533-1.05-1.011-.5-1.061.55-.051 1.9-.291 3-.534 3.155-.698 15.519-.72 16.209-.029.344.343-2.451.624-6.209.624-9.13 0-7.96.662 2.25 1.274 8.294.496 8.914.322 7.39-2.082-.883-1.391-27.21-4.339-28.14-3.15-.275.352-4.274.672-8.888.712-4.613.041-8.663.483-9 .984-.336.5-3.087.637-6.112.303l-5.5-.606 4.5-.697c2.475-.383 8.1-.958 12.5-1.278 10.138-.736 12.733-1.275 11.982-2.489-.33-.534.14-.971 1.045-.971 9.556 0 41.249-2.44 44.617-3.436l4.356-1.287-9.671-.726c-6.117-.459-11.643-.316-15.04.389-10.364 2.152-43.107 5.258-43.555 4.133-.146-.367-1.897-.477-3.891-.244-1.994.232-5.924-.071-8.734-.676-2.81-.604-7.809-1.534-11.109-2.067l-6-.97 7.5.459c12.564.769 34.124.561 41-.396 5.769-.804 6.05-.938 2.5-1.2-2.2-.162-4.525-.279-5.166-.262-.642.018-8.742.263-18 .544-9.259.281-13.909.19-10.334-.202 5.75-.632 5.087-.734-5.75-.886-8.436-.119-12.25.174-12.25.941m93.269-.421c.973.254 2.323.237 3-.037.677-.274-.119-.481-1.769-.461-1.65.02-2.204.244-1.231.498m22.231.934l-3 1.464 4-.659c2.2-.362 5.081-.651 6.403-.642 1.785.013 2.042-.211 1-.871-1.971-1.248-4.901-1.001-8.403.708m41.25-.921c1.238.238 3.262.238 4.5 0 1.238-.239.225-.434-2.25-.434s-3.488.195-2.25.434m32.5-.017c.963.252 2.537.252 3.5 0 .963-.251.175-.457-1.75-.457s-2.713.206-1.75.457m-59.5 1.017c1.238.238 3.262.238 4.5 0 1.238-.239.225-.434-2.25-.434s-3.488.195-2.25.434m13.5-.017c.963.252 2.537.252 3.5 0 .963-.251.175-.457-1.75-.457s-2.713.206-1.75.457m110.412 2.561c-.277.688-.504.125-.504-1.25s.227-1.937.504-1.25c.278.688.278 1.813 0 2.5m-145.912-1.588c.688.278 1.813.278 2.5 0 .688-.277.125-.504-1.25-.504s-1.937.227-1.25.504m-18.481.994c-.677.274-2.027.291-3 .037-.973-.254-.419-.478 1.231-.498 1.65-.02 2.446.187 1.769.461m-68.507 1.051c1.244.239 3.044.23 4-.02s-.062-.446-2.262-.435c-2.2.011-2.982.216-1.738.455m165.988-.045c.688.278 1.813.278 2.5 0 .688-.277.125-.504-1.25-.504s-1.937.227-1.25.504M116 122c-1.085.701-.185.974 3.25.985 2.612.008 4.75-.435 4.75-.985 0-1.278-6.023-1.278-8 0m16.813-.317c.721.289 1.584.253 1.916-.079.332-.332-.258-.568-1.312-.525-1.165.048-1.402.285-.604.604m6.437.006c.963.252 2.537.252 3.5 0 .963-.251.175-.457-1.75-.457s-2.713.206-1.75.457m-46.085 1.188c-2.446 1.55 2.959 2.126 5.745.611l2.59-1.408-3.5-.025c-1.925-.013-4.101.356-4.835.822M164 123c-.825.533-1.05.969-.5.969s1.675-.436 2.5-.969c.825-.533 1.05-.969.5-.969s-1.675.436-2.5.969m26.75-.243c-.963.214-1.75.807-1.75 1.316 0 1.172 1.084 1.159 2.971-.034 1.796-1.136 1.154-1.81-1.221-1.282m-129.667 1.601c.23.198 2.217.635 4.417.972 2.724.418 3.521.308 2.5-.343-1.366-.871-7.887-1.464-6.917-.629m11.73.325c.721.289 1.584.253 1.916-.079.332-.332-.258-.568-1.312-.525-1.165.048-1.402.285-.604.604m14.456.01c.973.254 2.323.237 3-.037.677-.274-.119-.481-1.769-.461-1.65.02-2.204.244-1.231.498m25 0c.973.254 2.323.237 3-.037.677-.274-.119-.481-1.769-.461-1.65.02-2.204.244-1.231.498m31.074.426c1.013.596 3.371 1.128 5.239 1.18 1.867.053 2.913.395 2.323.76-1.276.788 1.277 1.941 4.299 1.941 3.451 0 .152-2.86-4.054-3.515-9.72-1.514-9.761-1.516-7.807-.366m11.907.131c.229.688 1.467 1.25 2.75 1.25s2.521-.562 2.75-1.25c.275-.825-.661-1.25-2.75-1.25s-3.025.425-2.75 1.25m-147 .412c-.687.278-1.812.278-2.5 0-.687-.277-.125-.504 1.25-.504s1.938.227 1.25.504M74.5 126l-4 .716 5 .072c2.75.039 5.9-.315 7-.788 1.688-.725 1.532-.848-1-.788-1.65.04-4.8.394-7 .788m39.5.061c-2.475.446-5.85.616-7.5.378-2.339-.338-2.559-.244-1 .429l2 .862-2 .563c-1.1.31-.2.366 2 .124 2.836-.311 3.418-.186 2 .429-1.421.617-.407.837 3.5.761 5.731-.111 9.6-1.968 6.248-2.998-.961-.295-.5-.389 1.026-.207 1.525.181 3.015-.06 3.309-.536.63-1.02-3.284-.94-9.583.195m51.5-.129c-1.1.435-2.562.58-3.25.323-.687-.258-1.25.029-1.25.638s.787 1.114 1.75 1.122c1.508.014 1.542.16.25 1.061-1.103.768-.573.863 2 .357 4.751-.934 7.675-2.099 8.462-3.371.771-1.248-4.903-1.34-7.962-.13m211.5.673c1.668 1.023 1.835 1.304.5.845-1.1-.379-2.562-.71-3.25-.736-.687-.026-1.25-.422-1.25-.881 0-1.199 1.15-.977 4 .772m-350.731.051c-.677.274-2.027.291-3 .037-.973-.254-.419-.478 1.231-.498 1.65-.02 2.446.187 1.769.461m59.731.43c-2.422.692-2.406.718.5.83 2.047.078 2.576.383 1.666.96-1.067.677-1.007.971.302 1.473.956.367 1.382.217 1.025-.36-.34-.551.496-.989 1.889-.989 1.375 0 2.821-.52 3.214-1.156.51-.824-.171-.979-2.37-.539-1.697.339-3.23.268-3.406-.159-.176-.426-1.445-.454-2.82-.06m52-.395c-6.079.643-16.563 3.2-19.588 4.778-3.496 1.823-2.661 1.86 4.588.201 7.328-1.676 14.856-1.521 16 .33.753 1.218.996 1.174 1.553-.278.501-1.304 1.909-1.742 5.804-1.803l5.143-.081-4-1.893c-2.2-1.041-4.45-1.832-5-1.759-.55.074-2.575.301-4.5.505m32.5.309c-1.1.473-2.9.846-4 .83-1.608-.024-1.51-.186.5-.83 3.419-1.095 6.048-1.095 3.5 0m5.5 0c0 .55.563 1.007 1.25 1.015.833.011.75.339-.25.985-1.314.849-1.304.971.083.985 2.303.022 3.063-1.104 1.786-2.643-1.311-1.579-2.869-1.765-2.869-.342m8.352-.24c.363.588.095 1.297-.596 1.576-.758.305-.562.537.494.585 1.979.089 2.34-1.438.595-2.516-.682-.422-.884-.277-.493.355M16.5 127.985c-4.321 1.159-10.847 2.029-10.175 1.356.88-.88 6.823-2.135 10.175-2.148l3-.013-3 .805m84.313-.302c.721.289 1.584.253 1.916-.079.332-.332-.258-.568-1.312-.525-1.165.048-1.402.285-.604.604m14.916-.079c-.332.332-1.195.368-1.916.079-.798-.319-.561-.556.604-.604 1.054-.043 1.644.193 1.312.525M145 128.617c0 .21-.9.383-2 .383s-2-.408-2-.906c0-.499.9-.671 2-.384 1.1.288 2 .696 2 .907m110.542 1.157c-.642.686-3.468-1.084-2.983-1.869.301-.487 1.153-.327 1.893.355.74.682 1.231 1.363 1.09 1.514m17.458.104c0 2.675.363 3.122 2.535 3.122 2.148 0 2.386-.28 1.555-1.832-.54-1.008-1.68-2.413-2.535-3.123-1.35-1.12-1.555-.878-1.555 1.833m-207.25-1.189c-.963.252-2.538.252-3.5 0-.962-.251-.175-.457 1.75-.457s2.713.206 1.75.457m-40.988.998c-.956.25-2.756.259-4 .02-1.244-.239-.462-.444 1.738-.455 2.2-.011 3.218.185 2.262.435M44.5 130c-.34.55-1.041 1-1.559 1s-.941-.45-.941-1 .702-1 1.559-1 1.281.45.941 1m-30.231.656c-.677.274-2.027.291-3 .037-.973-.254-.419-.478 1.231-.498 1.65-.02 2.446.187 1.769.461M158.5 131c-.34.55.11 1 1 1s1.34-.45 1-1c-.34-.55-.79-1-1-1-.21 0-.66.45-1 1m-6 1c-.34.55.084 1 .941 1s1.559-.45 1.559-1-.423-1-.941-1-1.219.45-1.559 1m-57.687.683c.721.289 1.584.253 1.916-.079.332-.332-.258-.568-1.312-.525-1.165.048-1.402.285-.604.604m4.937-.021c.688.278 1.813.278 2.5 0 .688-.277.125-.504-1.25-.504s-1.937.227-1.25.504m45 0c.688.278 1.813.278 2.5 0 .688-.277.125-.504-1.25-.504s-1.937.227-1.25.504" fill="#014" fill-rule="evenodd"/></svg>
