<svg width="420" height="124" xmlns="http://www.w3.org/2000/svg"><path d="M0 6.08c0 3.256.405 5.808.9 5.67.495-.137.983.2 1.085.75.102.55.623 1.527 1.157 2.171.706.851.409 1.024-1.085.634C.888 14.999 0 15.249 0 15.883c0 1.635 3.551 1.363 5-.383 1.031-1.242.923-1.503-.628-1.515-1.13-.01-1.437-.307-.773-.75.604-.404 1.092-1.515 1.083-2.469-.012-1.331-.325-1.477-1.349-.628-.915.76-1.333.773-1.333.043C2 8.193 4.298 7.688 5.551 9.4c.828 1.133 1.38 1.308 1.642.52.218-.652 1.78-1.239 3.472-1.303 3.488-.133 3.489-2.242 0-2.922L8.5 5.272l2.215-.136c2.846-.175 4.206 2.426 3.747 7.165-.23 2.377.01 3.525.655 3.127.561-.347.814-1.165.563-1.819-.259-.674.994-1.644 2.891-2.237 1.841-.576 3.198-.783 3.016-.46-.182.323.436 1.375 1.374 2.337 1.405 1.441 1.706 1.485 1.706.25 0-.824-.347-1.499-.772-1.499-.424 0-.703-.9-.62-2 .083-1.1.312-2 .509-2 .788 0 2.722 2.576 2.816 3.75.366 4.572.431 4.749 1.264 3.435C28.814 13.687 28.16 9 27 9c-.422 0-1.002-.901-1.29-2.001-.288-1.101-.147-1.769.314-1.484.461.285 1.143.024 1.516-.58.373-.603 2.092-1.967 3.819-3.031L34.5-.03 17.25.065 0 .16v5.92m288.521-3.983c.414 1.322 1.974 5.103 3.466 8.403 4.668 10.323 4.667 11.067-.021 16.153-2.265 2.457-4.835 6.128-5.711 8.157-1.67 3.872-2.384 17.961-1.106 21.813.812 2.446-.691 4.377-3.408 4.377-1.158 0-1.62-.471-1.226-1.25.348-.687-.075-.376-.941.691-.866 1.068-1.574 1.632-1.574 1.254 0-.378-2.341.203-5.203 1.29-4 1.52-5.383 1.692-5.984.746-.529-.833-.797-.584-.828.769-.042 1.836-.129 1.857-1.063.255-.815-1.401-1.279-1.501-2.344-.506-.73.682-1.113 1.799-.851 2.482.267.695-.778 1.723-2.375 2.335l-2.852 1.095 3 2.513c1.95 1.634 2.56 2.686 1.744 3.005-.691.271-1.005.898-.698 1.395.307.497-.214.607-1.158.245-1.164-.447-1.484-.283-.993.511.398.644 1.345 1.17 2.105 1.17 1.755 0 2.569 1.332 3.179 5.2.422 2.678.247 2.977-1.347 2.309-1.733-.725-4.284-1.239-7.082-1.426-.687-.046-1.25-.71-1.25-1.476 0-1.213-2.13-2.757-4.167-3.021-.366-.047-.982-.402-1.369-.788-.386-.387-1.385-.02-2.219.814-.987.987-1.857 1.176-2.494.539-1.107-1.107-.051-3.454 1.205-2.678.449.278 1.382-.175 2.072-1.007 1.027-1.237.995-1.412-.172-.964-.95.364-1.427-.138-1.427-1.502 0-1.148.512-1.853 1.163-1.603.641.246 1.696-.081 2.345-.725.905-.898 1.045-.813.598.363-.441 1.159.206 1.596 2.638 1.781 3.808.291 4.771.982 2.941 2.113-1.021.632-1.048.994-.114 1.571.931.575.897.964-.143 1.667-1.106.747-1.08.887.143.756 2.907-.31 4.111.088 3.458 1.145-.363.588-1.313.818-2.111.512-.85-.327-1.184-.126-.807.484.354.573 1.165.854 1.802.624.637-.23 1.855-.061 2.708.375 1.186.607 1.55.239 1.55-1.57 0-1.3-.342-2.153-.759-1.895-.919.568-4.841-1.758-4.841-2.871 0-.435.901-1.125 2.003-1.532 1.884-.697 1.907-.879.383-3.054-1.045-1.492-2.289-2.138-3.504-1.82-1.037.271-1.652.116-1.367-.345.285-.461.104-1.093-.401-1.406-.505-.312.4-1.98 2.013-3.706s3.219-2.852 3.569-2.501c.351.35.112.637-.529.637-.642 0-1.167.45-1.167 1 0 1.94 3.076.971 3.969-1.25.497-1.238.94-1.8.983-1.25.043.55.515.325 1.048-.5 1.27-1.965 1.25-3-.059-3-.582 0-.804.413-.491.919.312.505-.899 1.213-2.691 1.574-5.481 1.104-6.759 1.601-6.759 2.633 0 .546.45.714 1 .374.55-.34 1-.168 1 .382 0 1.519-1.995 2.429-2.032.927-.022-.926-.389-.84-1.254.295-.672.883-2.239 1.928-3.482 2.322-1.244.395-2.032 1.088-1.752 1.541.28.453-.108 1.06-.861 1.349-.753.289-1.369 1.72-1.369 3.18 0 1.46-.572 3.183-1.272 3.829-.997.921-1.149.823-.703-.453.313-.896.109-2.088-.453-2.65-1.479-1.479-4.962 2.249-4.129 4.419.437 1.139.267 1.452-.523.964-.702-.434-1.17-.1-1.17.836 0 1.927 2.591 2.068 3.315.181.291-.758.001-1.949-.643-2.647-.923-1-.783-1.132.66-.622 1.007.356 2.02.647 2.25.647 1.145 0 .213 3.015-1.172 3.79-2.092 1.171-1.99 2.462.266 3.351 1.671.658 1.654.724-.203.789-1.116.038-3.141.821-4.5 1.738-1.36.918-2.139 1.297-1.732.842 1.142-1.273-1.178-3.455-3.064-2.881-1.024.311-.858-.005.426-.81 1.157-.725 1.907-1.881 1.667-2.569s-.002-1.25.53-1.25 1.212-1.013 1.513-2.25l.546-2.25-1.552 2.25c-1.635 2.372-3.307 2.974-3.307 1.191 0-.582.427-.795.949-.472 1.055.652 2.653-6.201 1.674-7.179-1.125-1.126-7.658-1.156-6.964-.033.389.63.168.754-.553.308-.921-.569-.929-1.074-.032-2.154.644-.776.836-1.411.426-1.411s-.189-.67.491-1.489c.68-.819 1.631-1.245 2.114-.946.484.299 1.626.125 2.539-.386 1.325-.741 1.077-.929-1.223-.929-1.586 0-3.386.687-4 1.526-.895 1.225-1.276 1.268-1.923.221-.533-.863-.416-1.064.347-.592.702.433 1.155.04 1.155-1.001 0-1.587-.149-1.58-2 .096-1.205 1.091-2.05 1.351-2.125.655a75.578 75.578 0 00-.311-2.405c-.103-.687.291-1.925.875-2.75.913-1.291.824-1.314-.645-.164-.939.735-2.145 1.065-2.681.734-.536-.332-1.3-.076-1.698.568-.483.781-.288.901.585.362.867-.536 1.068-.418.594.348-.539.872-1.256.858-2.905-.055-1.204-.667-2.718-1.106-3.364-.976-.646.13-1.473-.248-1.839-.839-.466-.755-1.084-.727-2.075.096-1.08.896-1.411.892-1.411-.019 0-.717-.761-.948-1.916-.582-1.054.335-2.205.14-2.559-.432-1.105-1.788-2.363-1.137-1.819.941.383 1.466-.162 2.241-2.094 2.975-1.437.547-2.61 1.117-2.607 1.268.003.151 2.058.394 4.568.539 2.856.166 4.331-.11 3.943-.738-.36-.583.03-.754.932-.408 2.44.937 1.812-.568-.698-1.672-2.098-.922-2.063-.963.524-.601 1.525.213 3.028-.025 3.339-.528.322-.521 1.177-.406 1.988.267 1.158.961 1.188 1.484.161 2.799-1.106 1.417-1.057 1.457.399.318 1.193-.933 1.855-.984 2.35-.183.379.613.532 1.234.339 1.38-4.677 3.541-7.094 4.402-6.261 2.231.289-.754-.175-1.64-1.032-1.969-.856-.328-1.557-.161-1.557.371 0 .533.408.969.906.969.499 0 .653.97.343 2.156-.387 1.478-.2 1.932.593 1.441.729-.45 1.158.021 1.158 1.271 0 1.092-.787 2.149-1.75 2.349-1.422.296-1.329.479.501.98 1.249.342 2.002.213 1.691-.29-.308-.499.19-.907 1.106-.907 1.134 0 1.465.524 1.036 1.641-.529 1.378-.383 1.437.905.368 1.183-.982 1.271-1.594.381-2.666-.635-.765-.915-1.631-.622-1.925.833-.832 4.952 5.449 4.283 6.532-.327.529-1.368.726-2.313.437-.945-.289-.691.092.563.846 1.255.754 1.944 1.709 1.531 2.122-.413.413.112.419 1.168.014 1.12-.43 1.42-.902.719-1.136-.659-.22-1.199-.86-1.199-1.423 0-.563.698-.756 1.552-.428.854.327 1.296.181.984-.324-.313-.506-.042-1.245.602-1.643.731-.452.903-.291.457.43-.392.635-.21 1.155.405 1.155s.843.445.507.989c-.336.543-.021.762.701.485.721-.277 2.082.741 3.025 2.261.943 1.521 1.726 2.176 1.74 1.456.015-.72.48-1.029 1.034-.687.554.343 1.266-.052 1.583-.877.61-1.591 3.41-1.108 3.41.587 0 .55-.661.746-1.468.437-2.418-.928-2.663.979-.45 3.495 1.139 1.295 1.785 1.792 1.435 1.104-.349-.687-.207-1.25.317-1.25s1.187.613 1.474 1.361c.288.749 1.487 1.614 2.665 1.922 1.763.461 1.933.309.962-.862-1.455-1.753.144-1.885 2.067-.171 1.168 1.042 1.209.992.241-.302-.999-1.337-.624-1.545 2.703-1.5 2.124.028 3.683.342 3.464.697-.219.355.293.911 1.139 1.235 1.189.457 1.301 1.032.494 2.539-1.612 3.012-1.163 3.894.549 1.081l1.522-2.5-.576 2.75c-.506 2.417-.275 2.75 1.912 2.75 2.7 0 2.645 2.366-.079 3.411-.951.365-1.252.126-.849-.672.345-.682-.093-.35-.973.736-1.319 1.63-1.929 1.769-3.489.795-1.514-.946-2.144-.874-3.168.36-.788.95-2.354 1.382-4.085 1.128-1.544-.226-2.807-.115-2.807.249 0 .363-.562.703-1.25.755-3.609.275-10.699 1.454-14.023 2.332-2.075.547-4.123.779-4.55.515-.427-.264-1.297.353-1.932 1.37-.91 1.457-.842 2.111.318 3.073 1.571 1.304 4.957 7.822 4.318 8.311-.21.161-2.406 1.269-4.881 2.464l-4.5 2.171 105.75.001L420 124v-9.067c0-8.152-.177-9.019-1.75-8.588-9.258 2.54-15.11 1.707-17.521-2.494-2.258-3.935-2.184-5.13.271-4.351 2.254.716 2.45.21.981-2.535-.743-1.389-2.011-1.865-4.693-1.765-2.021.076-3.849-.384-4.062-1.022-.273-.819-.806-.741-1.811.264-2.102 2.102-6.082.954-9.423-2.718-1.614-1.773-2.947-3.605-2.963-4.07-.016-.465-1.019-2.235-2.228-3.933-1.504-2.113-1.818-3.215-.994-3.49 1.356-.452.619-2.231-.925-2.231-.55 0-.722.45-.382 1 .34.55.145 1-.433 1-.577 0-1.612-.9-2.299-2-.687-1.1-1.816-2-2.509-2-.692 0-1.146-.369-1.009-.821.138-.451-1.1-2.028-2.75-3.504-1.767-1.581-2.264-2.426-1.209-2.057 1.21.424 1.696.182 1.5-.745-.181-.853.41-1.253 1.559-1.056 1.111.19 1.587-.11 1.191-.75-.4-.647.324-1.067 1.841-1.067 2.821 0 4.251-1.491 2.48-2.585-.731-.452-.903-.291-.457.43.449.728-.036 1.155-1.311 1.155-1.113 0-2.52-.927-3.126-2.06-1.589-2.969-6.171-2.278-7.038 1.06l-.649 2.5-1.119-2.757c-.614-1.516-1.764-4.007-2.555-5.536-1.329-2.571-1.294-2.778.478-2.778 1.053 0 1.915.286 1.915.636 0 .35 1.54.154 3.423-.435 1.882-.589 3.188-1.45 2.902-1.914-.287-.463.306-1.826 1.316-3.029 1.011-1.203 1.434-1.853.94-1.446-.493.408-1.585.183-2.426-.5-1.29-1.046-1.422-.954-.842.593.423 1.125.273 1.695-.387 1.475-.592-.198-1.11-.798-1.152-1.334-.041-.536-.795-1.571-1.675-2.299-.963-.798-1.035-1.031-.18-.587 1.253.652 3.117.96 7.939 1.312.961.07 1.172.905.72 2.849-.408 1.756-.316 2.267.253 1.415.491-.735 1.186-1.259 1.545-1.165 1.829.479 8.66-1.339 9.689-2.578.981-1.182.569-1.443-2.443-1.547-5.391-.186-5.615-.249-6.643-1.875-.522-.825-.955-.99-.964-.366-.015 1.17-5.534 1.181-6.702.012-.629-.629 1.259-1.059 3.106-.708.506.096.281-.612-.5-1.574-.906-1.116-.967-1.477-.169-.997 1.833 1.101 1.569-1.858-.305-3.412-2.216-1.839-3.775-4.955-2.48-4.955.569 0 1.035.675 1.035 1.5s.482 1.5 1.071 1.5c.59 0 1.779.708 2.644 1.572 1.795 1.795 5.752 1.203 8.498-1.271 1.003-.904 2.441-1.264 3.472-.868 1.507.578 1.548.815.287 1.651-1.036.688-.584.778 1.528.306 3.644-.815 3.242-.498 3.655-2.89.19-1.1-.165-1.905-.787-1.789-.623.116-1.073-.559-1-1.5.086-1.111-.601-1.711-1.956-1.711-1.149 0-2.923-.675-3.942-1.5-1.648-1.333-1.756-1.333-.97 0 .767 1.302.657 1.316-.838.103-2.206-1.791-7.49.154-5.9 2.172 1.145 1.453 1.236 4.725.13 4.725-1.384 0-1.939-1.818-.683-2.236.728-.243-.179-1.659-2.242-3.502-2.355-2.104-3.833-2.788-4.618-2.137-.762.633-1.335.52-1.684-.333-.337-.821-.78-.472-1.214.958-.376 1.238-1.194 2.257-1.818 2.265-.625.009-.46.499.367 1.095 1.248.897 1.192.979-.332.484-1.007-.327-3.171-.594-4.809-.594-1.904 0-2.733-.395-2.3-1.096.373-.603 1.999-.902 3.613-.665 2.181.32 3.206-.077 3.992-1.545 1.084-2.025 8.801-25.592 8.824-26.944.006-.413-7.413-.75-16.488-.75-15.036 0-16.503.155-16.532 1.75-.029 1.583-.171 1.565-1.5-.191-1.964-2.597-2.027.197-.068 2.995 1.881 2.685.224 4.904-4.671 6.255l-3.708 1.024-2.76-4.916c-1.519-2.703-3.058-4.915-3.42-4.916-.363-.001-.042 2.341.713 5.202.755 2.862 1.276 5.285 1.159 5.384-.117.099-1.563.468-3.213.82-2.772.592-3.102.354-4.347-3.133-.741-2.076-1.416-4.786-1.5-6.024-.194-2.858-.43-2.828-3.963.5l-2.92 2.75.414-3.75c.375-3.39.188-3.75-1.944-3.75-1.297 0-2.109.403-1.805.895.305.493-.09 1.142-.876 1.444-.786.302-1.574.116-1.75-.413-.177-.53-2.733-1.248-5.681-1.597-5.31-.629-5.353-.613-4.607 1.768M22.25 1.662c-.687.278-1.812.278-2.5 0-.687-.277-.125-.504 1.25-.504s1.938.227 1.25.504m12.75.22c0 .55.45 1.278 1 1.618.55.34 1 .168 1-.382S36.55 1.84 36 1.5c-.55-.34-1-.168-1 .382M17.237 4.163C16.262 5.138 13 4.268 13 3.032c0-.415 1.157-.534 2.57-.263 1.529.292 2.204.857 1.667 1.394m119.059 3.65c-1.965 2.659-2.028 3.125-.673 5.059 1.703 2.431 2.02 10.415.561 14.128-.541 1.375-2.405 3.848-4.144 5.495-2.693 2.551-3.123 3.612-2.905 7.162.145 2.352-.32 4.86-1.066 5.76-.888 1.07-1.112 2.913-.681 5.609.449 2.807.148 4.987-1 7.244-2.217 4.361-2.194 4.348-3.972 2.157-.861-1.06-1.299-1.397-.976-.749.328.655-.365 1.481-1.558 1.859-1.645.522-1.83.877-.793 1.518 2.018 1.247.965 1.741-5.101 2.391-3.606.386-4.993.264-4.045-.357 1.168-.765 1.22-1.436.272-3.517-1.256-2.757-2.66-3.279-3.81-1.417-.473.763-.271.88.595.345.848-.524 1.067-.418.622.302-.377.611-1.312.871-2.077.577-.765-.293-2.325.401-3.468 1.544C100.935 64.065 99.55 65 99 65c-.55 0-1 .364-1 .809 0 .445-.658 1.682-1.462 2.75-1.433 1.903-1.455 1.9-1.091-.135.289-1.616-.108-2.034-1.788-1.887-1.187.105-2.732-.263-3.433-.816-.701-.553-1.52-.761-1.819-.461-.3.3.811 1.347 2.469 2.326 1.659.98 2.784 2.156 2.501 2.614a.995.995 0 01-1.369.305c-1.302-.805.989 6.635 2.513 8.159.735.735 1.838 1.336 2.451 1.336 1.825 0 .712-3.275-1.972-5.805-1.375-1.296-1.968-2.088-1.318-1.759.649.329 1.774-.225 2.5-1.23 2.246-3.114 3.813-3.518 6.027-1.554 2.061 1.83 2.07 1.824.82-.554-1.069-2.034-1.039-2.316.195-1.842.802.307 2.092.108 2.867-.443 1.134-.806 1.081-.897-.268-.467-.922.294-2.215-.113-2.872-.905-.658-.793-1.028-1.475-.823-1.518 3.415-.701 4.434-.536 5.474.886.918 1.255.947 2.069.114 3.188-.928 1.246-.88 1.289.282.253 1.99-1.774 5.131-1.493 7.752.694 2.63 2.193 2.784 2.723.794 2.723-.801 0-1.257-.323-1.013-.718.244-.394-.837-1.247-2.402-1.896-2.432-1.007-3.406-.863-6.704.989-2.911 1.635-4.271 1.911-5.533 1.123-1.235-.772-2.16-.647-3.533.476-1.552 1.271-1.582 1.436-.182 1 .922-.287 2.198.106 2.835.874.915 1.102 1.555 1.148 3.048.215 1.473-.919 2.172-.896 3.165.104 1.036 1.044.916 1.148-.639.555-1.497-.57-1.718-.419-1.015.691.494.781.917 1.645.94 1.92.094 1.137 2.431 4.415 2.459 3.45.016-.578-.468-1.548-1.077-2.157-.81-.81-.474-1.445 1.25-2.364 2.108-1.124 2.219-1.089 1.05.329-1.116 1.352-1.042 1.528.5 1.201 5.08-1.078 10.365-1.133 10.022-.104-.202.606.454 1.984 1.459 3.062 2.427 2.605 2.296 4.483-.561 8.054-1.987 2.483-2.626 2.763-3.897 1.709-.836-.694-1.81-2.419-2.165-3.833-.599-2.388-.772-2.457-2.412-.973-1.403 1.27-2.022 1.345-3.012.362-.991-.984-1.11-.879-.579.514.673 1.769-.174 2.171-3.798 1.802-2.703-.275-2.068 1.654.72 2.187 1.623.31 2.25.093 1.828-.633-.353-.609.336-.249 1.53.799 2.59 2.272 2.58 2.224.62 2.977-1.006.386-1.303.192-.844-.551.485-.785.006-.962-1.522-.563-1.416.371-2.865-.051-3.969-1.155-1.77-1.77-1.747-4.113.042-4.113.543 0 1.743-.762 2.666-1.694 1.573-1.587 1.563-1.65-.153-1-1.007.382-2.395.694-3.083.694-.688 0-1.304.563-1.368 1.25-.064.688-.252 2.15-.417 3.25-.177 1.182.211 1.898.95 1.75.688-.137 1.25.2 1.25.75s-1.125 1-2.5 1-2.5-.408-2.5-.906c0-1.337-4.085-.035-4.67 1.488-.326.849-1.692 1.152-3.915.867-1.889-.241-3.415.007-3.415.557 0 .989 1.366 1.378 3.75 1.069.688-.09 1.25.457 1.25 1.214 0 2.1-1.168 2.816-2.624 1.608-.72-.597-1.886-.854-2.592-.57-.785.315-.581.546.525.594.995.043 1.531.529 1.191 1.079-.34.55.196 1.007 1.191 1.015 1.326.012 1.464.234.518.835-.803.509.312.882 2.951.985 5.051.198 6.694 1.431 4.855 3.647-.715.861-1.502 1.365-1.748 1.118-.919-.919-8.907 2.589-12.767 5.607a782.214 782.214 0 01-5.171 4.018c-.826.627-1.023.322-.67-1.03.32-1.222-.123-2.159-1.22-2.58-1.411-.541-1.505-.4-.523.783.991 1.195.845 1.352-.848.91-1.125-.295-1.799-.934-1.498-1.422.302-.487.006-.886-.656-.886-1.182 0-2.241.861-8.577 6.973-2.14 2.065-3.327 2.643-3.671 1.789-.309-.768-.539-.578-.587.488-.074 1.629 1.963 1.75 29.442 1.75h29.522l3.871-2.562c3.518-2.328 4.452-2.498 10.229-1.865 3.496.384 8.027 1.536 10.067 2.562 4.908 2.467 20.346 2.757 19.428.365-.428-1.117.152-1.5 2.271-1.5 2.821 0 5.969-2.455 4.734-3.691-.354-.353-.661-.005-.684.774-.022.787-1.368-.136-3.024-2.075-1.642-1.92-2.523-3.645-1.96-3.833.564-.188 1.025-1.152 1.025-2.143C164 107.31 160.812 98 159.879 98c-.449 0-.557-.675-.241-1.5.38-.99-.056-1.527-1.281-1.579-1.053-.045-1.316-.297-.607-.583 3.245-1.31.397-4.958-5.437-6.963-3.086-1.061-3.384-1.011-2.789.468 3.458 8.602 8.468 24.734 8.034 25.868-.338.879-1.277 1.195-2.448.824-1.085-.344-2.545.043-3.405.903-1.302 1.302-1.667 1.312-2.692.078-.651-.785-5.084-3.309-9.849-5.608-4.765-2.299-8.966-4.649-9.334-5.223-.369-.575-1.422-1.155-2.342-1.29-2.351-.345-3.176-1.395-1.096-1.395.949 0 1.448-.45 1.108-1-.944-1.528 1.278-1.191 4.027.609 1.376.902 2.155 2.111 1.772 2.75-.49.82-.277.813.759-.024.793-.641 1.817-1.166 2.275-1.167.459-.001 1.134-.336 1.5-.745.367-.409.136-.439-.514-.067-.649.372-1.434.266-1.744-.235-.31-.501.074-1.156.853-1.455.924-.355 1.21-1.347.821-2.855-.52-2.019-.394-2.146.997-1.006 1.317 1.08 1.736 1.062 2.423-.103.457-.775 1.494-1.621 2.305-1.88 1.036-.331.812-.645-.751-1.053-1.224-.321-1.974-.174-1.665.324.765 1.239-3.24 1.148-5.624-.128-1.333-.714-1.934-.714-1.934 0 0 .569.6 1.035 1.333 1.035.734 0 1.334.668 1.334 1.484 0 1.124-.324 1.215-1.334.378-1.658-1.377-1.773.298-.133 1.938.933.933.901 1.478-.147 2.45-.813.755-1.093.797-.705.105.352-.63-.059-1.414-.915-1.742-1.195-.459-1.384-1.353-.816-3.855.407-1.792.709-5.851.672-9.02-.058-4.903.326-6.182 2.571-8.575 1.452-1.547 3.626-3.067 4.831-3.379 1.925-.497 2.397.087 3.88 4.804.929 2.953 2.081 5.127 2.559 4.832.479-.296.87-.061.87.521 0 .582-.702 1.059-1.559 1.059s-1.31.403-1.006.895c.304.492 2.193.059 4.198-.963 2.004-1.022 4.144-2.071 4.756-2.332.681-.291.337-1.127-.889-2.162-1.975-1.667-1.971-1.681.341-1.133 2.072.491 2.27.275 1.728-1.886-.539-2.147 1.943-7.292 4.542-9.419.336-.275.932-2.673 1.323-5.329.579-3.928 1.025-4.72 2.389-4.247 1.482.513 1.474.423-.073-.782-2.208-1.719-2.273-3.057-.109-2.226 1.337.513 1.419.362.445-.812-.955-1.151-.832-1.655.609-2.493 1.162-.676 1.322-1.061.449-1.081-.746-.016-2.243 1.097-3.326 2.474-2.747 3.492-10.036 8.297-11.707 7.718-.847-.293-1.117-.04-.691.648.95 1.537-1.372 1.364-4.42-.33l-2.5-1.389 2.5-.98c4.304-1.686 6.926-4.851 6.403-7.732-.259-1.429-.118-2.381.313-2.115 1.368.845.817-5.976-.622-7.711-.758-.914-1.599-1.441-1.868-1.172-.269.269-1.33.039-2.357-.511-1.498-.802-1.876-.646-1.904.785-.028 1.388-.343 1.229-1.419-.713-1.344-2.429-1.136-4.42.258-2.473.631.88 1.851 1.362 4.696 1.854.55.095 1.675.598 2.5 1.117s2.167 1.044 2.982 1.167c.815.123 1.64.699 1.833 1.279.193.579 1.102 1.047 2.018 1.039 1.31-.012 1.378-.199.317-.871-1.065-.675-.695-1.759 1.75-5.135 2.975-4.106 4.114-9.632 2.35-11.396-.412-.412-.806-1.612-.875-2.666-.24-3.673-.387-3.917-2.375-3.917-1.1 0-2-.45-2-1s-1.602-1-3.559-1-3.348-.342-3.09-.759-1.271-1.605-3.398-2.64c-2.127-1.035-4.899-3.016-6.16-4.402-1.261-1.387-1.73-2.197-1.043-1.801.688.396 1.25.228 1.25-.374 0-.785.589-.779 2.086.022 1.147.614 2.306.896 2.575.626.269-.269-.444-.786-1.586-1.148-1.141-.362-2.075-1.105-2.075-1.65 0-.546-.412-.738-.915-.427-.503.311-1.074.087-1.269-.499-.195-.585-1.329.254-2.52 1.865m222.433-.209c-.332.332-1.195.368-1.916.079-.798-.319-.561-.556.604-.604 1.054-.043 1.644.193 1.312.525M10.813 10.683c.721.289 1.584.253 1.916-.079.332-.332-.258-.568-1.312-.525-1.165.048-1.402.285-.604.604M145.273 14c1.398 1.1 3.596 1.997 4.885 1.993 2.237-.006 2.207-.095-.658-1.993-1.65-1.093-3.848-1.99-4.885-1.993-1.625-.006-1.535.268.658 1.993m-127.615.551c.306.797.958 1.449 1.449 1.449 1.438 0 1.026-1.735-.556-2.342-.969-.372-1.265-.076-.893.893m129.868 4.256c-.307.308-1.114.001-1.793-.683-.98-.988-.865-1.102.56-.56.986.376 1.541.935 1.233 1.243m176.553 6.443c.063 1 .18 1 .583 0 .278-.687.917-1.25 1.421-1.25 1.826 0 .841 1.536-2.033 3.171-2.316 1.318-3.155 1.408-3.969.426-.719-.865-.675-1.603.143-2.421 1.546-1.546 3.755-1.504 3.855.074M377 34.059c0 1.132-.45 1.781-1 1.441-.55-.34-1-1.266-1-2.059 0-.793.45-1.441 1-1.441s1 .927 1 2.059m-20.008.927c.957 1.787.835 1.901-1.214 1.143-1.253-.463-2.84-.644-3.528-.402-.687.242-1.25-.273-1.25-1.144 0-2.341 4.692-2.026 5.992.403m-216.263 4.479l.397 2.965-2.063-2.623c-2.499-3.176-2.595-4.057-.397-3.63.987.191 1.829 1.533 2.063 3.288M372.5 41c.34.55 1.068 1 1.618 1s.722-.45.382-1c-.34-.55-1.068-1-1.618-1s-.722.45-.382 1M356 43c0 .55-.477 1-1.059 1s-.781-.45-.441-1 .816-1 1.059-1 .441.45.441 1m-13.54 4.75c.95 3.167-1.268 2.886-2.485-.315-.536-1.411-.975-3.082-.975-3.714 0-1.726 2.665 1.378 3.46 4.029M404 44.393c0 .216.698.661 1.552.989.89.341 1.291.173.941-.393-.587-.951-2.493-1.406-2.493-.596M92.459 46.067c-.363.586-.445 1.281-.183 1.543s.743-.218 1.069-1.067c.676-1.762.1-2.072-.886-.476M153 47.565c0 1.872.458 2.493 1.667 2.258 2.46-.477 2.617-2.164.336-3.589-1.81-1.13-2.003-1.002-2.003 1.331m107.325.581c1.004.57 2.084.778 2.401.461.317-.317 1.153.205 1.858 1.159 1.004 1.359 1.514 1.465 2.357.492.592-.683.776-1.024.409-.758-.366.265-1.297-.041-2.067-.68-.771-.64-2.612-1.287-4.092-1.437-2.313-.236-2.434-.129-.866.763M104 49.094c0 .498.9.906 2 .906s2-.173 2-.383c0-.211-.9-.619-2-.907-1.1-.287-2-.115-2 .384m249.054 3.189c-.913.993-4.054-.167-4.054-1.497 0-.55.67-.743 1.488-.429s1.44.25 1.382-.143c-.302-2.022.372-2.465 1.087-.714.449 1.1.492 2.352.097 2.783M415 49c-.901.582-1.025.975-.309.985.655.008 1.469-.435 1.809-.985.767-1.242.421-1.242-1.5 0M39 50c0 .55.423 1 .941 1s1.219-.45 1.559-1c.34-.55-.084-1-.941-1S39 49.45 39 50m4.459-.066c.838 1.355-1.58 2.553-4.413 2.187-2.147-.278-2.288-.117-1.128 1.281 1.54 1.854 2.537 2.144 1.477.428-.496-.803-.162-.954 1.068-.483 1.16.446 2.254.065 3.105-1.08 1.021-1.372 1.706-1.527 3.064-.696 2.434 1.492 2.851 3.328.675 2.977-.994-.16-2.35.14-3.013.667-.664.526-1.634.693-2.157.37-.536-.331-.722.285-.427 1.414.693 2.648 2.139 2.538 3.259-.249.904-2.249.904-2.249 1.084.25.125 1.747.317 1.973.636.75C47.174 55.897 49 55.304 49 57c0 .55.45 1 1 1s.888-.552.75-1.226c-.377-1.851 3.493-2.059 5.757-.309 1.989 1.537 1.989 1.539-.007.943-1.609-.48-1.708-.391-.508.456 1.699 1.199 3.591-.112 2.562-1.777-.37-.598-1.433-1.094-2.363-1.102-1.467-.014-1.492-.155-.191-1.066 1.18-.826 1.028-.918-.712-.429-2.657.746-6.622-1.141-5.661-2.695.392-.635.227-.823-.389-.442-.588.364-2.259.209-3.711-.343-1.508-.573-2.395-.606-2.068-.076M88.5 50c-.34.55-.141 1 .441 1S90 50.55 90 50s-.198-1-.441-1-.719.45-1.059 1m5.5 0c-.825.533-1.073.976-.55.985.523.008.41.555-.25 1.215-1.725 1.725-1.477 2.844.464 2.099 1.208-.464 1.44-.276.846.686-.534.862-.432 1.085.292.637.611-.377.829-1.42.484-2.318-.393-1.026-.226-1.385.451-.967.685.424.886-.062.553-1.336-.288-1.1-.583-1.994-.657-1.986-.073.009-.808.452-1.633.985m241.69 4.711c-1.204.67-2.495 1.234-2.867 1.254-1.436.075-1.396-3.553.058-5.27 1.461-1.725 1.604-1.704 3.264.497 1.672 2.216 1.655 2.346-.455 3.519M28 51.059c0 .582.45.781 1 .441s1-.816 1-1.059S29.55 50 29 50s-1 .477-1 1.059m319 .441c-.685.825-1.64 1.5-2.122 1.5-.483 0-.878-.675-.878-1.5 0-.862.902-1.5 2.122-1.5 1.774 0 1.918.247.878 1.5m-256.981.488c-.783.484-1.895.612-2.471.285-.577-.328-.003.554 1.275 1.958 1.743 1.915 1.993 2.698 1 3.132-.98.429-.934.556.177.489 3.041-.181 4.102.173 3.49 1.164-.346.559-1.117.715-1.714.346-.678-.42-.794-.201-.309.584.584.945-.304 1.197-3.596 1.02-6.734-.361-9.871-.055-9.871.964 0 .57 1.233.577 3.184.017 3.335-.956 5.295-.452 2.465.634-.901.346-1.359 1.079-1.018 1.631.383.62.929.501 1.432-.313.483-.782 2.967-1.38 6.125-1.475 7.183-.215 7.585-.326 5.541-1.516-.974-.567-1.499-1.471-1.166-2.01.332-.538-.596-1.923-2.063-3.077-2.006-1.578-2.344-2.299-1.363-2.906.718-.443 1.08-1.031.805-1.306-.275-.275-1.14-.104-1.923.379M99.5 52c-.34.55-.168 1 .382 1s1.278-.45 1.618-1c.34-.55.168-1-.382-1s-1.278.45-1.618 1m70.083-.134c-.431.697-.513 1.537-.183 1.867.895.895 1.871-.421 1.387-1.871-.338-1.016-.574-1.016-1.204.004M396 51.84c0 .462 1.861 1.454 4.136 2.205 2.274.75 3.636 1.531 3.025 1.735-.753.251-.635 1.093.368 2.625 1.682 2.567 1.174 3.592-1.441 2.908-1.212-.317-1.709-1.258-1.529-2.896.146-1.335-.125-2.185-.603-1.89-.478.295-.643 1.124-.368 1.841.548 1.429-2.249 1.578-4.422.235-.715-.442-1.553-.549-1.864-.238-.311.31-1.313.165-2.226-.325-1.261-.674-1.696-.439-1.802.979-.094 1.24.341 1.682 1.292 1.317.789-.302 1.434-.115 1.434.418 0 .532 1.541.845 3.425.696 2.444-.194 3.949.32 5.25 1.794 1.809 2.048 1.804 2.053-.675.621-2.772-1.603-4.815-1.741-6.857-.464-1.142.715-1.142.985 0 1.709 1.05.665.951.863-.437.875-1.093.009-1.679-.599-1.5-1.557.233-1.249-.84-1.632-5.206-1.861-3.025-.159-5.95-.423-6.5-.587-.55-.163-1.807.055-2.793.485-1.69.737-1.695.891-.095 2.659.934 1.032 1.392 1.876 1.017 1.876-.374 0 .018 1.35.871 3 1.351 2.613 2.808 3.317 6.073 2.933.315-.038 1.665 1.111 3 2.551 1.346 1.453 2.439 2.039 2.454 1.318.014-.716.793-.065 1.731 1.448.938 1.513 2.051 2.75 2.474 2.75.422 0 .768.408.768.906 0 .499-.884.676-1.964.393-1.081-.282-1.927-.803-1.882-1.156.271-2.105-.519-2.661-3.577-2.517-1.883.089-3.874.44-4.424.779-.55.34-2.021-.815-3.269-2.567-1.325-1.862-2.439-2.672-2.68-1.949-.227.681.422 1.87 1.442 2.643 1.149.87 1.364 1.416.565 1.436-1.038.026-1.044.295-.03 1.381.693.742 1.948 1.17 2.789.952.87-.226 1.962.561 2.53 1.824.55 1.222 1.9 2.366 3 2.541 4.613.735 8.093 1.204 9.5 1.282 1.333.073 1.333.203 0 1.162-1.201.864-1.102.934.5.349 1.1-.401 3.575-1.067 5.5-1.479 3.044-.652 3.15-.765.815-.865-1.477-.063-3.839-.554-5.25-1.09-1.411-.537-2.565-.632-2.565-.213 0 1.432-3.837 1.056-4.408-.432-.335-.874-.143-1.22.467-.843.57.352 1.803.316 2.739-.081 2.579-1.092 6.202-1.417 6.202-.556 0 .421 1.661 1.274 3.692 1.898l3.692 1.133-2.442-2.337c-1.343-1.285-2.783-2.141-3.199-1.902-.416.239-1.027-.269-1.357-1.129-.33-.859-1.339-1.599-2.243-1.642-1.087-.052-1.209-.253-.361-.594.705-.283 2.505.302 4 1.301 1.495.999 3.089 1.706 3.542 1.57.454-.136.571.162.262.664-.31.501.345 1.148 1.454 1.438 1.763.461 1.969.127 1.629-2.636-.214-1.74-.189-2.324.055-1.298.245 1.026 1.302 2.09 2.349 2.363 1.048.274 1.676.868 1.396 1.32-.279.453.817.443 2.436-.022 1.62-.464 3.144-.645 3.387-.402.243.244.454-3.623.468-8.591.018-6.116-.343-9.039-1.117-9.049-.854-.012-.855-.201-.004-.75.826-.533.757-1.09-.25-2.024-.764-.71-1.389-.969-1.389-.576 0 .392-1.138-.356-2.529-1.663-1.392-1.307-2.306-2.96-2.032-3.674s.062-1.298-.47-1.298c-.533 0-.969.477-.969 1.059s-.562.741-1.25.353c-1-.564-1-.436 0 .641 1.834 1.976 1.53 3.727-.871 5.012-1.49.797-1.918.808-1.441.035.374-.605.177-1.1-.438-1.1s-.797-.52-.405-1.155c.417-.674.277-.884-.336-.505-.577.357-1.322-.061-1.654-.928-.919-2.394-.757-2.679 1.145-2.017 1.459.508 1.427.36-.191-.893-1.068-.826-2.391-1.502-2.941-1.502-.55 0-.127-.682.941-1.516 1.782-1.392 1.702-1.414-.98-.262-2.316.995-3.006.998-3.333.016-.459-1.378-3.246-1.72-3.246-.398m-224 .553c0 .216.698.661 1.552.989.89.341 1.291.173.941-.393-.587-.951-2.493-1.406-2.493-.596M185 53c0 .55.477 1 1.059 1s.781-.45.441-1-.816-1-1.059-1-.441.45-.441 1m202-.607c0 .216.698.661 1.552.989.89.341 1.291.173.941-.393-.587-.951-2.493-1.406-2.493-.596m4.257.607c.225.825 1.271 1.605 2.326 1.732 1.347.164 1.471.045.417-.4-.825-.347-1.872-1.127-2.326-1.732-.531-.707-.68-.565-.417.4m-16.993.718c1.52.229 3.77.223 5-.014 1.23-.237-.014-.425-2.764-.418-2.75.008-3.756.202-2.236.432M76 55c0 .55.477 1 1.059 1s.781-.45.441-1-.816-1-1.059-1-.441.45-.441 1m340.225 1.176c.169.811-.46 1.197-1.625.996-1.824-.315-1.829-.258-.111 1.459 2.548 2.549 5.419 2.802 5.243.463-.091-1.205-.662-1.674-1.601-1.314-.898.344-1.197.136-.779-.541.374-.605.212-1.39-.36-1.744-.573-.354-.918-.048-.767.681M51.722 58.011c-3.008 3.514-1.706 4.675 4.528 4.041 2.003-.203 2.377 1.519.5 2.304-.687.287.163.458 1.89.379 1.997-.091 2.972-.582 2.678-1.348-.559-1.458-6.3-3.972-8.135-3.562-1.028.229-1.075-.159-.215-1.766 1.394-2.604.958-2.621-1.246-.048m150.357-.428c.048 1.165.285 1.402.604.605.289-.722.253-1.585-.079-1.917-.332-.332-.568.258-.525 1.312m64.431-.567c.346.559 1.047.758 1.559.441 1.387-.857 1.129-1.457-.628-1.457-.857 0-1.276.457-.931 1.016M97.192 58.075c.197.591.785 1.075 1.308 1.075s1.111-.484 1.308-1.075c.197-.591-.391-1.075-1.308-1.075s-1.505.484-1.308 1.075m175.973-.198c-.735.466-1.297 1.134-1.25 1.485.226 1.695-.039 1.781-1.578.51-1.296-1.07-1.755-1.097-2.083-.122-.231.688-.86 1.25-1.396 1.25-.537 0-.638-.562-.225-1.25.51-.849.209-.81-.941.122-.931.755-1.692 1.679-1.692 2.052 0 1.305 6.931.864 8.074-.513.634-.764 1.548-1.145 2.031-.846.484.299 1.67.083 2.637-.48 1.566-.912 1.505-1.028-.551-1.055-1.279-.016-2.033-.476-1.691-1.03.748-1.21.427-1.24-1.335-.123m8.835.564c0 .857.45 1.559 1 1.559s1-.423 1-.941-.45-1.219-1-1.559c-.55-.34-1 .084-1 .941m95.405.413c1.048 1.181 2.312 2.146 2.809 2.146 1.408 0-.089-1.865-2.52-3.14-2.179-1.143-2.181-1.136-.289.994M5.878 58.847c.758.511 1.153 1.317.878 1.791s.342 1.728 1.372 2.787C9.26 64.589 10 64.857 10 64.104c0-.858.491-.756 1.571.325.865.864 2.327 1.564 3.25 1.556 1.45-.014 1.474-.148.179-.985-1.293-.835-1.266-.971.191-.985.93-.008 1.943-.423 2.251-.922.309-.498-.287-.685-1.324-.414-1.19.312-2.44-.301-3.395-1.663-.857-1.225-2.961-2.361-4.866-2.628-2.269-.318-2.91-.17-1.979.459m12.813-.156c-.307.497-.195 1.494.25 2.214.445.719 1.061.901 1.368.404.307-.497.195-1.494-.25-2.214-.445-.719-1.061-.901-1.368-.404M252.429 60c0 1.295.338 1.633.985.986.648-.648.648-1.324 0-1.972-.647-.647-.985-.309-.985.986m106.202-1.212c-.268.433.718.879 2.191.99 2.061.156 2.333-.022 1.178-.773-1.834-1.191-2.731-1.249-3.369-.217m14.182-.105c.721.289 1.584.253 1.916-.079.332-.332-.258-.568-1.312-.525-1.165.048-1.402.285-.604.604m-307 1.288c-1.477.452-3.012.531-3.41.176-.398-.356-.395-.077.006.619.401.697 1.219.964 1.818.594.709-.439.893.072.529 1.466-.471 1.8-.279 1.989 1.211 1.192.973-.521 2.126-.626 2.561-.233.435.393.493-.185.129-1.285-.568-1.717-.485-1.784.591-.474 1.293 1.576 7.752 2.36 7.752.941 0-1.332-2.387-1.755-4.309-.765-1.447.745-1.747.575-1.5-.849.358-2.064-1.546-2.554-5.378-1.382m46.943 1.779c1.415 2.16 3.015 3.306 1.744 1.25-.34-.55.11-1 1-1 .928 0 1.326-.472.934-1.107-.47-.76.061-.878 1.691-.376 1.306.402 2.035.373 1.62-.065-.416-.438-2.49-.831-4.61-.874-3.772-.076-3.822-.03-2.379 2.172M150 60c-.901.582-1.025.975-.309.985.655.008 1.469-.435 1.809-.985.767-1.242.421-1.242-1.5 0m31.507-.011c-.35.566.051.734.941.393 1.732-.665 2.049-1.382.611-1.382-.518 0-1.216.445-1.552.989m4.493-.596c0 .216.698.661 1.552.989.89.341 1.291.173.941-.393-.587-.951-2.493-1.406-2.493-.596m-15.62 2.059c-.676 1.761.303 3.554 1.929 3.533.847-.011.871-.228.083-.75-.61-.404-.987-1.523-.839-2.485.327-2.12-.403-2.306-1.173-.298M270.5 61c.34.55-.11 1-1 1s-1.34-.45-1-1c.34-.55.79-1 1-1 .21 0 .66.45 1 1m-37.25 1.25c.137.688-.346 1.126-1.074.975-.752-.156-1.028.206-.637.837.494.801.991.808 1.774.025 1.794-1.794 4.003-1.333 3.175.663-.399.963-.748 2.313-.774 3-.026.688-.621 1.25-1.322 1.25-.701 0-1.524.405-1.83.9-.306.495.84.804 2.547.685 2.379-.164 2.778.035 1.707.85-1.18.899-1.131 1.325.316 2.738 1.437 1.402 1.802 1.441 2.263.24.302-.787 1.124-1.315 1.827-1.172.703.142 1.165-.304 1.028-.991-.138-.688.294-1.138.959-1 .666.137 1.278-.732 1.361-1.931.145-2.105.058-2.124-2.46-.553-1.435.896-2.279 1.247-1.876.78.404-.466-.046-1.48-1-2.252-1.565-1.268-1.522-1.302.45-.349 2.738 1.322 3.61 1.339 2.816.055-.34-.55.282-1 1.382-1 1.1 0 2.246-.399 2.548-.886.655-1.061-3.623-2.352-4.394-1.326-.948 1.26-3.487.761-5.286-1.038-2.038-2.038-3.86-2.298-3.5-.5M240 62c-.901.582-1.025.975-.309.985.655.008 1.469-.435 1.809-.985.767-1.242.421-1.242-1.5 0M3 63.5c0 .825.436 1.5.969 1.5.532 0 .709-.675.393-1.5-.317-.825-.753-1.5-.969-1.5-.216 0-.393.675-.393 1.5m10.5-.5c.34.55.141 1-.441 1S12 63.55 12 63s.198-1 .441-1 .719.45 1.059 1m28 0c1.1.473 2.675.859 3.5.859.945 0 .761-.317-.5-.859-1.1-.473-2.675-.859-3.5-.859-.945 0-.761.317.5.859m68.5 0c0 .55-.45 1-1 1s-1-.45-1-1 .45-1 1-1 1 .45 1 1m75.27.474c-1.003 1.14-.884 1.373.64 1.258 1.089-.082 1.662-.683 1.373-1.437-.594-1.548-.485-1.558-2.013.179m10.543-.791c.721.289 1.584.253 1.916-.079.332-.332-.258-.568-1.312-.525-1.165.048-1.402.285-.604.604m51.977 1.997c.515 2.698 1.459 2.93 3.23.796 1.436-1.731.774-2.789-1.867-2.983-1.374-.101-1.701.422-1.363 2.187m-124.703.633c-.598.598-1.087 1.897-1.087 2.887 0 2.198-2.834 2.397-3.655.257-.766-1.997.516-3.299 1.57-1.594.62 1.003.991.881 1.605-.529.438-1.009.715-2.205.614-2.658-.101-.454.317-.515.928-.137.801.494.808.991.025 1.774M.73 64.643c-.286.471.108 1.437.875 2.146 1.546 1.429 1.842.464.505-1.646-.473-.746-1.094-.971-1.38-.5m39.924.898c.369.96.097 1.431-.722 1.25-.722-.16-1.501.609-1.73 1.709-.654 3.135-2.273 4.686-3.677 3.521-.665-.552-1.613-.67-2.106-.262-.494.407-.096-.216.885-1.385 1.625-1.939 1.638-2.182.149-2.754-2.391-.917-3.626.242-2.89 2.714.577 1.941.503 1.995-.71.517-1.99-2.425-5.853-3.382-5.853-1.45 0 1.041.554 1.324 1.717.877 1.523-.584 1.552-.479.25.931-.909.986-1.882 1.252-2.559.699-1.581-1.29-2.597.159-1.25 1.782.951 1.146.68 1.199-1.631.32-2.52-.958-2.724-.87-2.243.97.348 1.327.146 1.786-.585 1.334-2.056-1.271-5.788-1.269-5.025.002.432.72.064.66-.938-.152C9.869 74.651 8 75.378 8 77.618c0 .825.457 1.217 1.016.872.559-.346.698-1.16.308-1.809-.389-.65.103-.522 1.094.282 1.087.884 1.359 1.611.685 1.836-.613.204-.861.783-.55 1.286.311.503-.137.915-.994.915S8 81.477 8 82.059s.47.769 1.044.414c.574-.355 1.699-.101 2.5.563 1.143.949 1.794.928 3.032-.099.973-.807 1.835-.937 2.25-.339.797 1.146 2.197 1.174 3.924.078.713-.453 1.25-.339 1.25.265 0 .582.788 1.074 1.75 1.092 1.496.029 1.424.306-.5 1.911-2.693 2.246-2.961 3.507-.462 2.169 1.474-.789 1.824-.531 1.989 1.465.11 1.332-.264 2.422-.832 2.422s-.96.563-.87 1.25c.323 2.491-.104 3.417-1.575 3.417-.825 0-1.5-.6-1.5-1.334 0-1.638-1.624-1.75-2.595-.178-.443.715-.275.883.44.44.635-.392 1.211-.236 1.28.346.131 1.11.458 2.545.868 3.809.134.412.205 1.045.157 1.405-.048.36.574.909 1.382 1.219 1.653.634 2.064-1.888.468-2.874-1.162-.718-1.355-2.556-.25-2.382 2.24.354 3.092-.341 2.729-2.228-.344-1.785-.019-2.035 2.115-1.627 1.95.372 2.39.138 1.941-1.032-.462-1.204-.293-1.275.827-.346 1.134.942 1.531.678 2.042-1.358.349-1.39 1.131-2.527 1.737-2.527.769 0 .79.379.067 1.25-.782.943-.382 1.29 1.628 1.412 1.465.089 3.21-.29 3.877-.842.83-.687 2.25-.504 4.5.578 3.243 1.56 3.257 1.556 1.093-.274l-2.194-1.854 2.694-1.353c3.612-1.814 4.99-2.277 3.349-1.125-1.023.717-.701 1.105 1.341 1.618 1.687.423 2.494 1.174 2.17 2.019-.356.927.082 1.188 1.409.841 1.059-.277 1.925-.991 1.925-1.587 0-.713.41-.673 1.2.117.66.66 2.122 1.148 3.25 1.084 1.525-.086 1.629-.228.407-.553-1.064-.283-1.463-1.122-1.133-2.384.527-2.015 3.276-2.761 3.276-.888 0 .582.562.721 1.25.308.981-.589.978-.414-.014.811-1.102 1.361-.825 1.546 2.152 1.442 1.88-.066 3.245-.401 3.033-.745-.211-.344.732-.625 2.097-.625S73 87.722 73 88.299s1.042.071 2.314-1.125c1.273-1.196 2.736-2.167 3.25-2.159.515.009.293.423-.494.92-2.057 1.302-2.218 4.035-.227 3.878 3.082-.242 5.157.183 5.157 1.056 0 .478-1.376.708-3.059.513-2.77-.323-2.911-.21-1.5 1.202 1.755 1.755 2.076 2.853.559 1.916-.55-.34-1-.25-1 .2 0 1.646 3.628 3.152 5.089 2.114 1.143-.812 1.097-.903-.24-.478-1.056.336-1.829-.15-2.142-1.347-.634-2.425.252-3.268 1.951-1.858.989.821 1.713.806 2.753-.057.776-.644 1.657-.773 1.958-.287.602.975 4.227.95 5.213-.035.342-.343-.052-1.585-.876-2.761-.932-1.331-1.748-1.733-2.161-1.064-.992 1.606-5.523 1.293-6.183-.427-.317-.825-1.203-1.5-1.969-1.5-1.711 0-1.793-1.2-.193-2.8.66-.66.83-1.2.378-1.2-.453 0-.205-.761.55-1.692.947-1.167.982-1.458.115-.937-.763.459-1.508.102-1.896-.909-.351-.915-.085-2.006.591-2.424.92-.568.839-.91-.322-1.355-.854-.328-1.818-.165-2.143.361-.325.526-1.759.956-3.187.956-2.551 0-2.564.036-.747 2.043 1.806 1.996 1.798 2.056-.345 2.617-1.207.315-2.194.921-2.194 1.346 0 .424-.562.751-1.25.725-3.964-.147-5.81.363-5.155 1.424.453.731.274.882-.489.41-.934-.577-.927-1.076.031-2.23.978-1.179.979-1.646.001-2.249-.941-.582-.867-1.066.315-2.047.851-.706 1.554-.891 1.562-.411.009.479.424.226.924-.564.73-1.153 1.202-1.192 2.401-.197 1.228 1.019 1.606.879 2.137-.794.355-1.118 1.18-1.929 1.834-1.803.654.127 1.057-.557.895-1.52-.335-1.995 1.367-2.394 2.132-.5.363.901.526.918.583.059.043-.655-.33-1.444-.831-1.753-1.393-.861-4.164.515-3.43 1.703.382.618.168.753-.522.326-.644-.398-.931-1.111-.638-1.585.293-.474.075-1.144-.484-1.49-.559-.345-1.016-.076-1.016.598 0 .674-.236.99-.524.702-.933-.934.701-3.819 1.783-3.15.587.363.756.173.384-.429-1.05-1.699-6.32-2.474-8.584-1.262-1.582.846-2.063.803-2.074-.184-.011-.916-.283-.862-.948.189-.613.97-.526 1.724.257 2.208.895.553.846 1.054-.199 2.026-1.054.981-1.218.99-.678.035.41-.726.051-1.51-.848-1.855-.857-.329-1.368-.904-1.137-1.278.232-.375-.413-.681-1.432-.681s-1.635.353-1.368.785c.757 1.225-.791.879-5.017-1.12-2.137-1.01-3.363-2.086-2.725-2.391.765-.365.726-.465-.115-.295-1.852.376-1.657 2.82.387 4.849 1.039 1.032 1.517 2.476 1.157 3.5-.503 1.429-.369 1.516.744.483 1.106-1.027 1.776-.772 3.625 1.381 1.248 1.452 1.98 3.108 1.626 3.679-.39.633-.01.797.971.421 1.115-.428 1.447-.186 1.075.783-.423 1.102-.932 1.155-2.384.249-1.016-.634-1.643-1.482-1.395-1.884.248-.402.034-.989-.477-1.305-1.085-.67-.915 1.348.274 3.253.931 1.49 1.007 1.4-2.428 2.868-2.412 1.031-2.538.934-2.349-1.795.11-1.587-.206-2.634-.701-2.328-.495.306-.9.079-.9-.503S47.927 77 49.059 77c1.132 0 1.799-.421 1.48-.936-.318-.515-1.438-.872-2.489-.793-1.051.079-1.708.473-1.46.875.249.402-.212 1.103-1.024 1.557-1.023.573-1.188 1.281-.536 2.311.687 1.087.943 1.134.955.177.008-.72.445-1.043.971-.718 1.355.838.118 3.527-1.622 3.527-.799 0-1.205.399-.904.887.301.487-.086 1.412-.861 2.056-1.13.937-1.356.811-1.142-.637.146-.993-.453-2.402-1.331-3.13-.878-.728-.975-1.003-.216-.611.923.477 1.212.254.875-.676-.278-.764-1.011-1.277-1.63-1.139-.619.138-1.125-.452-1.125-1.309 0-.885.478-1.263 1.107-.875.745.461.887-.011.433-1.441-.371-1.169-.269-2.125.226-2.125 1.614 0 .947-2.998-.683-3.07-1.164-.052-1.054-.298.417-.93 1.1-.473 1.411-.891.691-.93-.72-.038-1.007-.559-.637-1.157.484-.783.976-.783 1.759 0 .598.598 1.56 1.073 2.137 1.057.578-.017.262-.489-.7-1.05S42 66.487 42 65.982c0-.506.788-.666 1.75-.356 1.477.475 1.516.394.25-.516-2.206-1.587-4.03-1.352-3.346.431M6.5 66c.34.55.816 1 1.059 1S8 66.55 8 66s-.477-1-1.059-1-.781.45-.441 1m66.01.016c.346.559 1.047.758 1.559.441C75.456 65.6 75.198 65 73.441 65c-.857 0-1.276.457-.931 1.016M190 65.684c0 .676-.903.896-2.25.549-2.082-.537-2.138-.441-.75 1.286.868 1.079.973 1.548.25 1.114-.718-.432-1.25-.249-1.25.43 0 .893-.359.884-1.466-.035-.807-.669-2.044-1.014-2.75-.766s-2.265.089-3.464-.354c-1.551-.573-2.884-.253-4.616 1.11-1.34 1.054-2.759 1.594-3.153 1.199-.395-.394-.568-.098-.384.658.183.756-.229 1.581-.917 1.833-.687.252-1.25.006-1.25-.548 0-.567-1.311-.353-3 .49-3.073 1.533-4.198 3.024-1.5 1.988.825-.316 1.507-.027 1.515.643.01.761.292.843.75.219.404-.55 1.86-.958 3.235-.906 1.375.052 3.512-.521 4.75-1.273 1.773-1.078 2.253-1.097 2.265-.094.012.953.235.926.889-.105.48-.758 1.373-1.069 1.984-.691.612.378 1.112.162 1.112-.479 0-.643.696-.899 1.552-.57.89.341 1.291.173.941-.393-.336-.544.064-.989.889-.989s1.796.479 2.158 1.065c.429.694 1.381.432 2.731-.75 1.14-.998 1.763-1.284 1.385-.634-.379.649-.251 1.451.284 1.782.535.331.732 1.227.439 1.992-.354.923.081 1.296 1.294 1.11 1.005-.155 2.207.217 2.671.827.517.678.627.43.282-.642-.31-.963-.127-1.806.405-1.875a327.87 327.87 0 001.886-.25c.504-.069 1.291-.535 1.75-1.035.484-.529.309-.609-.419-.19-.801.461-1.603-.202-2.225-1.84-.535-1.408-1.236-2.56-1.557-2.56-.321 0-.306.45.034 1 1.262 2.042-1.444.918-2.943-1.223-.856-1.222-1.557-1.714-1.557-1.093m-9 .699c0 .211.9.619 2 .907 1.1.287 2 .115 2-.384 0-.498-.9-.906-2-.906s-2 .173-2 .383m211.369 3.528c-.353.324-.845.024-1.091-.667-.247-.691-.785-1.048-1.197-.794-.411.254-.748-.195-.748-.998 0-1.206.32-1.171 1.84.204 1.012.916 1.55 1.93 1.196 2.255M15.475 67.96c.354.572 1.404 1.047 2.334 1.055 1.457.014 1.484.15.191.985-1.227.793-1.113.972.628.985 1.17.008 2.625-.585 3.234-1.318.822-.991.784-1.334-.146-1.334-.688 0-2.519-.318-4.068-.706-1.853-.465-2.596-.352-2.173.333m20.604.623c.048 1.165.285 1.402.604.605.289-.722.253-1.585-.079-1.917-.332-.332-.568.258-.525 1.312m14.462-.516c1.026 1.66.105 1.89-1.33.332-.71-.769-.849-1.399-.309-1.399.539 0 1.277.48 1.639 1.067m147.073.496c-.618 1.612.226 1.825 2.22.561 1.085-.688 1.054-.953-.167-1.422-.826-.317-1.75.071-2.053.861m123.768-.011c.341.89.173 1.291-.393.941-.544-.336-.989-1.034-.989-1.552 0-1.438.717-1.121 1.382.611M417.5 68c-.34.55-.029 1.036.691 1.079 1.015.061 1.026.193.053.585-.691.279-.942 1.031-.558 1.671.469.783.195.758-.836-.076-.844-.683-1.8-.976-2.124-.651-.325.324-.343-.355-.042-1.509.302-1.154 1.198-2.099 1.992-2.099.793 0 1.164.45.824 1M73.788 69.851c-1.144 1.465-1.096 1.499.425.307 1.487-1.165 2.048-.979 4.26 1.407 2.576 2.78 4.033 2.918 3.024.287-.303-.788-1.871-1.932-3.485-2.542-2.426-.915-3.159-.821-4.224.541m127.507-.403c-.951 1.083-.899 1.49.25 1.931.8.307 1.455.096 1.455-.469 0-.566.563-.69 1.25-.277.849.51.81.209-.122-.941-1.608-1.982-1.327-1.958-2.833-.244M254.5 69c-.34.55.057 1 .882 1s1.778-.45 2.118-1c.34-.55-.057-1-.882-1s-1.778.45-2.118 1m157.167.704c0 1.435-.722 1.596-3.085.689-2.4-.921-1.891-2.396.751-2.177 1.284.106 2.334.776 2.334 1.488m-248.31.796c.825.825 1.812 1.5 2.194 1.5.382 0 .134-.675-.551-1.5s-1.672-1.5-2.194-1.5-.274.675.551 1.5m16.302-.174c.371.371-.751.674-2.492.674-1.742 0-3.167-.352-3.167-.783 0-.94 4.701-.849 5.659.109m33.787.394c.363.945.34 1.399-.051 1.008s-1.326-.2-2.077.423c-.752.624-1.66.84-2.019.481-.483-.482 2.171-3.339 3.344-3.6.079-.018.44.742.803 1.688m37.922-.934c.267.432-.349.785-1.368.785-1.019 0-1.635-.353-1.368-.785.268-.432.883-.786 1.368-.786.485 0 1.1.354 1.368.786m-196.639.818c-.332.332-1.195.368-1.916.079-.798-.319-.561-.556.604-.604 1.054-.043 1.644.193 1.312.525m316.521.646c.137.688-.296 1.143-.964 1.012-.702-.138-.973.39-.643 1.25.314.818 1.31 1.452 2.214 1.409 1.25-.06 1.308-.211.244-.633-1.055-.418-.809-1.008 1-2.399l2.399-1.845-2.25-.022c-1.275-.012-2.142.52-2 1.228M382 71c0 .55-.198 1-.441 1s-.719-.45-1.059-1c-.34-.55-.141-1 .441-1s1.059.45 1.059 1M43 73.5c-1.296 1.379-1.796 2.5-1.115 2.5.704 0 .924.536.513 1.25-.396.688.398.233 1.765-1.009 1.367-1.243 2.789-1.955 3.161-1.583.839.838.867.002.069-2.076-.832-2.168-1.656-1.995-4.393.918m66.25-1.838c-.687.278-1.812.278-2.5 0-.687-.277-.125-.504 1.25-.504s1.938.227 1.25.504m64.345.493c.443.715.275.883-.44.44-.635-.392-1.155-.161-1.155.513s-.27.955-.6.625c-.572-.572.298-2.733 1.1-2.733.21 0 .703.52 1.095 1.155M395 73.118c0 .55-.45.722-1 .382-.55-.34-1-1.068-1-1.618s.45-.722 1-.382c.55.34 1 1.068 1 1.618m-367 1c0 .55-.45.722-1 .382-.55-.34-1-1.068-1-1.618s.45-.722 1-.382c.55.34 1 1.068 1 1.618m56.602-.667c.937.685 1.398 1.74 1.024 2.345-.437.708.09.951 1.483.683C89.545 76.01 90.95 75 89.167 75c-.642 0-1.167-.562-1.168-1.25 0-.687-1.148-1.316-2.55-1.397-2.27-.132-2.363-.011-.847 1.098m11.03.763c.632 1.022 3.368 1.022 3.368 0 0-.432-.867-.785-1.927-.785-1.059 0-1.708.353-1.441.785M257.5 74c.34.55.168 1-.382 1s-1.278-.45-1.618-1c-.34-.55-.168-1 .382-1s1.278.45 1.618 1m146.491.489c.68.819 1.747 1.236 2.372.926.625-.31.263.145-.804 1.011-2.582 2.093-3.045 2.007-4.967-.926-1.549-2.364-1.535-2.5.263-2.5 1.045 0 2.456.67 3.136 1.489M35 75c0 .55-.45 1-1 1s-1-.45-1-1 .45-1 1-1 1 .45 1 1m124.5 0c.34.55.816 1 1.059 1s.441-.45.441-1-.477-1-1.059-1-.781.45-.441 1m73.5.441c0 .793-.526 1.766-1.17 2.164-.798.493-.957.167-.499-1.025.446-1.163.252-1.606-.58-1.326-.693.233-1.154 1.721-1.034 3.333l.217 2.913-.925-2.914c-.508-1.603-.692-3.291-.407-3.75.871-1.411 4.398-.926 4.398.605M63.715 79.085C63.057 80.138 62.107 81 61.604 81c-.502 0-.175-.816.727-1.814 1.316-1.453 1.396-2.089.405-3.201-1.043-1.171-.969-1.187.469-.101 1.396 1.053 1.488 1.634.51 3.201M227 75.378c0 .207-.685.946-1.523 1.641-1.273 1.057-1.42.995-.893-.378.538-1.401 2.416-2.384 2.416-1.263M37.5 77c.34.55.141 1-.441 1S36 77.55 36 77s.198-1 .441-1 .719.45 1.059 1m61.996.13c.735 1.914 4.282 4.039 4.947 2.963.294-.477-.135-1.422-.954-2.102-.819-.68-1.489-.901-1.489-.491 0 .41-.685.176-1.523-.519-1.248-1.036-1.425-1.009-.981.149M0 78.059c0 .582.45.781 1 .441s1-.816 1-1.059S1.55 77 1 77s-1 .477-1 1.059m202.049.382c-.936 1.128-.768 1.639.819 2.488 1.098.588 2.284 1.976 2.636 3.084.352 1.109 1.065 1.753 1.584 1.432.52-.321.686-1.002.369-1.514-.316-.512-.147-.931.377-.931.88 0 2.557 3.023 1.94 3.496-.151.115-1.174.759-2.274 1.432l-2 1.223 2-.672c2.188-.735 4.444-1.271 6-1.425.55-.054-.077-.927-1.394-1.939-1.316-1.012-2.102-2.313-1.745-2.89.678-1.098-1.136-1.123-2.866-.039-.553.346-2.025-.197-3.271-1.206-1.247-1.01-1.87-2.081-1.385-2.381.485-.299 1.183-.244 1.55.124.368.367 1.372.771 2.232.898.859.126 1.259-.075.887-.446-.371-.371-.975-.682-1.341-.69-.367-.009-1.179-.341-1.804-.739-.625-.398-1.666-.085-2.314.695m46.951.118c0 .857.457 1.276 1.016.931.559-.346.758-1.047.441-1.559-.857-1.387-1.457-1.129-1.457.628m166.834.565c-1.075.681-1.042.871.166.979.825.074 1.95.048 2.5-.056.594-.113.56.259-.083.914-1.516 1.547-4.308.245-4.144-1.932.083-1.099.677-1.602 1.515-1.28 1.142.438 1.15.675.046 1.375M61 78.378c0 .207-.788.995-1.75 1.75-1.586 1.243-1.621 1.208-.378-.378C60.179 78.084 61 77.555 61 78.378m-36 1.063c0 .243-.45.719-1 1.059-.55.34-1 .141-1-.441S23.45 79 24 79s1 .198 1 .441M0 83.345c0 1.919.563 3.715 1.25 3.993 1 .403 1 .52 0 .583-.687.043-1.25.556-1.25 1.138 0 .582.45.781 1 .441 1.417-.876 1.242.839-.25 2.447-.861.927-.88 1.139-.061.679.653-.368 1.652.129 2.219 1.103.642 1.102 1.043 1.272 1.062.45.016-.727.709-2.001 1.539-2.831 1.501-1.501 1.109-3.848-.478-2.867-.457.283-.738-.835-.624-2.484C4.521 84.349 4.283 83 3.879 83c-.405 0-1.443-.707-2.308-1.571C.143 80 0 80.174 0 83.345m80.407.805c-.3.485-.955.629-1.455.32-.501-.309-1.82-.076-2.931.519-2.183 1.168-2.342 1.01-1.414-1.407.334-.87 1.26-1.582 2.059-1.582.885 0 1.166-.488.721-1.25-.402-.687.236-.402 1.418.634 1.181 1.036 1.902 2.28 1.602 2.766m19.217-3.351c-.408.661-.378 1.208.067 1.216.445.009.198.402-.548.875-.949.602-.542.86 1.357.86 1.492 0 2.283-.281 1.757-.625-.527-.344-1.167-1.278-1.424-2.076-.345-1.072-.66-1.137-1.209-.25m290.705.785c-.334.871-.887 1.208-1.23.75-.342-.459-1.03-1.172-1.527-1.584-.498-.412.056-.75 1.23-.75 1.537 0 1.965.443 1.527 1.584m-138.766.909c.86.271 1.27.968.911 1.548-.452.732-1.036.737-1.905.016-1.265-1.049-2.569-.464-2.569 1.154 0 .482.787.744 1.75.583 1.786-.3 1.922.359.717 3.456-.411 1.056-.218 1.75.485 1.75.641 0 .886-.453.544-1.007-.343-.554.078-1.276.935-1.605.857-.329 1.368-.904 1.137-1.278-.232-.375.446-.681 1.505-.681 1.06 0 1.927.353 1.927.785 0 .432-.627.786-1.393.786s-1.652.675-1.969 1.5c-.316.825-.139 1.5.393 1.5.533 0 .969-.477.969-1.059s.48-.762 1.067-.399c.588.363 1.314-.285 1.617-1.441.642-2.456.987-2.504 4.316-.601 2.847 1.628 1.888 2.046-1.066.465-1.536-.822-1.934-.707-1.934.559 0 .95.466 1.306 1.155.881.685-.424.884-.277.488.364-.366.592-2.123 1.387-3.904 1.765-1.782.379-4.139 1.421-5.239 2.317-1.1.895-1.678 1.236-1.285.757s-.343-2.725-1.635-4.99c-1.293-2.265-2.14-4.681-1.882-5.369.301-.802-.097-1.033-1.109-.645-.867.333-1.332 1.003-1.031 1.489.3.486-.152.616-1.006.289-.854-.328-1.545-1.335-1.537-2.239.011-1.196.232-1.303.809-.393.627.988 1.192.959 2.693-.139 1.045-.764 2.481-1.214 3.191-1 .711.214 1.996.611 2.855.882m-192.834.111c-.332.332-1.195.368-1.916.079-.798-.319-.561-.556.604-.604 1.054-.043 1.644.193 1.312.525m33.482.997c-.71.769-.849 1.399-.309 1.399 1.038 0 2.541-1.902 1.948-2.466-.192-.183-.93.297-1.639 1.067m-52.292.949c.411-.254.748.174.748.951 0 .777-.624 1.652-1.386 1.945-.762.292-1.129.117-.817-.388.313-.506.104-1.207-.464-1.558-.568-.351-.718-1.147-.333-1.77.51-.825.808-.805 1.101.075.222.664.739.999 1.151.745m179.956-.962c-.546 1.799-.203 3.092 1.099 4.143 1.354 1.092 1.357 1.344.026 2.235-1.282.857-1.241 1.006.281 1.019.98.008 2.055.728 2.39 1.599.489 1.275.772 1.324 1.453.25.647-1.022.849-.924.861.416.008.963-.387 1.75-.879 1.75s-.83 1.125-.75 2.499c.103 1.79.712 2.495 2.144 2.485 1.657-.012 1.743-.181.5-.984-.825-.533-1.007-.976-.404-.985.638-.009 1.001-1.581.868-3.765-.125-2.062-.693-3.75-1.262-3.75-.57 0-1.283-.248-1.585-.55-.303-.302.545-.55 1.883-.55s2.232.202 1.985.448c-.247.247.512 1.282 1.686 2.3 1.174 1.019 1.706 1.852 1.182 1.852s-1.551-.562-2.282-1.25c-1.094-1.029-1.209-.742-.651 1.621.66 2.793 2.738 5.629 4.124 5.629.377 0-.02-1.077-.883-2.394-1.478-2.257-1.457-2.365.374-1.887 1.068.28 1.746.827 1.505 1.216-.241.39.439 1.459 1.511 2.377 1.072.918 1.986 1.335 2.032.928l.329-2.933c.135-1.206-.015-2.165-.333-2.131-2.222.235-5.04-.303-4.848-.926.127-.412-.998-2.542-2.5-4.732-1.502-2.19-2.731-3.395-2.731-2.677s-.787 1.153-1.75.966c-.963-.187-1.752-1.19-1.755-2.229-.004-1.562-3.214-3.327-3.62-1.99m168.522.245c.283.459-.12.834-.897.834s-1.18-.375-.897-.834c.283-.458.687-.833.897-.833.21 0 .614.375.897.833M7 85.5c-.995 1.199-.988 1.81.035 3.042.97 1.169.999 1.824.123 2.7C6.521 91.879 6 93.18 6 94.133c0 1.796-3.289 3.424-4.903 2.427-1.042-.644-.863 2.007.207 3.078 1.023 1.023.848 2.574-.216 1.916-.502-.31-.799.226-.66 1.191.152 1.053 1.218 1.829 2.663 1.94 1.325.101 1.655-.038.734-.309-1.505-.444-1.681-1.678-.894-6.279.038-.222.881.533 1.874 1.678 1.765 2.035 1.83 2.038 3 .166 1.354-2.169 1.596-4.307.403-3.569-.436.269-.858-.379-.938-1.441-.08-1.062.051-1.931.292-1.931.961 0 4.277 3.919 4.854 5.735.337 1.062 1.341 1.932 2.231 1.932 1.387 0 1.358-.19-.206-1.334-1.787-1.307-1.724-1.442.809-1.721 1.373-.151 2.726 4.265 1.819 5.935-.313.576.238.165 1.224-.914.987-1.079 1.437-2.225 1-2.547-1.775-1.311-3.038-4.789-2.251-6.197.47-.84.383-2.11-.201-2.935-.846-1.195-.932-1.148-.479.264.303.945.12 1.984-.406 2.309-.526.325-.956.114-.956-.468 0-.582-.661-1.059-1.469-1.059-.981 0-1.251.58-.812 1.75.588 1.571.472 1.6-1.141.287-1.077-.877-1.352-1.612-.688-1.834 1.416-.472 1.459-3.203.051-3.203-.582 0-.738.52-.346 1.155.472.763.271.88-.592.347-2.004-1.239 1.605-3.457 4.938-3.035 1.839.233 2.726-.112 2.726-1.061 0-.773-.221-1.185-.492-.915-.27.271-1.095-.01-1.833-.622-.994-.825-1.342-.807-1.342.068 0 .649-.412.927-.915.616-.503-.311-1.092-.032-1.31.621-.228.684-1.137.901-2.148.513-.965-.37-1.474-1.126-1.131-1.68.952-1.542-.094-1.197-1.496.493m210 .059c0 .857.457 1.276 1.016.931.559-.346.758-1.047.441-1.559-.857-1.387-1.457-1.129-1.457.628m18.813-.876c.721.289 1.584.253 1.916-.079.332-.332-.258-.568-1.312-.525-1.165.048-1.402.285-.604.604m179.52.773c0 .801.383 1.22.85.931.467-.289.591-.944.274-1.456-.808-1.308-1.124-1.161-1.124.525M31.149 87.251c-.757.757-1.486.812-2.137.161s-.259-1.043 1.149-1.149c1.61-.121 1.854.122.988.988M84.5 88c.34.55.816 1 1.059 1s.441-.45.441-1-.477-1-1.059-1-.781.45-.441 1m13.833.456c0 .801.375 1.224.834.941.458-.283.833-.938.833-1.456S99.625 87 99.167 87c-.459 0-.834.655-.834 1.456M95.5 89c.34.55.816 1 1.059 1s.441-.45.441-1-.477-1-1.059-1-.781.45-.441 1m309 0c-.34.55-.141 1 .441 1S406 89.55 406 89s-.198-1-.441-1-.719.45-1.059 1M69.661 91.394c-1.467 2.24-1.449 2.363.283 1.91 2.263-.591 6.336 1.433 5.525 2.746-.323.523-.163.95.355.95 1.583 0 1.978-3.55.604-5.429-.712-.974-1.775-1.475-2.361-1.112-.587.362-1.067.182-1.067-.4 0-1.836-1.709-1.152-3.339 1.335m143.262-2.056c-.042.089-.232.988-.424 1.998-.324 1.716-.227 1.728 1.476.186 1.702-1.54 1.814-1.529 1.675.164-.083.998-.825 2.362-1.65 3.032-1.665 1.352-1.637 1.375 2.25 1.836 1.512.179 2.75-.152 2.75-.736 0-.728.42-.715 1.333.044 1.006.835 1.334.753 1.334-.334 0-.792-.379-1.206-.841-.921-.462.286-1.11-.184-1.44-1.044-.33-.859-1.227-1.563-1.993-1.563s-1.28-.503-1.143-1.117c.191-.853-2.961-2.316-3.327-1.545M19 91.714c0 .707.395 1.286.878 1.286.482 0 1.357-.579 1.944-1.286.807-.972.594-1.285-.877-1.285-1.07 0-1.945.578-1.945 1.285M91 91c0 .55-.198 1-.441 1s-.719-.45-1.059-1c-.34-.55-.141-1 .441-1S91 90.45 91 91m115.037.931c-.866 1.618-.669 1.986 1.215 2.273 1.236.189 2.124.929 1.973 1.644-.151.715.18 1.02.736.676 1.73-1.069.07-6.524-1.985-6.524-.498 0-1.371.869-1.939 1.931m34.168-.306c-.742.795-.845 1.375-.244 1.375.571 0 1.039.702 1.039 1.559s-.415 1.302-.923.989c-1.15-.711-.785 5.106.388 6.173.471.429.549.244.174-.41-1.189-2.075 2.621-3.386 4.61-1.585.977.883 1.751 1.098 1.751.486 0-.604-.897-1.727-1.994-2.495-1.096-.768-1.659-1.766-1.25-2.217.409-.451.182-.497-.506-.101-.821.472-1.25.041-1.25-1.257 0-1.086.54-2.155 1.199-2.375.824-.275.744-.575-.255-.958-.8-.307-2.032.06-2.739.816M34.5 93.675c0 1.602.767 2.328 2.91 2.757 1.6.32 3.138.354 3.416.075.279-.279-.195-.507-1.052-.507-1.845 0-2.991-2.383-1.746-3.628.496-.496-.077-.872-1.328-.872-1.592 0-2.2.601-2.2 2.175m368.932-1.786c.407.659.23 1.814-.394 2.566-.78.94-.807 1.57-.087 2.015.577.356 1.049.145 1.049-.47s.408-.866.907-.558c.498.309.669-.347.379-1.456-.29-1.11-.993-2.305-1.561-2.656-.611-.378-.731-.149-.293.559M95.794 95.947c-.237 1.621-.104 2.745.297 2.497 1.056-.653 3.909.604 3.909 1.722 0 .524-.45.674-1 .334s-1-.216-1 .274c0 .491-.655.893-1.456.893-.801 0-1.224-.375-.941-.834.283-.458-.213-.833-1.103-.833s-1.34.45-1 1c.34.55.168 1-.382 1-1.712 0-2.443-2.181-1.025-3.057.742-.459 1.024-1.16.626-1.557-.653-.653 1.943-4.386 3.049-4.386.253 0 .264 1.326.026 2.947M218.5 94c.34.55.141 1-.441 1S217 94.55 217 94s.198-1 .441-1 .719.45 1.059 1m194.833.333a1.33 1.33 0 001.318 1.334c.984 0 1.038-.337.211-1.334-.609-.733-1.202-1.333-1.318-1.333-.116 0-.211.6-.211 1.333m-244.769.96c.376.986.935 1.541 1.243 1.233.308-.307.001-1.114-.683-1.793-.988-.98-1.102-.865-.56.56M56 95.383c0 .211.901.619 2.001.907 1.101.288 1.75.115 1.441-.383-.538-.871-3.442-1.313-3.442-.524M72.5 96c-.34.55-.141 1 .441 1S74 96.55 74 96s-.198-1-.441-1-.719.45-1.059 1m38.5 1c0 .55-.477 1-1.059 1s-.781-.45-.441-1 .816-1 1.059-1 .441.45.441 1m66.304.317c-.277.449-.234 1.086.096 1.416.33.33.6.117.6-.473s.849-.851 1.887-.579c1.038.271 2.12.117 2.405-.344.284-.46-.608-.837-1.983-.837s-2.727.367-3.005.817m59.038.132c.371.967.076 1.265-.887.895-.794-.304-1.195-.956-.89-1.449.766-1.24 1.132-1.126 1.777.554m6.093-.554c.305.493-.096 1.145-.89 1.449-.963.37-1.258.072-.887-.895.645-1.68 1.011-1.794 1.777-.554M6.857 97.89c.824.523.967 1.101.363 1.474-.546.338-1.549-.056-2.229-.875-1.35-1.626-.291-1.965 1.866-.599m174.407 2.971c.087 1.148.748 2.313 1.47 2.59 1.048.402 1.079.055.154-1.724-1.631-3.134-1.801-3.225-1.624-.866M24.5 103c-.995 1.1-1.628 2.034-1.405 2.077l2.155.411c1.275.244 1.75-.319 1.75-2.076 0-2.925-.196-2.958-2.5-.412m5.941-.563c-1.921 1.421-1.921 1.434.005 1.162 1.07-.15 2.12-.797 2.333-1.436.508-1.525.014-1.467-2.338.274m18.187.089c-.397 1.037-.208 1.332.553.862.798-.493.937-.138.446 1.142-.694 1.808-.658 1.808 1.33.009 1.124-1.017 2.043-2.079 2.043-2.361 0-.281-.296-.215-.658.147-.362.362-1.209.2-1.883-.359-.867-.72-1.402-.556-1.831.56m-6.753-.026c-.069.275-.181.95-.25 1.5s-.575.888-1.125.75a.965.965 0 01-.679-1.25c.177-.55-.273-.381-1 .375-1.04 1.082-1.055 1.473-.071 1.833.688.252 1.25 1.134 1.25 1.959 0 2.86 2.284.723 2.633-2.464.192-1.762.129-3.203-.141-3.203-.271 0-.548.225-.617.5m2.938.183c.721.289 1.584.253 1.916-.079.332-.332-.258-.568-1.312-.525-1.165.048-1.402.285-.604.604M125 104c.825.533 1.05.969.5.969s-1.675-.436-2.5-.969c-.825-.533-1.05-.969-.5-.969s1.675.436 2.5.969m78.367-.25c.447.743.22 1.263-.558 1.282-.851.02-.678.51.494 1.399 1.105.838 1.386 1.571.725 1.893-.664.324-.622.438.11.297 1.819-.351 1.866-3.376.075-4.827-1.205-.976-1.413-.987-.846-.044m-158.899 2.351c-.781 2.462.891 4.745 2.074 2.832.494-.801.357-.988-.387-.528-.681.42-1.155.085-1.155-.815 0-.952.569-1.309 1.511-.947 1.082.415 1.336.121.893-1.032-.855-2.229-2.141-2.014-2.936.49m14.865-.601c0 .825.811 1.5 1.802 1.5 1.191 0 1.607-.509 1.227-1.5-.317-.825-1.128-1.5-1.802-1.5-.675 0-1.227.675-1.227 1.5M208 105c.825.533 1.95.969 2.5.969s.325-.436-.5-.969c-.825-.533-1.95-.969-2.5-.969s-.325.436.5.969m-156 1c-.901.582-1.025.975-.309.985.655.008 1.469-.435 1.809-.985.767-1.242.421-1.242-1.5 0M.307 107.421c.106.594.643 1.451 1.193 1.905.648.535.56 1.005-.25 1.333C-.12 111.215-.507 117 .826 117c.454 0 1.864-1.105 3.132-2.456 1.269-1.35 2.81-2.363 3.425-2.25.614.113 1.259-1.031 1.433-2.544.342-2.966-.62-3.488-2.763-1.5-1.077 1-1.205 1-.641 0 .388-.687.342-1.287-.103-1.333a526.42 526.42 0 01-3.002-.329c-1.206-.135-2.106.24-2 .833m3.36 1.035c0 .801-.383 1.22-.85.931-.467-.289-.591-.944-.274-1.456.808-1.308 1.124-1.161 1.124.525m23.666 0c0 .801.383 1.22.85.931.467-.289.591-.944.274-1.456-.808-1.308-1.124-1.161-1.124.525M13 108.393c0 .949 2.993 1.427 3.527.563.325-.526-.336-.956-1.468-.956s-2.059.177-2.059.393M215 110c0 .55-.198 1-.441 1s-.719-.45-1.059-1c-.34-.55-.141-1 .441-1s1.059.45 1.059 1m-204 2c0 .55.477 1 1.059 1s.781-.45.441-1-.816-1-1.059-1-.441.45-.441 1m171-.622c0 .207.787.995 1.75 1.75 1.586 1.243 1.621 1.208.378-.378-1.307-1.666-2.128-2.195-2.128-1.372m-162.731 1.225c.332.331.199 1.665-.295 2.964-.552 1.454-.528 2.591.064 2.957.529.327.962.117.962-.465 0-.582.498-1.059 1.107-1.059s.853.661.544 1.468c-.31.807-.133 1.734.393 2.059.526.325.956-.35.956-1.499 0-1.15-.675-2.35-1.5-2.666-2.17-.833-1.842-2.289.75-3.331 2.118-.851 2.079-.908-.667-.968-1.604-.034-2.645.208-2.314.54m5.731.242c0 .415.54 1.295 1.2 1.955.933.933.933 1.2 0 1.2-.66 0-1.2.402-1.2.894s1.125.83 2.499.75c1.375-.079 2.5-.236 2.5-.349.001-.112-1.124-1.329-2.499-2.704-1.375-1.375-2.5-2.161-2.5-1.746m210 .64c0 .148-.65.809-1.444 1.468-1.178.978-1.416.837-1.295-.768.088-1.164.676-1.763 1.444-1.468.712.273 1.295.619 1.295.768m-222.595 1.67c-.485.783-.263.882.69.308 1.102-.664 1.169-.535.31.595-2.578 3.396-2.251 4.435 1.474 4.688 2.367.16 3.149-.057 2.258-.629-.75-.481-.917-1.042-.372-1.246 1.49-.557-.436-4.871-2.174-4.871-.81 0-1.794.52-2.186 1.155m24.595.723c0 .617.505 1.122 1.122 1.122.776 0 .738.464-.122 1.5-.718.865-.815 1.5-.229 1.5 1.727 0 2.188-2.789.67-4.049-1.022-.848-1.441-.87-1.441-.073M6 117c0 .55.477 1 1.059 1s.781-.45.441-1-.816-1-1.059-1-.441.45-.441 1m3.079 2.583c.048 1.165.285 1.402.604.605.289-.722.253-1.585-.079-1.917-.332-.332-.568.258-.525 1.312m16.553-.104c-1.797 1.36-1.787 1.408.25 1.255 1.165-.088 2.118-.739 2.118-1.447 0-1.572-.045-1.568-2.368.192" fill="#014" fill-rule="evenodd"/></svg>
